<?xml version="1.0" standalone="no"?>
<!DOCTYPE svg PUBLIC "-//W3C//DTD SVG 20010904//EN"
 "http://www.w3.org/TR/2001/REC-SVG-20010904/DTD/svg10.dtd">
<svg version="1.0" xmlns="http://www.w3.org/2000/svg"
 width="1024.000000pt" height="1024.000000pt" viewBox="0 0 1024.000000 1024.000000"
 preserveAspectRatio="xMidYMid meet">

<g transform="translate(0.000000,1024.000000) scale(0.100000,-0.100000)"
fill="#000000" stroke="none">
<path d="M1585 9401 c-109 -27 -174 -115 -220 -295 -65 -255 -59 -713 14
-1181 40 -259 101 -553 153 -744 l31 -114 -18 -91 c-42 -214 -29 -439 36 -606
24 -63 46 -104 125 -231 2 -4 -24 -41 -57 -84 -160 -202 -234 -345 -412 -795
-69 -173 -147 -362 -174 -421 -28 -58 -53 -118 -57 -134 -18 -72 51 -123 152
-110 l53 7 -39 -79 c-120 -238 -220 -546 -225 -688 -2 -54 1 -67 22 -89 33
-35 69 -40 127 -18 l49 18 0 -175 c1 -235 29 -378 127 -641 48 -130 66 -205
77 -323 8 -82 11 -93 37 -115 36 -31 79 -26 153 17 29 18 54 31 56 29 1 -2 14
-38 30 -80 77 -214 246 -409 505 -580 118 -79 308 -176 399 -204 l61 -19 0
-68 c0 -93 30 -144 101 -174 32 -14 39 -10 202 111 l117 86 0 -32 c1 -98 63
-250 141 -346 51 -63 145 -136 209 -164 84 -37 133 -22 186 53 50 73 161 130
277 142 42 4 47 3 41 -12 -19 -44 -34 -121 -34 -173 0 -70 26 -106 82 -115 31
-4 57 4 159 52 90 42 276 115 294 115 0 0 1 -24 0 -52 0 -53 0 -53 46 -76 86
-43 177 -55 399 -56 177 0 227 4 365 28 264 44 516 110 733 192 230 86 392
104 577 64 185 -40 220 -45 253 -31 17 7 35 25 42 42 16 38 7 61 -81 190 -38
56 -69 103 -69 104 0 2 33 -6 73 -17 109 -29 395 -75 548 -88 162 -14 258 -4
295 31 33 31 33 92 -1 141 -14 20 -25 39 -25 41 0 2 30 5 68 6 166 4 484 52
575 88 110 42 115 108 19 215 -23 25 -32 43 -25 45 7 3 52 29 100 60 293 183
524 411 625 616 67 135 83 205 82 357 0 117 -5 156 -30 242 -4 12 18 4 83 -29
95 -49 129 -51 167 -13 32 32 24 94 -52 410 -70 288 -116 510 -107 518 3 3 7
-3 11 -12 7 -18 73 -56 98 -56 23 0 56 50 56 84 0 38 -66 296 -121 471 -49
154 -112 325 -167 452 -40 92 -40 93 -18 93 37 0 86 21 96 40 18 33 11 88 -21
167 -76 191 -218 425 -368 605 l-81 98 39 57 c149 221 203 502 156 807 l-15
100 36 145 c147 601 234 1348 195 1680 -15 126 -52 258 -92 328 -139 242 -435
212 -889 -92 -264 -177 -463 -350 -910 -791 -179 -176 -356 -345 -395 -375
-62 -49 -168 -119 -180 -119 -2 0 2 15 9 33 17 39 7 69 -29 93 -48 31 -135 11
-471 -111 l-93 -34 6 49 c5 44 3 51 -22 74 -37 34 -49 35 -260 17 -300 -26
-428 -31 -770 -31 -390 0 -590 10 -672 35 -33 10 -78 36 -120 70 -37 30 -80
57 -95 60 -56 13 -95 -38 -83 -105 7 -35 7 -35 -54 32 -101 109 -150 130 -198
82 -22 -22 -25 -32 -20 -77 l4 -51 -30 35 c-394 450 -898 915 -1232 1134 -222
145 -379 222 -515 251 -69 14 -175 17 -225 5z m1046 -1458 c13 -15 12 -15 -8
-4 -24 12 -29 21 -14 21 5 0 15 -7 22 -17z m5272 -50 c-7 -2 -19 -2 -25 0 -7
3 -2 5 12 5 14 0 19 -2 13 -5z m-5686 -202 c35 -5 77 -16 93 -25 30 -15 71
-23 160 -31 25 -2 61 -9 80 -15 51 -15 51 -12 -2 16 -27 13 -48 26 -48 29 0 5
104 -41 133 -59 12 -7 43 -22 70 -31 59 -22 56 -31 -4 -11 -175 58 -369 86
-461 67 -57 -12 -94 -37 -67 -45 8 -2 59 -16 114 -32 63 -18 155 -56 250 -104
145 -74 295 -163 295 -176 0 -4 -12 2 -27 12 -67 44 -117 67 -120 57 -4 -11
-61 12 -74 30 -3 5 -9 9 -12 8 -4 0 -21 6 -39 13 -18 7 -64 24 -103 39 -38 14
-101 38 -140 52 -73 28 -155 49 -265 67 -95 15 -150 36 -150 57 0 21 40 61 78
77 33 15 154 17 239 5z m6046 -276 c57 -16 117 -49 117 -64 0 -17 -32 -20
-303 -31 -149 -6 -286 -12 -304 -14 -30 -4 -31 -3 -21 14 7 11 9 23 5 27 -5 4
-12 1 -17 -7 -6 -10 -10 -11 -10 -3 0 30 40 41 340 97 39 7 136 -2 193 -19z
m-5372 -182 c13 -16 12 -17 -3 -4 -10 7 -18 15 -18 17 0 8 8 3 21 -13z m109
-88 c13 -14 21 -25 18 -25 -2 0 -15 11 -28 25 -13 14 -21 25 -18 25 2 0 15
-11 28 -25z m2109 -24 c0 -9 -5 -5 -11 9 l-10 25 -9 -22 c-13 -35 -19 -27 -7
9 10 29 12 30 25 13 7 -11 13 -26 12 -34z m29 -116 c0 -16 -2 -15 -8 5 -11 34
-11 60 0 35 5 -11 8 -29 8 -40z m2950 29 c39 -9 78 -24 87 -34 16 -17 15 -19
-4 -29 -32 -18 -109 -33 -189 -38 -40 -3 -70 -8 -67 -13 2 -4 -28 0 -68 10
-39 10 -108 25 -152 33 l-80 16 68 -5 c49 -4 67 -2 67 7 0 7 6 4 14 -7 8 -10
18 -15 22 -11 5 4 2 12 -6 17 -12 8 -11 10 5 10 11 0 31 -8 44 -17 14 -9 21
-11 17 -5 -4 7 -2 12 3 12 6 0 11 -5 11 -12 0 -6 3 -9 6 -6 3 4 0 16 -6 28 -6
12 -9 24 -6 28 4 3 39 11 79 18 40 6 75 12 78 13 4 1 38 -6 77 -15z m-248 -18
c0 -9 -40 -13 -46 -5 -3 5 6 9 20 9 14 0 26 -2 26 -4z m-252 -33 c-10 -2 -28
-2 -40 0 -13 2 -5 4 17 4 22 1 32 -1 23 -4z m-2441 -95 c-2 -18 -4 -4 -4 32 0
36 2 50 4 33 2 -18 2 -48 0 -65z m-146 -3 c-6 -35 -9 -41 -10 -20 -1 30 9 78
15 73 2 -2 -1 -26 -5 -53z m2956 19 c-3 -3 -12 -4 -19 -1 -8 3 -5 6 6 6 11 1
17 -2 13 -5z m-2810 -206 c-2 -24 -4 -7 -4 37 0 44 2 63 4 43 2 -21 2 -57 0
-80z m2630 -44 c-3 -3 -12 -4 -19 -1 -8 3 -5 6 6 6 11 1 17 -2 13 -5z m-2903
-60 c3 -8 2 -12 -4 -9 -6 3 -10 10 -10 16 0 14 7 11 14 -7z m-575 -28 c51 -27
138 -133 206 -253 38 -65 77 -128 88 -140 l20 -22 -27 5 c-33 6 -34 -4 0 -16
20 -8 24 -15 19 -31 -5 -14 0 -28 13 -42 11 -12 22 -38 25 -57 3 -27 4 -22 5
18 1 29 -2 51 -7 48 -5 -3 -11 8 -13 24 -3 21 0 30 10 30 8 0 12 -6 9 -14 -3
-8 1 -20 9 -27 12 -10 15 -40 13 -160 -1 -81 -6 -153 -10 -161 -7 -9 -9 -8 -7
7 3 39 -2 66 -11 60 -5 -3 -13 0 -17 6 -4 7 -3 9 2 6 6 -3 16 -1 24 4 12 7 11
10 -8 15 -16 5 -21 11 -17 25 5 15 3 17 -11 12 -12 -5 -15 -3 -9 6 7 12 -9 30
-26 31 -10 0 2 -54 15 -65 6 -5 12 -19 13 -30 3 -39 14 -77 29 -100 11 -18 12
-25 3 -31 -8 -4 -9 -3 -5 4 4 7 3 12 -2 12 -5 0 -21 39 -36 88 -15 48 -43 118
-62 155 -20 38 -33 71 -30 74 7 7 27 -7 22 -16 -5 -8 11 -38 17 -31 7 9 -13
70 -23 70 -6 0 -19 -9 -30 -20 -11 -11 -15 -20 -10 -20 6 0 10 -7 10 -16 0 -9
-5 -12 -12 -8 -21 13 -48 12 -59 -3 -14 -16 4 -25 41 -21 25 3 25 1 27 -74 l2
-77 -25 11 c-26 12 -28 33 -3 33 8 0 15 10 17 23 2 12 -1 22 -7 22 -6 0 -11
-7 -11 -15 0 -8 -6 -15 -14 -15 -25 0 -25 -27 1 -76 14 -27 29 -51 33 -54 9
-6 30 -78 29 -100 0 -8 -6 4 -13 27 -8 23 -27 64 -45 92 -17 28 -33 62 -37 76
-13 52 -20 22 -11 -50 6 -48 6 -87 -1 -112 l-10 -38 -1 48 c-1 38 -4 47 -18
47 -13 0 -14 -3 -6 -8 9 -5 15 -47 18 -123 3 -79 1 -107 -5 -91 -6 13 -12 38
-14 55 -2 18 -9 44 -15 59 -5 14 -26 116 -46 225 -32 172 -43 229 -71 352 l-5
24 29 -19 c16 -11 53 -41 83 -68 38 -35 47 -48 31 -44 -12 4 -20 2 -16 -3 3
-5 12 -9 20 -9 8 0 14 -7 14 -15 0 -8 5 -15 11 -15 5 0 7 5 3 11 -4 7 -7 19
-8 28 -1 9 -18 48 -38 86 -45 89 -98 253 -105 328 -6 63 -2 67 46 43z m808
-48 c-3 -7 -5 -2 -5 12 0 14 2 19 5 13 2 -7 2 -19 0 -25z m-26 -114 c-11 -43
-20 -72 -20 -64 -2 22 33 164 36 153 2 -5 -5 -45 -16 -89z m-384 -214 c56
-114 77 -174 117 -330 8 -30 15 -47 15 -37 1 9 8 17 17 17 11 0 14 -6 8 -22
-4 -13 -7 -29 -7 -35 0 -7 -7 -13 -15 -13 -9 0 -12 6 -8 16 3 8 2 13 -3 10 -5
-3 -12 11 -15 32 -13 71 -106 279 -119 266 -3 -3 -15 10 -28 28 -13 18 -27 36
-32 39 -9 6 -29 100 -41 194 l-6 49 28 -44 c15 -25 56 -101 89 -170z m150 153
c-3 -10 -5 -2 -5 17 0 19 2 27 5 18 2 -10 2 -26 0 -35z m140 -15 c-3 -8 -6 -5
-6 6 -1 11 2 17 5 13 3 -3 4 -12 1 -19z m-145 -33 c-2 -14 -6 -25 -8 -25 -2 0
-4 11 -4 25 0 14 4 25 9 25 4 0 6 -11 3 -25z m215 -27 c-2 -13 -4 -5 -4 17 -1
22 1 32 4 23 2 -10 2 -28 0 -40z m-222 -82 c-19 -84 -20 -140 -2 -130 10 6 10
4 0 -7 -14 -15 -16 -73 -3 -104 7 -18 8 -18 15 -3 5 14 11 15 26 7 10 -5 19
-17 18 -27 0 -14 -2 -14 -9 3 -7 18 -8 19 -15 3 -4 -10 -5 -24 -2 -32 4 -9 -2
-13 -19 -13 -16 0 -23 4 -20 12 2 7 -1 18 -7 24 -23 23 -7 289 20 334 13 22
12 -7 -2 -67z m215 -133 c0 -176 -14 -195 -18 -26 -2 100 4 183 14 183 2 0 4
-71 4 -157z m1169 78 c-1 -46 -11 -98 -30 -153 -15 -46 -28 -76 -28 -67 -1 9
7 40 18 70 10 30 22 90 26 133 7 77 6 79 -11 62 -61 -56 -95 -93 -100 -108 -3
-10 -10 -18 -16 -18 -6 0 2 17 17 38 29 40 105 112 118 112 4 0 7 -31 6 -69z
m-2446 -116 c65 -33 157 -105 205 -162 22 -25 61 -86 87 -134 l46 -88 -47 26
c-26 15 -63 32 -83 39 -28 10 -31 13 -13 14 12 0 40 -9 62 -20 52 -26 54 -26
33 13 -29 53 -45 68 -65 61 -10 -3 -18 0 -18 6 0 6 4 9 8 6 4 -2 13 -1 20 3
15 9 -83 120 -137 157 -20 13 -47 32 -61 41 -25 17 -25 17 -7 -4 16 -18 16
-21 3 -26 -10 -4 -20 2 -26 13 -6 11 -16 20 -22 20 -7 0 0 -12 14 -27 22 -24
53 -72 131 -204 38 -65 -4 -15 -49 58 -26 43 -76 113 -111 155 -35 43 -63 80
-63 83 0 9 39 -4 93 -30z m2262 -61 c-28 -63 -89 -224 -99 -261 -3 -13 -9 -33
-12 -45 -6 -21 -5 -22 11 -8 13 11 12 5 -6 -22 -13 -20 -25 -35 -27 -34 -7 7
33 149 64 231 45 116 86 206 91 201 2 -2 -8 -30 -22 -62z m-1588 40 c-3 -3
-12 -4 -19 -1 -8 3 -5 6 6 6 11 1 17 -2 13 -5z m-617 -66 c0 -4 -4 -8 -9 -8
-6 0 -12 4 -15 8 -3 5 1 9 9 9 8 0 15 -4 15 -9z m1025 -76 c-8 -8 -25 10 -19
20 4 6 9 5 15 -3 4 -7 6 -15 4 -17z m-1052 -100 c69 -28 133 -62 115 -62 -3 0
-29 11 -56 25 -28 14 -65 28 -83 32 l-33 6 38 -47 c21 -25 33 -44 25 -41 -12
5 -56 58 -99 119 -13 19 -13 20 0 10 8 -6 50 -25 93 -42z m2211 -27 c-32 -35
-60 -63 -62 -61 -3 4 32 47 76 92 56 58 46 37 -14 -31z m-2059 7 c-3 -3 -11 0
-18 7 -9 10 -8 11 6 5 10 -3 15 -9 12 -12z m59 -8 c3 -8 2 -12 -4 -9 -6 3 -10
10 -10 16 0 14 7 11 14 -7z m14 -111 c46 -79 112 -206 112 -216 0 -3 -13 -1
-30 4 -16 6 -30 15 -30 20 0 6 9 5 20 -1 11 -6 20 -8 20 -6 0 10 -94 182 -122
224 -16 23 -24 42 -19 42 6 0 28 -30 49 -67z m-176 19 c7 -9 42 -41 78 -71 65
-53 98 -93 44 -53 -54 41 -159 142 -147 142 6 0 18 -8 25 -18z m-503 -167
c105 -15 211 -43 211 -56 0 -6 -47 -16 -125 -25 -96 -11 -268 -63 -332 -101
-24 -14 -43 -23 -43 -20 0 10 78 55 125 72 64 24 79 35 65 49 -5 5 -10 15 -10
21 0 5 9 -3 19 -18 11 -17 21 -24 25 -18 4 5 12 8 19 5 7 -2 23 5 35 16 16 15
22 17 22 7 0 -16 46 -11 57 6 4 6 -3 8 -20 3 -21 -5 -27 -2 -35 22 -9 26 -9
27 -16 5 -8 -26 -41 -31 -50 -8 -4 12 -2 13 13 6 19 -10 31 -6 31 12 0 5 -6 7
-14 4 -7 -3 -17 -2 -22 2 -5 5 -23 11 -40 14 -33 6 -35 3 -35 -58 0 -23 -2
-26 -9 -15 -5 8 -10 25 -10 37 0 29 -15 37 -40 21 -17 -11 -22 -11 -30 2 -5 8
-10 10 -10 4 0 -6 -12 -10 -27 -8 -16 1 -32 -4 -41 -14 -13 -16 -13 -16 -8 1
3 9 1 17 -4 17 -14 0 -13 -27 1 -36 6 -3 15 -1 19 7 7 10 13 7 28 -11 l19 -24
14 22 c8 12 20 22 27 22 10 0 10 -3 -2 -15 -8 -8 -18 -25 -21 -36 -6 -17 -9
-19 -16 -8 -6 11 -11 11 -21 1 -9 -9 -9 -12 2 -12 7 0 10 -3 7 -6 -8 -8 -37
14 -37 28 0 5 5 6 10 3 6 -3 10 -1 10 5 0 7 -6 10 -12 7 -7 -2 -22 -1 -33 3
-24 9 -40 -6 -41 -37 -1 -33 24 -28 29 5 4 26 4 25 6 -5 1 -38 16 -50 30 -26
9 16 10 16 11 1 0 -23 -18 -32 -34 -19 -8 7 -18 11 -22 9 -5 -1 -19 3 -31 10
-13 7 -23 10 -23 8 0 -3 10 -15 23 -27 18 -18 19 -21 4 -15 -10 3 -22 6 -27 6
-4 0 -10 9 -13 20 -4 14 -10 18 -23 13 -13 -5 -16 -3 -11 10 3 9 2 17 -4 17
-6 0 -7 5 -3 11 5 8 9 7 16 -4 4 -9 21 -15 36 -15 21 1 27 6 28 25 2 17 -2 23
-12 19 -8 -3 -14 -1 -14 3 0 5 7 12 16 15 9 4 14 9 11 13 -8 7 -69 -17 -79
-31 -5 -8 -8 -7 -8 1 0 8 -22 4 -67 -12 -110 -37 -110 -37 -83 -22 55 33 220
80 320 92 139 17 148 17 269 0z m-149 -55 c0 -13 -1 -13 -10 0 -5 8 -10 22
-10 30 0 13 1 13 10 0 5 -8 10 -22 10 -30z m-80 10 c0 -5 -5 -10 -11 -10 -5 0
-7 5 -4 10 3 6 8 10 11 10 2 0 4 -4 4 -10z m165 -10 c-3 -5 -1 -10 6 -10 7 0
10 -3 6 -6 -9 -9 -28 6 -22 17 4 5 8 9 11 9 3 0 2 -4 -1 -10z m-325 -10 c0 -5
-4 -10 -10 -10 -5 0 -10 5 -10 10 0 6 5 10 10 10 6 0 10 -4 10 -10z m216 -17
c-10 -10 -19 5 -10 18 6 11 8 11 12 0 2 -7 1 -15 -2 -18z m-379 -29 c-3 -3
-12 -4 -19 -1 -8 3 -5 6 6 6 11 1 17 -2 13 -5z m105 -26 c-7 -7 -16 -6 -29 1
-16 11 -16 11 5 6 17 -5 22 -2 23 12 0 12 2 13 6 5 3 -8 1 -18 -5 -24z m218 3
c0 -5 -7 -11 -14 -14 -10 -4 -13 -1 -9 9 6 15 23 19 23 5z m615 -122 c222 -31
386 -143 481 -331 28 -56 74 -228 74 -279 0 -146 -131 -334 -289 -414 -91 -45
-132 -55 -242 -56 -381 -4 -683 301 -639 645 18 139 68 244 159 329 60 56 107
80 196 101 108 24 119 25 260 5z m2991 0 c223 -41 384 -248 384 -494 0 -256
-189 -489 -460 -566 -118 -34 -284 -18 -417 41 -105 46 -209 155 -259 270 -29
67 -27 262 4 344 45 122 132 234 240 308 120 83 348 126 508 97z m-3767 -345
c-7 -39 -9 -106 -6 -158 5 -76 4 -88 -7 -74 -7 10 -15 15 -18 13 -3 -3 -36 11
-73 30 -38 19 -75 35 -82 35 -7 0 -13 5 -13 11 0 8 14 10 43 6 23 -3 34 -3 25
0 -22 6 -24 23 -3 23 9 0 38 10 64 23 47 21 49 24 56 72 8 63 16 97 22 92 2
-3 -1 -35 -8 -73z m-128 36 c-58 -20 -131 -35 -96 -20 35 14 119 39 135 39 8
0 -9 -9 -39 -19z m4448 -131 c1 -76 4 -79 97 -79 29 0 67 -8 91 -20 51 -24 68
-46 29 -36 -35 9 -33 -5 4 -26 17 -9 30 -21 30 -25 0 -11 -163 -81 -232 -100
-32 -9 -58 -19 -58 -24 0 -5 -4 -9 -8 -9 -5 0 0 33 11 73 15 55 20 106 21 217
0 140 13 163 15 29z m-4582 95 c-3 -3 -12 -4 -19 -1 -8 3 -5 6 6 6 11 1 17 -2
13 -5z m-38 -8 c-10 -10 -79 -24 -79 -16 0 8 22 14 69 19 8 0 12 -1 10 -3z
m1839 -32 c8 -16 8 -21 -2 -21 -8 0 -13 11 -13 24 0 27 0 26 15 -3z m-1881
-50 c-3 -3 -12 -4 -19 -1 -8 3 -5 6 6 6 11 1 17 -2 13 -5z m1900 -171 c-3 -10
-5 -4 -5 12 0 17 2 24 5 18 2 -7 2 -21 0 -30z m43 -33 c0 -32 -9 -86 -19 -121
-11 -35 -21 -73 -24 -84 -2 -11 -4 34 -4 100 1 108 1 112 6 40 l6 -80 14 55
c7 31 12 79 10 107 -2 28 -1 49 4 46 4 -2 7 -30 7 -63z m-1565 -118 c-5 -5
-45 127 -44 147 0 9 11 -20 24 -64 13 -44 22 -82 20 -83z m-1208 112 c-3 -3
-12 -4 -19 -1 -8 3 -5 6 6 6 11 1 17 -2 13 -5z m6598 -34 c10 -11 16 -20 13
-20 -3 0 -13 9 -23 20 -10 11 -16 20 -13 20 3 0 13 -9 23 -20z m-6655 -14 c0
-2 -8 -10 -17 -17 -16 -13 -17 -12 -4 4 13 16 21 21 21 13z m1284 -92 c3 -8 2
-12 -4 -9 -6 3 -10 10 -10 16 0 14 7 11 14 -7z m4209 -9 c-3 -13 -12 -30 -21
-37 -9 -7 -13 -8 -9 -2 3 6 11 23 16 38 13 33 20 34 14 1z m204 19 c-3 -3 -12
-4 -19 -1 -8 3 -5 6 6 6 11 1 17 -2 13 -5z m-5398 -15 c-17 -11 -56 -12 -62
-1 -3 4 13 8 36 9 27 1 36 -2 26 -8z m-92 -5 c-3 -3 -12 -4 -19 -1 -8 3 -5 6
6 6 11 1 17 -2 13 -5z m5601 -11 c30 -7 28 -16 -9 -30 -26 -10 -29 -10 -19 3
10 11 9 14 -3 14 -8 0 -18 7 -21 16 -5 13 -2 15 11 9 10 -4 28 -10 41 -12z
m-5705 0 c-7 -2 -19 -2 -25 0 -7 3 -2 5 12 5 14 0 19 -2 13 -5z m-70 -10 c-7
-2 -21 -2 -30 0 -10 3 -4 5 12 5 17 0 24 -2 18 -5z m5413 -61 c-18 -16 -18
-16 -6 6 6 13 14 21 18 18 3 -4 -2 -14 -12 -24z m309 19 c-6 -6 -41 -24 -80
-41 -38 -17 -65 -26 -58 -19 7 7 40 24 75 40 73 31 75 32 63 20z m-335 -60
c-5 -11 -45 -55 -87 -99 -73 -73 -106 -99 -176 -135 l-27 -14 50 -7 c27 -4 50
-11 50 -17 0 -6 -9 -8 -21 -4 -15 5 -19 4 -15 -4 4 -6 19 -11 33 -11 19 0 24
4 19 16 -5 13 -3 14 6 6 7 -5 34 -9 60 -8 26 1 44 -1 40 -5 -10 -10 -193 -39
-233 -38 -27 1 -23 3 21 12 42 7 50 11 35 17 -11 4 -27 5 -35 3 -13 -4 -13 -3
-1 5 8 6 20 8 28 5 7 -3 13 0 13 7 0 7 -8 10 -20 7 -11 -3 -22 -1 -25 4 -3 4
-13 5 -21 2 -13 -5 -13 -7 -2 -15 8 -5 3 -6 -15 -2 -17 4 -36 1 -52 -10 -13
-9 -37 -16 -52 -16 -20 0 -8 7 39 24 142 50 259 133 358 253 38 47 46 53 30
24z m180 -15 c0 -7 -92 -47 -98 -42 -3 3 15 14 39 25 45 20 59 24 59 17z
m-4199 -33 c13 -16 12 -17 -3 -4 -17 13 -22 21 -14 21 2 0 10 -8 17 -17z m-54
-49 c-3 -3 -12 -4 -19 -1 -8 3 -5 6 6 6 11 1 17 -2 13 -5z m4433 -26 l44 -12
-29 -12 c-37 -15 -143 -29 -132 -17 5 4 21 9 35 9 15 1 36 3 47 4 17 2 18 3 3
7 -10 2 -18 9 -18 14 0 11 -66 12 -73 2 -2 -5 -2 -2 -1 5 2 7 -2 12 -9 11 -33
-4 -107 2 -107 9 0 10 183 -5 240 -20z m-170 -52 c0 -2 -7 -7 -16 -10 -8 -3
-12 -2 -9 4 6 10 25 14 25 6z m-4015 -34 c-3 -3 -11 0 -18 7 -9 10 -8 11 6 5
10 -3 15 -9 12 -12z m3934 3 c-3 -2 -21 -5 -42 -7 -20 -1 -37 -6 -37 -12 0 -5
-3 -7 -6 -3 -14 14 10 27 48 27 23 0 39 -2 37 -5z m-209 -45 c10 -6 2 -7 -25
-3 -49 7 -58 13 -19 13 16 0 36 -5 44 -10z m86 -7 c-10 -11 -36 -12 -36 -2 0
5 10 9 22 9 12 0 18 -3 14 -7z m-6000 -79 c-4 -9 -9 -15 -11 -12 -3 3 -3 13 1
22 4 9 9 15 11 12 3 -3 3 -13 -1 -22z m5489 6 c-11 -5 -27 -9 -35 -9 -9 0 -8
4 5 9 11 5 27 9 35 9 9 0 8 -4 -5 -9z m-77 -7 c-10 -2 -26 -2 -35 0 -10 3 -2
5 17 5 19 0 27 -2 18 -5z m212 -3 c0 -12 -44 -12 -80 0 -20 6 -14 8 28 9 28 1
52 -3 52 -9z m43 -7 c-7 -2 -19 -2 -25 0 -7 3 -2 5 12 5 14 0 19 -2 13 -5z
m124 -10 c56 -17 55 -33 -2 -32 -29 1 -29 1 -5 8 l25 7 -30 8 c-16 4 -38 10
-49 12 -10 2 -21 6 -24 9 -11 10 33 5 85 -12z m-269 -19 c46 -9 93 -14 103
-11 10 3 19 1 21 -4 2 -5 30 -12 63 -15 33 -4 62 -9 65 -12 10 -10 -149 10
-255 33 -126 26 -124 33 3 9z m87 6 c3 -5 2 -10 -4 -10 -5 0 -13 5 -16 10 -3
6 -2 10 4 10 5 0 13 -4 16 -10z m-454 -37 c13 -16 12 -17 -3 -4 -10 7 -18 15
-18 17 0 8 8 3 21 -13z m-1801 -53 c0 -5 -2 -10 -4 -10 -3 0 -8 5 -11 10 -3 6
-1 10 4 10 6 0 11 -4 11 -10z m-30 -205 c0 -5 -5 -3 -10 5 -5 8 -10 20 -10 25
0 6 5 3 10 -5 5 -8 10 -19 10 -25z m-100 -350 c14 -19 14 -19 -2 -6 -10 7 -18
18 -18 24 0 6 1 8 3 6 1 -2 9 -13 17 -24z m-45 -175 l20 -9 -20 0 c-11 0 -27
4 -35 9 -13 9 -13 10 0 9 8 0 24 -4 35 -9z m2320 -75 c72 -8 177 -23 235 -34
58 -11 129 -23 158 -27 29 -4 55 -11 58 -15 3 -5 -1 -9 -8 -9 -7 0 5 -9 27
-20 21 -11 41 -18 43 -15 3 3 10 -3 17 -12 8 -10 14 -12 19 -5 7 12 -19 41
-40 43 -27 3 -32 4 -40 12 -12 11 4 9 131 -22 194 -48 331 -90 475 -146 174
-68 240 -101 375 -190 101 -67 194 -145 153 -130 -9 4 -19 13 -22 21 -3 8 -10
14 -16 14 -6 0 -8 -5 -4 -12 4 -6 -8 -2 -27 9 -312 189 -672 320 -1129 412
-226 46 -310 59 -524 81 -96 10 -186 31 -216 50 -23 15 184 12 335 -5z m-2924
-17 c81 -12 110 -27 54 -28 -22 0 -103 -7 -180 -15 -77 -8 -155 -15 -172 -15
-31 0 -32 2 -23 25 6 16 6 25 0 25 -6 0 -10 -4 -10 -9 0 -5 -10 -7 -22 -5 -13
2 -17 2 -10 -2 6 -3 9 -10 6 -16 -4 -6 0 -14 7 -19 10 -6 7 -9 -11 -10 -56 -2
-332 -52 -465 -85 -188 -45 -414 -124 -573 -200 -53 -26 -119 -57 -147 -69
-27 -13 -108 -60 -179 -105 -116 -72 -131 -79 -145 -66 -13 14 -12 18 10 42
49 53 186 136 391 236 268 131 608 241 858 277 36 6 92 15 125 21 33 6 92 13
130 16 39 4 72 8 74 10 8 7 221 1 282 -8z m-236 -138 c-3 -5 -11 -10 -16 -10
-6 0 -7 5 -4 10 3 6 11 10 16 10 6 0 7 -4 4 -10z m690 0 c-3 -5 -10 -10 -16
-10 -5 0 -9 5 -9 10 0 6 7 10 16 10 8 0 12 -4 9 -10z m62 -26 c-3 -3 -12 -4
-19 -1 -8 3 -5 6 6 6 11 1 17 -2 13 -5z m-12 -39 c-73 -30 -157 -57 -163 -51
-2 3 18 11 45 19 26 8 68 24 93 35 25 11 54 21 65 21 11 0 -7 -11 -40 -24z
m-92 -2 c-7 -2 -19 -2 -25 0 -7 3 -2 5 12 5 14 0 19 -2 13 -5z m-67 -18 c-11
-8 -24 -15 -30 -15 -5 0 -1 7 10 15 10 8 24 14 29 14 6 0 1 -6 -9 -14z m211
-54 c-10 -4 -18 -11 -18 -16 0 -6 -9 -9 -19 -7 -11 2 -20 -1 -20 -6 0 -6 -7
-12 -15 -16 -8 -3 -15 -1 -15 4 0 11 68 48 90 48 10 0 9 -2 -3 -7z m2369 -25
c38 -9 99 -24 135 -35 35 -11 79 -22 96 -26 18 -4 35 -10 38 -15 3 -4 -14 -3
-38 3 -23 6 -55 10 -70 10 -20 0 -24 3 -15 8 8 6 9 9 1 9 -6 0 -19 3 -29 7
-11 4 -15 3 -11 -5 4 -6 -1 -12 -10 -14 -17 -4 135 -58 161 -58 8 0 19 -7 26
-15 14 -17 8 -19 -18 -6 -40 22 -325 99 -489 131 -35 7 -63 17 -63 23 0 14
197 2 286 -17z m-3206 10 c0 -3 -4 -8 -10 -11 -5 -3 -10 -1 -10 4 0 6 5 11 10
11 6 0 10 -2 10 -4z m82 -28 c-8 -8 -9 -4 -5 13 4 13 8 18 11 10 2 -7 -1 -18
-6 -23z m-157 7 c-16 -8 -36 -14 -42 -15 -7 0 -13 -4 -13 -10 0 -5 -3 -9 -7
-9 -5 1 -10 0 -13 -1 -3 -1 -12 -3 -20 -5 -8 -2 -24 -6 -35 -11 -49 -18 5 18
61 40 64 26 123 35 69 11z m11 -33 c-18 -16 -18 -16 -6 6 6 13 14 21 18 18 3
-4 -2 -14 -12 -24z m38 -13 c-29 -12 -36 -10 -22 5 7 7 19 11 27 8 11 -4 10
-7 -5 -13z m-209 -8 c-6 -5 -21 -11 -35 -15 -21 -5 -20 -3 5 9 35 17 42 18 30
6z m153 -6 c-2 -2 -43 -16 -93 -33 -49 -16 -99 -33 -109 -38 -12 -4 -17 -4
-13 3 3 5 33 18 67 28 33 10 60 22 60 27 0 5 4 6 10 3 5 -3 22 1 37 9 15 8 32
12 36 9 5 -3 7 -6 5 -8z m552 11 c0 -3 -4 -8 -10 -11 -5 -3 -10 -1 -10 4 0 6
5 11 10 11 6 0 10 -2 10 -4z m-786 -41 c-10 -8 -26 -14 -34 -14 -9 0 -4 6 10
14 33 19 49 19 24 0z m3935 -30 c264 -107 511 -260 646 -401 124 -130 131
-140 26 -40 -68 64 -125 115 -127 113 -3 -2 -19 9 -35 24 -32 30 -49 36 -49
20 0 -6 14 -18 30 -28 17 -9 30 -21 30 -25 0 -4 4 -8 9 -8 5 0 38 -27 73 -60
34 -33 59 -60 54 -60 -5 0 -34 24 -65 53 -31 29 -110 87 -177 129 -107 68
-140 88 -210 127 -41 22 -291 131 -302 131 -7 0 -12 8 -11 18 0 10 3 12 6 5 2
-7 11 -13 19 -13 8 0 26 -7 39 -16 13 -9 29 -13 35 -9 5 3 10 2 10 -3 0 -9 43
-32 60 -32 6 0 10 7 10 15 0 16 -30 35 -55 35 -9 0 -24 7 -32 16 -10 10 -25
13 -40 9 -16 -4 -22 -2 -18 5 3 5 0 10 -8 10 -8 0 -20 7 -27 15 -7 8 -10 15
-7 15 2 0 55 -20 116 -45z m-2985 4 c-19 -21 -33 -17 -16 4 7 8 9 17 5 21 -4
4 1 4 10 0 17 -6 17 -8 1 -25z m-1004 4 c0 -5 -20 -17 -43 -27 -23 -11 -55
-29 -72 -40 -16 -11 -34 -21 -40 -21 -19 0 -52 -30 -52 -47 0 -9 4 -15 9 -12
5 3 6 9 3 14 -8 14 33 32 55 25 14 -4 20 -2 20 9 0 8 5 18 12 22 7 4 8 3 4 -4
-4 -7 -1 -12 8 -12 9 0 16 7 16 16 0 8 4 12 10 9 5 -3 23 1 41 10 17 9 33 15
35 13 2 -3 -55 -37 -127 -77 -208 -117 -381 -242 -549 -398 -52 -48 -86 -76
-75 -63 11 13 37 40 57 59 21 18 35 38 31 44 -3 6 -2 7 4 4 5 -3 22 4 38 17
21 17 26 26 19 39 -10 17 -41 -10 -158 -138 -26 -27 -46 -44 -46 -39 0 24 242
256 356 341 125 93 194 137 347 217 93 49 97 50 97 39z m876 -19 c-22 -8 -49
-22 -60 -32 -10 -9 -16 -11 -12 -4 9 15 4 15 -30 0 l-28 -13 29 -5 30 -5 -35
-17 c-35 -17 -57 -15 -30 2 16 11 8 13 -29 10 -42 -3 -13 19 47 36 31 9 62 20
67 24 12 10 43 18 70 18 11 0 2 -6 -19 -14z m2484 -95 c106 -48 211 -109 205
-119 -3 -5 0 -12 6 -16 8 -4 9 -3 5 4 -11 17 9 15 24 -3 7 -8 16 -15 21 -15
28 0 359 -269 359 -292 0 -6 -9 -3 -20 7 -14 13 -24 15 -31 8 -7 -7 -4 -14 8
-24 16 -13 17 -12 4 4 -8 10 -9 17 -3 17 11 0 36 -36 37 -52 0 -13 52 -57 59
-51 3 4 6 -1 6 -10 0 -20 15 -23 26 -5 4 6 -3 19 -16 30 -12 10 -20 21 -16 25
16 16 246 -266 246 -301 0 -6 -18 17 -40 52 -22 35 -45 60 -50 57 -6 -3 -10 0
-10 7 0 17 -88 128 -101 128 -6 0 -7 -5 -3 -12 4 -7 3 -8 -4 -4 -21 13 -13
-10 11 -32 13 -12 27 -19 32 -15 4 5 5 3 1 -4 -3 -6 -3 -14 2 -17 16 -9 136
-159 125 -155 -6 2 -40 40 -75 84 -74 92 -263 271 -388 367 -170 131 -456 308
-578 357 -18 8 -31 16 -28 18 6 6 79 -20 87 -31 4 -5 13 -5 20 -1 9 6 6 11
-12 18 -59 25 -96 39 -124 47 l-30 10 25 -20 c28 -22 24 -25 -15 -10 -22 8
-24 13 -16 29 10 18 14 18 93 -14 46 -18 117 -48 158 -66z m-3310 81 c-8 -5
-19 -10 -25 -10 -5 0 -3 5 5 10 8 5 20 10 25 10 6 0 3 -5 -5 -10z m877 -16
c-7 -8 -77 -34 -77 -29 0 3 12 10 26 15 14 6 23 14 20 19 -4 5 3 7 14 4 12 -3
19 -7 17 -9z m-87 -39 c0 -2 -10 -9 -22 -15 -22 -11 -22 -10 -4 4 21 17 26 19
26 11z m-130 -30 c-10 -12 -10 -15 0 -15 23 0 2 -13 -50 -31 -50 -17 -73 -7
-25 11 14 5 25 17 25 26 0 13 3 14 15 4 12 -10 15 -10 15 4 0 9 7 16 16 16 14
0 14 -3 4 -15z m-170 -14 c0 -8 -19 -16 -57 -26 -6 -2 -19 -8 -30 -14 -15 -9
-13 -11 17 -9 19 1 43 5 53 10 9 5 17 5 17 1 0 -5 -48 -39 -106 -77 -192 -126
-394 -309 -519 -470 -16 -21 -38 -48 -48 -60 -18 -20 -18 -20 -1 9 10 17 26
40 36 51 11 12 18 28 16 35 -2 8 3 13 10 11 16 -3 15 13 -1 27 -16 13 -27 5
-27 -21 0 -10 -4 -17 -8 -15 -4 1 -23 -14 -41 -33 -42 -44 -30 -22 28 55 53
71 275 295 292 295 8 0 7 -5 -2 -17 -11 -16 -11 -16 1 -5 8 7 15 18 15 25 0 6
22 26 49 43 26 18 60 43 75 57 28 26 167 120 191 130 23 9 40 8 40 -2z m670
-75 c0 -2 -8 -10 -17 -17 -16 -13 -17 -12 -4 4 13 16 21 21 21 13z m795 -66
c-3 -5 -16 -15 -28 -21 -19 -9 -19 -8 3 10 28 23 34 26 25 11z m-1055 -100
c-8 -5 -19 -10 -25 -10 -5 0 -3 5 5 10 8 5 20 10 25 10 6 0 3 -5 -5 -10z m870
-4 c0 -2 -8 -10 -17 -17 -16 -13 -17 -12 -4 4 13 16 21 21 21 13z m480 -36 c8
-5 11 -10 5 -10 -5 0 -17 5 -25 10 -8 5 -10 10 -5 10 6 0 17 -5 25 -10z m-546
-50 c-20 -27 -38 -50 -41 -50 -5 0 31 55 55 83 29 33 22 17 -14 -33z m324 28
c5 -7 13 -24 17 -38 4 -14 20 -38 35 -55 55 -60 60 -88 36 -214 -8 -42 -23
-85 -35 -100 -12 -14 -26 -36 -31 -48 -14 -32 -44 -31 -36 1 11 45 -12 37 -39
-13 -43 -79 -96 -87 -108 -16 -6 38 -50 145 -59 145 -4 0 -22 -14 -40 -31 -61
-57 -95 -79 -159 -104 -34 -14 -64 -25 -66 -25 -1 0 21 30 48 68 28 37 85 119
127 182 66 102 105 149 123 150 3 0 10 -12 16 -27 10 -26 11 -27 12 -5 1 31
39 80 76 99 16 9 35 22 43 29 17 17 27 18 40 2z m206 -138 c26 -44 49 -94 51
-110 3 -17 7 -44 10 -62 l5 -32 -29 29 c-17 15 -28 32 -25 36 2 4 -1 11 -7 15
-8 4 -9 3 -5 -4 13 -21 -6 -13 -30 14 -13 14 -24 32 -24 40 0 7 -4 14 -9 14
-5 0 -8 12 -6 28 2 15 4 32 4 37 1 6 5 4 10 -4 5 -8 7 4 4 33 -3 25 -3 46 -1
46 3 0 26 -36 52 -80z m2451 18 l50 -52 -55 49 c-30 27 -57 50 -59 52 -2 2 0
3 5 3 5 0 32 -23 59 -52z m-3047 -13 c-6 -14 -13 -23 -15 -21 -5 5 15 46 22
46 3 0 -1 -11 -7 -25z m3116 -31 c3 -8 2 -12 -4 -9 -6 3 -10 10 -10 16 0 14 7
11 14 -7z m-5604 -44 c0 -3 -10 -11 -22 -19 -22 -13 -22 -13 -7 5 9 10 14 26
12 34 -4 13 -3 13 6 0 6 -8 11 -17 11 -20z m3212 -121 c4 -9 1 -16 -8 -16 -8
0 -14 7 -14 16 0 14 -2 14 -11 1 -9 -12 -10 -12 -5 3 3 10 6 26 6 35 0 14 2
13 13 -3 8 -11 16 -27 19 -36z m-2602 -9 c-6 -11 -13 -20 -16 -20 -2 0 0 9 6
20 6 11 13 20 16 20 2 0 0 -9 -6 -20z m2806 -12 l29 -33 -32 29 c-31 28 -38
36 -30 36 2 0 16 -15 33 -32z m-2853 -76 c-14 -29 -28 -51 -30 -48 -2 2 8 27
22 56 14 29 28 50 30 48 2 -2 -8 -27 -22 -56z m61 13 c-9 -14 -19 -23 -22 -20
-5 4 26 45 35 45 2 0 -4 -11 -13 -25z m2834 -10 c-3 -3 -9 2 -12 12 -6 14 -5
15 5 6 7 -7 10 -15 7 -18z m20 -70 c0 -16 -2 -15 -8 5 -11 34 -11 60 0 35 5
-11 8 -29 8 -40z m-2890 20 c-6 -14 -13 -23 -15 -21 -5 5 15 46 22 46 3 0 -1
-11 -7 -25z m2769 -17 c-3 -8 -6 -5 -6 6 -1 11 2 17 5 13 3 -3 4 -12 1 -19z
m1722 -22 c-3 -3 -11 5 -18 17 -13 21 -12 21 5 5 10 -10 16 -20 13 -22z
m-4564 -43 c-24 -79 -37 -108 -29 -63 8 48 35 132 41 127 2 -3 -3 -32 -12 -64z
m2909 21 c3 -8 2 -12 -4 -9 -6 3 -10 10 -10 16 0 14 7 11 14 -7z m-2870 -9
c-4 -8 -8 -15 -10 -15 -2 0 -4 7 -4 15 0 8 4 15 10 15 5 0 7 -7 4 -15z m2789
-43 c-10 -14 -30 -32 -43 -40 -16 -10 -14 -5 7 12 17 14 35 41 39 59 6 23 9
27 12 13 2 -10 -5 -30 -15 -44z m-2816 -29 c-7 -22 -13 -31 -15 -21 -3 15 14
58 22 58 2 0 -1 -17 -7 -37z m1930 21 c-3 -3 -12 -4 -19 -1 -8 3 -5 6 6 6 11
1 17 -2 13 -5z m674 -13 c-32 -59 -187 -147 -279 -158 l-52 -6 2 44 1 44 4
-39 4 -38 41 6 c78 13 183 64 234 115 56 56 58 58 45 32z m-714 3 c-3 -3 -12
-4 -19 -1 -8 3 -5 6 6 6 11 1 17 -2 13 -5z m767 -28 c3 -16 6 -30 8 -31 2 -2
20 3 40 10 21 7 35 9 32 4 -7 -11 -75 -30 -86 -23 -4 3 -8 21 -8 41 0 41 6 41
14 -1z m-704 -26 c-6 -11 -13 -20 -16 -20 -2 0 0 9 6 20 6 11 13 20 16 20 2 0
0 -9 -6 -20z m-1979 -27 c-8 -15 -10 -15 -11 -2 0 17 10 32 18 25 2 -3 -1 -13
-7 -23z m2269 7 c-33 -25 -119 -48 -205 -54 l-70 -5 85 13 c96 16 134 27 176
49 39 22 44 21 14 -3z m-292 -43 c10 -3 5 -5 -10 -6 -31 -1 -31 -1 -21 26 7
16 8 16 11 1 2 -9 11 -19 20 -21z"/>
<path d="M2260 7660 c0 -5 5 -10 11 -10 5 0 7 5 4 10 -3 6 -8 10 -11 10 -2 0
-4 -4 -4 -10z"/>
<path d="M2120 7580 c-9 -6 -10 -10 -3 -10 6 0 15 5 18 10 8 12 4 12 -15 0z"/>
<path d="M2258 7533 c6 -2 18 -2 25 0 6 3 1 5 -13 5 -14 0 -19 -2 -12 -5z"/>
<path d="M2489 7451 c13 -12 28 -21 35 -21 12 0 -5 14 -39 31 -16 8 -15 6 4
-10z"/>
<path d="M2585 7400 c3 -5 11 -10 16 -10 6 0 7 5 4 10 -3 6 -11 10 -16 10 -6
0 -7 -4 -4 -10z"/>
<path d="M2640 7365 c33 -19 50 -18 26 0 -11 8 -27 15 -35 15 -10 -1 -7 -6 9
-15z"/>
<path d="M7867 7008 c-8 -5 -5 -8 8 -8 11 0 27 5 35 10 12 7 10 9 -8 7 -13 -1
-28 -5 -35 -9z"/>
<path d="M8050 7010 c0 -5 5 -10 10 -10 6 0 10 5 10 10 0 6 -4 10 -10 10 -5 0
-10 -4 -10 -10z"/>
<path d="M8110 7003 c0 -4 5 -15 10 -23 8 -13 10 -13 10 2 0 9 -4 20 -10 23
-5 3 -10 3 -10 -2z"/>
<path d="M7927 6989 c7 -7 15 -10 18 -7 3 3 -2 9 -12 12 -14 6 -15 5 -6 -5z"/>
<path d="M8150 6990 c0 -5 5 -10 11 -10 5 0 7 5 4 10 -3 6 -8 10 -11 10 -2 0
-4 -4 -4 -10z"/>
<path d="M8010 6983 c8 -3 19 -11 23 -17 6 -7 7 -6 4 4 -2 8 -12 16 -23 17
-13 2 -15 1 -4 -4z"/>
<path d="M7800 6970 c0 -5 5 -10 11 -10 5 0 7 5 4 10 -3 6 -8 10 -11 10 -2 0
-4 -4 -4 -10z"/>
<path d="M4296 6520 c-7 -24 -8 -24 -16 -5 -8 19 -9 19 -9 -2 -1 -14 5 -23 14
-23 17 0 29 22 23 42 -3 7 -8 1 -12 -12z"/>
<path d="M4350 6431 c0 -6 4 -13 10 -16 6 -3 7 1 4 9 -7 18 -14 21 -14 7z"/>
<path d="M4330 6289 c0 -5 5 -7 10 -4 6 3 10 8 10 11 0 2 -4 4 -10 4 -5 0 -10
-5 -10 -11z"/>
<path d="M4377 6274 c-9 -9 9 -40 28 -48 9 -3 15 0 15 10 0 11 -6 14 -16 10
-8 -3 -13 -2 -10 2 6 11 -9 34 -17 26z"/>
<path d="M4354 6251 c1 -14 8 -27 14 -29 16 -5 15 10 -3 34 -14 18 -15 18 -11
-5z"/>
<path d="M4444 6241 c0 -11 5 -17 14 -14 14 6 12 25 -4 30 -5 2 -10 -5 -10
-16z"/>
<path d="M4371 6205 c-2 -20 39 -76 50 -69 8 5 6 10 -4 16 -9 5 -14 15 -11 23
4 9 0 15 -9 15 -8 0 -18 6 -20 13 -3 6 -6 8 -6 2z"/>
<path d="M4450 6200 c0 -5 5 -10 11 -10 5 0 7 5 4 10 -3 6 -8 10 -11 10 -2 0
-4 -4 -4 -10z"/>
<path d="M4286 6083 c-6 -14 -5 -15 5 -6 7 7 10 15 7 18 -3 3 -9 -2 -12 -12z"/>
<path d="M4345 5969 c-4 -6 -5 -12 -2 -15 2 -3 7 2 10 11 7 17 1 20 -8 4z"/>
<path d="M4371 5944 c0 -11 3 -14 6 -6 3 7 2 16 -1 19 -3 4 -6 -2 -5 -13z"/>
<path d="M4330 5930 c0 -5 5 -10 11 -10 5 0 7 5 4 10 -3 6 -8 10 -11 10 -2 0
-4 -4 -4 -10z"/>
<path d="M4422 5929 c-25 -9 -26 -29 -2 -37 7 -3 10 0 6 7 -5 7 -1 9 8 5 11
-4 16 0 16 15 0 12 -1 21 -2 20 -2 0 -14 -4 -26 -10z"/>
<path d="M4355 5910 c-3 -5 -1 -10 4 -10 6 0 11 5 11 10 0 6 -2 10 -4 10 -3 0
-8 -4 -11 -10z"/>
<path d="M4325 5843 c2 -10 4 -20 4 -23 2 -7 21 23 21 33 0 4 -6 7 -14 7 -8 0
-13 -8 -11 -17z"/>
<path d="M4370 5814 c0 -8 5 -12 10 -9 6 4 8 11 5 16 -9 14 -15 11 -15 -7z"/>
<path d="M4331 5794 c0 -11 3 -14 6 -6 3 7 2 16 -1 19 -3 4 -6 -2 -5 -13z"/>
<path d="M4352 5715 c0 -21 25 -107 27 -90 0 6 -6 33 -13 60 -8 28 -14 41 -14
30z"/>
<path d="M4606 6315 c8 -35 10 -39 17 -28 3 5 -1 19 -9 33 l-14 25 6 -30z"/>
<path d="M4636 6267 c3 -10 9 -15 12 -12 3 3 0 11 -7 18 -10 9 -11 8 -5 -6z"/>
<path d="M4648 6193 c6 -2 18 -2 25 0 6 3 1 5 -13 5 -14 0 -19 -2 -12 -5z"/>
<path d="M4718 6104 c-3 -5 2 -25 13 -44 21 -40 23 -31 5 19 -7 19 -15 31 -18
25z"/>
<path d="M3005 5429 c-4 -6 -5 -13 -2 -16 7 -7 27 6 27 18 0 12 -17 12 -25 -2z"/>
<path d="M3370 5429 c0 -11 27 -12 34 -1 2 4 -4 9 -15 9 -10 1 -19 -2 -19 -8z"/>
<path d="M3440 5418 c11 -12 22 -19 25 -16 7 7 -23 38 -36 38 -5 0 -1 -10 11
-22z"/>
<path d="M3475 5420 c3 -5 14 -10 23 -10 15 0 15 2 2 10 -20 13 -33 13 -25 0z"/>
<path d="M3648 5203 c7 -3 16 -2 19 1 4 3 -2 6 -13 5 -11 0 -14 -3 -6 -6z"/>
<path d="M3645 5156 c-109 -35 -183 -101 -234 -210 -39 -83 -52 -143 -52 -241
0 -134 36 -232 116 -310 73 -70 124 -90 235 -90 84 0 102 3 152 28 68 33 151
120 185 193 105 230 6 534 -205 625 -50 22 -137 24 -197 5z m248 -175 c28 -11
57 -66 57 -109 0 -38 -35 -82 -64 -82 -82 0 -120 147 -49 189 23 13 26 13 56
2z"/>
<path d="M6523 5193 c9 -2 25 -2 35 0 9 3 1 5 -18 5 -19 0 -27 -2 -17 -5z"/>
<path d="M6463 5170 c-127 -26 -249 -145 -294 -291 -26 -85 -26 -226 1 -304
29 -84 62 -136 123 -191 91 -84 192 -104 321 -64 53 17 79 33 131 81 118 111
162 251 132 420 -34 199 -132 313 -295 348 -59 12 -60 12 -119 1z m227 -185
c32 -34 39 -111 13 -144 -40 -49 -110 -24 -134 46 -30 93 58 165 121 98z"/>
<path d="M2920 4750 c0 -14 5 -32 10 -40 8 -12 10 -10 10 10 0 14 -5 32 -10
40 -8 12 -10 10 -10 -10z"/>
<path d="M7281 4634 c0 -11 3 -14 6 -6 3 7 2 16 -1 19 -3 4 -6 -2 -5 -13z"/>
<path d="M7263 4545 c-3 -9 -3 -18 -1 -21 3 -3 8 4 11 16 6 23 -1 27 -10 5z"/>
<path d="M6530 3016 c0 -3 9 -10 20 -16 11 -6 20 -8 20 -6 0 3 -9 10 -20 16
-11 6 -20 8 -20 6z"/>
<path d="M6616 2995 c-3 -9 0 -15 9 -15 9 0 12 6 9 15 -4 8 -7 15 -9 15 -2 0
-5 -7 -9 -15z"/>
<path d="M6762 2978 c6 -18 38 -23 52 -7 8 9 8 10 -1 5 -7 -4 -22 -2 -34 5
-17 9 -20 8 -17 -3z"/>
<path d="M6835 2970 c3 -5 8 -10 11 -10 2 0 4 5 4 10 0 6 -5 10 -11 10 -5 0
-7 -4 -4 -10z"/>
<path d="M6880 2960 c-11 -7 -7 -10 16 -15 16 -4 36 -9 44 -11 23 -8 164 -34
175 -33 6 0 -6 6 -25 14 -19 7 -34 18 -32 24 1 6 -10 11 -25 10 -25 0 -26 -1
-8 -9 l20 -9 -20 1 c-11 0 -31 4 -45 8 l-25 8 24 1 c38 2 21 9 -34 15 -28 3
-57 1 -65 -4z"/>
<path d="M7190 2915 c0 -18 23 -45 38 -44 10 0 12 3 5 6 -7 2 -13 10 -13 16 1
7 9 2 18 -9 11 -13 36 -25 61 -29 40 -7 42 -6 33 12 -7 12 -30 24 -59 30 -26
7 -56 15 -65 18 -10 4 -18 4 -18 0z m105 -35 c17 -8 16 -8 -7 -7 -16 1 -28 5
-28 9 0 10 9 9 35 -2z"/>
<path d="M7347 2861 c3 -11 21 -23 46 -30 23 -7 50 -14 59 -17 12 -4 15 0 11
16 -4 16 -8 18 -19 9 -10 -8 -14 -8 -14 -1 0 6 -7 9 -15 6 -8 -4 -15 -2 -15 4
0 5 -7 13 -16 16 -8 3 -12 2 -9 -4 3 -6 1 -10 -4 -10 -6 0 -11 7 -11 15 0 8
-4 15 -9 15 -5 0 -7 -8 -4 -19z"/>
<path d="M7480 2830 c8 -5 24 -10 34 -10 26 0 18 6 -19 14 -22 5 -26 4 -15 -4z"/>
<path d="M7480 2806 c0 -2 7 -6 15 -10 8 -3 15 -1 15 4 0 6 -7 10 -15 10 -8 0
-15 -2 -15 -4z"/>
<path d="M7578 2803 c7 -3 16 -2 19 1 4 3 -2 6 -13 5 -11 0 -14 -3 -6 -6z"/>
<path d="M7590 2779 c0 -3 9 -9 19 -12 13 -3 18 0 15 7 -5 13 -34 18 -34 5z"/>
<path d="M7716 2744 c-9 -23 -7 -31 4 -14 7 12 12 12 34 0 14 -7 28 -11 31 -8
3 2 -11 12 -29 21 -31 14 -35 14 -40 1z"/>
<path d="M7675 2740 c3 -5 8 -10 11 -10 2 0 4 5 4 10 0 6 -5 10 -11 10 -5 0
-7 -4 -4 -10z"/>
<path d="M7797 2713 c-12 -11 -8 -21 13 -26 10 -3 21 0 24 7 2 6 5 3 5 -6 1
-10 3 -18 5 -18 2 0 11 -3 19 -6 8 -3 17 2 21 11 4 11 2 15 -6 13 -6 -2 -20 4
-30 14 -18 18 -40 23 -51 11z"/>
<path d="M7896 2665 c-3 -10 3 -17 19 -21 14 -3 25 -9 25 -13 0 -7 57 -34 75
-35 6 -1 12 -3 15 -6 3 -3 17 -13 32 -23 50 -31 42 -18 -12 23 -48 36 -65 44
-72 38 -2 -1 -15 10 -30 25 -31 31 -43 34 -52 12z"/>
<path d="M8144 2521 c7 -11 46 -35 46 -28 0 3 -12 12 -26 22 -15 9 -23 12 -20
6z"/>
<path d="M3484 2996 c-5 -12 -10 -14 -19 -6 -9 8 -15 8 -20 0 -3 -5 -16 -10
-28 -10 -13 0 -17 -4 -11 -9 11 -11 184 5 197 18 5 5 -1 9 -14 10 -13 0 -41 3
-61 7 -30 5 -39 3 -44 -10z m51 -6 c17 -7 14 -9 -13 -9 -20 -1 -31 3 -27 9 7
12 13 12 40 0z"/>
<path d="M3418 2993 c7 -3 16 -2 19 1 4 3 -2 6 -13 5 -11 0 -14 -3 -6 -6z"/>
<path d="M3279 2985 c-3 -2 -19 -5 -36 -7 -25 -2 -30 -6 -27 -23 3 -19 3 -19
-11 -2 -11 15 -20 17 -47 11 -18 -4 -44 -8 -58 -9 -61 -4 -130 -18 -130 -26 0
-5 -3 -8 -7 -8 -5 1 -19 0 -33 -1 l-25 -2 25 -8 c17 -5 19 -8 8 -9 -10 -1 -18
-6 -18 -12 0 -7 7 -8 18 -4 9 3 36 8 59 11 23 2 75 11 115 20 40 9 84 17 98
19 97 9 131 18 128 33 -2 8 -9 17 -16 20 -8 2 -10 -3 -6 -15 5 -17 5 -17 -9 0
-15 18 -20 20 -28 12z m-124 -45 c3 -6 -4 -10 -17 -10 -18 0 -20 2 -8 10 19
12 18 12 25 0z m-95 -20 c0 -5 -2 -10 -4 -10 -3 0 -8 5 -11 10 -3 6 -1 10 4
10 6 0 11 -4 11 -10z m-60 -4 c0 -3 -4 -8 -10 -11 -5 -3 -10 -1 -10 4 0 6 5
11 10 11 6 0 10 -2 10 -4z"/>
<path d="M2825 2893 c-22 -8 -51 -15 -64 -14 -18 1 -22 -3 -17 -15 5 -14 4
-15 -8 -5 -12 10 -18 8 -31 -13 -10 -14 -23 -26 -31 -26 -7 0 -15 -4 -18 -9
-4 -5 10 -4 29 1 19 6 32 15 29 19 -3 5 2 6 11 3 8 -4 22 -1 30 6 8 6 18 9 24
6 5 -4 11 1 13 11 2 9 13 17 25 18 12 1 20 -2 17 -7 -3 -4 -12 -8 -21 -8 -9 0
-14 -2 -11 -5 5 -5 98 13 107 21 7 6 -21 34 -33 33 -6 0 -29 -7 -51 -16z"/>
<path d="M2623 2830 c-13 -5 -23 -12 -23 -15 0 -4 5 -3 11 1 6 3 15 1 19 -6 5
-8 9 -5 13 9 3 12 4 21 4 20 -1 0 -12 -4 -24 -9z"/>
<path d="M2575 2800 c11 -5 27 -9 35 -9 9 0 8 4 -5 9 -11 5 -27 9 -35 9 -9 0
-8 -4 5 -9z"/>
<path d="M2425 2740 c3 -5 1 -10 -6 -10 -7 0 -10 -2 -7 -5 8 -9 38 6 32 16 -3
5 -10 9 -15 9 -6 0 -7 -4 -4 -10z"/>
<path d="M2345 2720 c-3 -6 1 -7 9 -4 18 7 21 14 7 14 -6 0 -13 -4 -16 -10z"/>
<path d="M2330 2690 c0 -5 5 -10 10 -10 6 0 10 5 10 10 0 6 -4 10 -10 10 -5 0
-10 -4 -10 -10z"/>
<path d="M2220 2650 c0 -6 7 -10 15 -10 8 0 15 2 15 4 0 2 -7 6 -15 10 -8 3
-15 1 -15 -4z"/>
<path d="M2173 2640 c-23 -9 -30 -25 -15 -34 11 -7 27 6 35 27 3 9 5 17 4 16
-1 0 -12 -4 -24 -9z"/>
<path d="M2075 2580 c3 -5 11 -10 16 -10 6 0 7 5 4 10 -3 6 -11 10 -16 10 -6
0 -7 -4 -4 -10z"/>
<path d="M2038 2567 c-7 -8 -20 -16 -28 -19 -10 -3 -8 -6 8 -10 12 -4 22 -2
22 3 0 5 8 9 18 10 10 0 12 3 4 6 -6 2 -10 9 -6 14 8 13 -3 11 -18 -4z"/>
<path d="M2000 2520 c-8 -5 -12 -12 -9 -15 4 -3 12 1 19 10 14 17 11 19 -10 5z"/>
<path d="M1894 2475 c-19 -15 -19 -15 1 -8 18 6 19 5 5 -12 -9 -11 -10 -16 -3
-11 17 9 36 46 25 46 -4 0 -17 -7 -28 -15z"/>
<path d="M1859 2458 c-8 -27 -5 -36 9 -30 10 4 12 7 4 10 -7 2 -10 8 -6 13 3
5 3 9 0 9 -3 0 -6 -1 -7 -2z"/>
<path d="M6398 2713 c6 -2 18 -2 25 0 6 3 1 5 -13 5 -14 0 -19 -2 -12 -5z"/>
<path d="M6480 2706 c0 -2 7 -6 15 -10 8 -3 15 -1 15 4 0 6 -7 10 -15 10 -8 0
-15 -2 -15 -4z"/>
<path d="M7130 2509 c0 -23 52 -52 76 -42 11 4 15 3 11 -4 -9 -14 18 -24 40
-16 12 5 14 3 8 -7 -5 -9 -4 -11 3 -6 7 4 12 11 12 15 0 14 -39 20 -44 7 -2
-6 -5 -4 -5 6 -1 9 -14 22 -31 30 -16 7 -30 16 -30 19 0 4 -9 9 -20 12 -15 4
-20 0 -20 -14z m65 -29 c3 -5 1 -10 -4 -10 -6 0 -11 5 -11 10 0 6 2 10 4 10 3
0 8 -4 11 -10z"/>
<path d="M7285 2431 c-6 -11 13 -26 22 -18 2 3 18 -7 35 -21 26 -24 113 -53
90 -30 -5 5 -20 10 -33 11 -30 2 -55 23 -36 30 6 3 -5 12 -25 21 -44 19 -45
19 -53 7z"/>
<path d="M7422 2334 c10 -10 20 -16 22 -13 3 3 -5 11 -17 18 -21 13 -21 12 -5
-5z"/>
<path d="M2890 2460 c-8 -5 -12 -11 -10 -14 3 -2 14 2 24 10 22 15 10 19 -14
4z"/>
<path d="M2766 2412 c-3 -6 -1 -14 5 -17 14 -9 20 -2 10 14 -6 8 -11 9 -15 3z"/>
<path d="M2548 2256 c-20 -19 -48 -42 -62 -51 -14 -10 -23 -22 -19 -31 7 -20
24 -17 21 3 -2 11 4 18 15 18 10 0 23 11 30 25 9 17 20 24 34 22 12 -2 23 4
27 15 6 14 5 16 -5 6 -7 -7 -18 -13 -23 -13 -6 1 0 10 13 20 13 11 19 20 14
20 -5 0 -25 -15 -45 -34z"/>
<path d="M6346 2471 c-4 -6 75 -51 89 -51 3 0 5 6 5 14 0 17 -30 30 -30 13 0
-7 -7 -3 -15 7 -16 21 -42 29 -49 17z"/>
<path d="M6480 2420 c0 -6 5 -10 11 -10 5 0 8 -4 4 -9 -3 -5 -1 -12 5 -16 5
-3 10 3 10 13 0 11 -7 22 -15 26 -8 3 -15 1 -15 -4z"/>
<path d="M6520 2382 c0 -11 34 -42 45 -42 5 0 17 -7 27 -17 17 -15 18 -15 17
13 0 25 -2 26 -9 9 -5 -11 -9 -15 -9 -10 -1 6 -15 16 -32 22 -17 7 -28 17 -24
22 3 6 1 11 -4 11 -6 0 -11 -4 -11 -8z"/>
<path d="M6620 2311 c0 -5 5 -13 10 -16 6 -3 10 -2 10 4 0 5 -4 13 -10 16 -5
3 -10 2 -10 -4z"/>
<path d="M6660 2310 c8 -5 20 -10 25 -10 6 0 3 5 -5 10 -8 5 -19 10 -25 10 -5
0 -3 -5 5 -10z"/>
<path d="M6693 2275 c-8 -9 -9 -15 0 -24 17 -17 31 -13 17 4 -7 8 -8 15 -3 15
5 0 24 -18 42 -40 17 -22 42 -45 54 -51 18 -9 20 -9 10 2 -16 16 -17 33 -1 23
7 -4 8 -3 4 4 -4 7 -18 12 -32 12 -13 0 -24 6 -24 13 0 7 -12 22 -28 34 -22
16 -30 18 -39 8z"/>
<path d="M6830 2172 c0 -10 15 -29 33 -42 17 -12 26 -17 20 -9 -20 21 -15 34
5 16 26 -24 39 -21 16 4 -10 11 -26 18 -35 16 -11 -3 -16 0 -13 8 3 7 -2 15
-10 18 -11 4 -16 1 -16 -11z"/>
<path d="M6900 2104 c0 -1 15 -13 33 -27 29 -22 33 -23 33 -7 0 10 -4 16 -8
14 -4 -3 -8 2 -8 10 0 11 -8 15 -25 14 -14 -1 -25 -3 -25 -4z"/>
<path d="M3490 2386 c0 -9 5 -16 10 -16 6 0 10 4 10 9 0 6 -4 13 -10 16 -5 3
-10 -1 -10 -9z"/>
<path d="M3441 2364 c-11 -8 -21 -24 -21 -34 0 -10 -4 -22 -10 -25 -6 -3 -7 1
-4 9 3 9 1 16 -5 16 -6 0 -11 -4 -11 -8 0 -5 -9 -13 -20 -18 -13 -6 -17 -13
-11 -23 7 -11 16 -9 45 11 20 14 33 28 29 32 -4 4 1 4 11 0 13 -5 17 -2 16 12
-4 32 -1 37 15 24 9 -7 17 -11 20 -9 2 3 -4 10 -14 16 -14 9 -23 8 -40 -3z"/>
<path d="M3340 2267 c0 -9 -4 -17 -10 -17 -5 0 -10 5 -10 11 0 6 -13 1 -30
-11 -16 -12 -30 -29 -30 -38 0 -9 -11 -22 -25 -29 -19 -8 -24 -8 -19 0 3 7 -1
4 -9 -5 -8 -10 -17 -14 -21 -10 -4 4 -4 -6 -1 -21 7 -26 6 -28 -17 -22 -32 8
-77 -37 -59 -59 10 -12 23 -4 79 51 37 36 83 76 102 89 68 45 75 53 62 66 -9
9 -12 8 -12 -5z m-45 -36 c3 -5 2 -12 -3 -15 -5 -3 -9 1 -9 9 0 17 3 19 12 6z"/>
<path d="M3036 2018 c-46 -53 -54 -72 -36 -83 6 -3 10 3 10 14 0 14 6 21 19
21 23 0 37 16 19 23 -9 3 -7 11 8 28 12 13 24 30 28 37 15 26 -4 10 -48 -40z"/>
<path d="M3095 2050 c-3 -5 -1 -10 4 -10 6 0 11 5 11 10 0 6 -2 10 -4 10 -3 0
-8 -4 -11 -10z"/>
<path d="M5140 2056 c0 -14 4 -27 8 -30 5 -3 6 8 4 25 -5 35 -12 38 -12 5z"/>
<path d="M5370 1890 c0 -5 5 -10 11 -10 5 0 7 5 4 10 -3 6 -8 10 -11 10 -2 0
-4 -4 -4 -10z"/>
</g>
</svg>
