<?xml version="1.0" standalone="no"?>
<!DOCTYPE svg PUBLIC "-//W3C//DTD SVG 20010904//EN"
 "http://www.w3.org/TR/2001/REC-SVG-20010904/DTD/svg10.dtd">
<svg version="1.0" xmlns="http://www.w3.org/2000/svg"
 width="1280.000000pt" height="1124.000000pt" viewBox="0 0 1280.000000 1124.000000"
 preserveAspectRatio="xMidYMid meet">
<metadata>
Created by potrace 1.15, written by Peter Selinger 2001-2017
</metadata>
<g transform="translate(0.000000,1124.000000) scale(0.100000,-0.100000)"
fill="#000000" stroke="none">
<path d="M6390 10934 c-45 -20 -77 -50 -101 -96 -14 -28 -26 -38 -43 -38 -12
0 -51 -14 -85 -31 -115 -58 -178 -173 -169 -308 3 -36 3 -58 1 -48 -3 9 -8 17
-13 17 -13 0 -59 -100 -64 -138 -4 -35 -1 -35 52 12 12 11 22 17 22 14 0 -13
-327 -300 -3450 -3033 -800 -700 -898 -785 -908 -785 -47 0 -256 -45 -297 -64
-69 -31 -130 -94 -163 -165 -21 -45 -26 -72 -27 -142 -1 -47 -5 -91 -10 -99
-5 -8 -2 -18 9 -26 11 -8 22 -40 31 -92 8 -43 48 -281 90 -528 42 -247 98
-581 125 -741 122 -720 153 -903 220 -1298 39 -231 93 -550 120 -710 27 -159
74 -438 105 -620 177 -1048 168 -999 208 -1068 57 -98 163 -157 279 -157 34 0
262 34 507 75 245 42 577 98 736 125 433 73 819 139 4465 755 1840 311 3369
572 3397 580 74 22 151 87 188 159 54 107 55 101 -125 1151 -16 94 -63 373
-105 620 -42 248 -93 554 -115 680 -22 127 -69 406 -105 620 -98 582 -179
1062 -240 1420 -30 176 -70 413 -89 527 -20 113 -38 219 -42 235 -22 90 -103
186 -192 225 -65 28 -163 28 -339 -1 l-142 -24 -53 34 c-79 50 -1054 693
-2370 1562 l-1166 771 20 29 c26 37 48 109 48 161 0 33 6 47 31 71 18 16 38
45 46 64 19 44 18 129 0 173 -48 115 -183 177 -287 132z m-320 -709 l-34 -35
45 1 c24 1 55 4 69 8 24 7 25 8 3 15 -11 4 -26 13 -32 20 -6 7 13 1 42 -13 74
-37 179 -37 258 0 l57 27 1218 -805 c671 -443 1464 -967 1763 -1166 l544 -362
-44 -7 c-24 -3 -177 -29 -339 -57 -162 -27 -484 -82 -715 -121 -231 -39 -564
-95 -740 -125 -176 -30 -481 -81 -677 -115 -197 -33 -518 -87 -713 -120 -195
-33 -514 -87 -707 -120 -518 -87 -1016 -171 -1423 -240 -402 -68 -865 -146
-1300 -220 -571 -97 -1252 -212 -1369 -231 -65 -11 -120 -18 -122 -16 -5 5 93
91 2077 1828 1735 1520 2159 1889 2168 1889 3 0 -10 -16 -29 -35z"/>
</g>
</svg>
