<?xml version="1.0" standalone="no"?>
<!DOCTYPE svg PUBLIC "-//W3C//DTD SVG 20010904//EN"
 "http://www.w3.org/TR/2001/REC-SVG-20010904/DTD/svg10.dtd">
<svg version="1.0" xmlns="http://www.w3.org/2000/svg"
 width="1024.000000pt" height="1536.000000pt" viewBox="0 0 1024.000000 1536.000000"
 preserveAspectRatio="xMidYMid meet">

<g transform="translate(0.000000,1536.000000) scale(0.100000,-0.100000)"
fill="#000000" stroke="none">
<path d="M3760 12379 c-130 -39 -217 -281 -251 -702 -15 -188 -7 -546 15 -637
20 -85 20 -83 -11 -76 -311 66 -687 126 -1165 186 -393 48 -430 49 -463 15
-27 -26 -30 -50 -15 -106 17 -60 116 -709 236 -1537 l48 -333 -51 -47 c-129
-117 -214 -289 -248 -497 -54 -330 52 -642 330 -973 l78 -94 -67 -406 c-37
-224 -76 -444 -87 -490 -39 -170 -23 -205 106 -227 102 -17 333 -35 456 -35
l96 0 -45 -112 c-46 -118 -50 -164 -18 -197 13 -12 20 -12 42 -2 24 10 26 10
21 -6 -2 -10 -21 -71 -41 -136 -50 -163 -66 -267 -66 -421 0 -195 26 -310 76
-337 20 -10 29 -11 44 -1 11 7 21 12 23 12 2 0 7 -35 10 -77 10 -126 47 -255
123 -429 3 -6 -6 -16 -20 -22 -44 -20 -107 -84 -134 -136 -51 -100 -28 -230
51 -290 108 -82 414 -157 762 -186 100 -9 142 -17 181 -35 139 -65 513 -165
620 -165 23 0 24 -3 24 -67 0 -184 36 -344 101 -454 63 -109 123 -144 164 -99
18 20 19 19 60 -65 148 -299 496 -555 723 -532 48 5 59 2 105 -27 154 -98 307
-155 505 -186 248 -40 410 -102 514 -199 89 -82 110 -124 117 -237 9 -131 22
-141 129 -97 9 3 11 -2 7 -19 -4 -17 0 -29 16 -43 18 -17 34 -20 108 -18 195
4 422 85 580 208 60 46 146 133 175 177 13 19 25 26 46 26 58 -2 138 86 185
200 66 162 79 432 28 596 -4 13 15 2 53 -32 68 -59 72 -57 73 48 1 81 -27 187
-79 294 -64 133 -142 213 -336 345 -43 30 -91 71 -106 92 -55 78 -273 210
-400 243 l-53 14 35 5 c252 41 315 58 413 110 143 76 194 225 124 363 -35 68
-111 135 -171 150 -20 5 -25 11 -20 23 33 76 76 198 90 257 16 68 18 70 45 66
24 -4 32 2 57 42 16 25 45 90 63 143 l34 98 0 210 0 210 -46 132 -45 131 27 6
c22 4 29 12 34 40 8 39 -25 166 -74 284 l-30 72 292 0 c316 0 331 3 355 54 12
24 11 46 -7 159 -12 73 -44 317 -72 544 l-51 412 95 138 c150 219 195 310 242
495 33 127 44 319 25 435 -29 186 -106 355 -213 471 -34 37 -70 77 -80 88 -18
21 -17 34 27 415 25 217 64 570 86 784 46 446 54 514 76 682 16 114 16 124 0
148 -28 43 -53 46 -167 20 -136 -30 -293 -61 -694 -136 -181 -33 -398 -76
-482 -95 -84 -19 -155 -34 -159 -34 -3 0 -3 8 0 17 4 9 18 80 32 157 44 244
43 490 -2 801 -30 211 -67 319 -127 372 -99 87 -230 58 -432 -94 -160 -121
-420 -395 -542 -573 -37 -55 -52 -69 -68 -66 -11 2 -63 15 -116 29 -140 37
-230 47 -425 47 -192 0 -344 -18 -483 -56 -47 -13 -86 -22 -86 -21 -306 488
-737 855 -935 796z m1315 -870 c-38 -5 -90 -13 -115 -18 -42 -10 -43 -10 -7
-8 38 3 45 -6 26 -33 -9 -13 -10 -12 -5 3 3 9 1 17 -3 17 -9 0 -25 -30 -23
-42 1 -5 -1 -7 -5 -6 -13 5 -53 -28 -45 -36 4 -4 3 -7 -3 -6 -5 1 -13 1 -17 0
-10 -3 -25 -7 -35 -9 -5 -1 -1 -6 7 -11 13 -8 13 -10 -2 -10 -9 0 -19 6 -21
13 -3 7 -6 5 -6 -5 -1 -10 -8 -18 -17 -18 -9 0 -12 5 -8 12 4 7 3 8 -5 4 -6
-4 -9 -12 -6 -17 4 -5 -4 -9 -16 -9 -17 0 -20 -4 -16 -21 4 -14 2 -19 -8 -15
-7 2 -16 -2 -19 -10 -3 -9 -10 -12 -16 -9 -6 4 -7 12 -3 18 4 6 8 20 8 31 2
17 1 17 -10 3 -7 -9 -16 -13 -20 -9 -5 4 -5 -1 -2 -11 4 -11 3 -16 -3 -12 -6
3 -13 -1 -17 -10 -6 -16 -7 -16 -15 -1 -18 32 -94 -18 -83 -54 3 -11 1 -11 -7
2 -11 15 -13 15 -25 0 -11 -15 -12 -15 -8 6 2 14 0 20 -6 16 -6 -3 -9 -17 -6
-30 2 -14 0 -27 -4 -30 -5 -3 -9 2 -9 12 0 15 -2 15 -22 2 -25 -16 -52 -13
-42 4 4 6 -7 1 -24 -12 -17 -12 -28 -28 -26 -35 3 -6 -3 -18 -13 -26 -16 -13
-17 -12 -4 4 7 9 9 17 4 17 -5 0 -45 -41 -89 -92 -43 -50 -87 -98 -96 -107
-12 -10 -14 -19 -7 -27 7 -8 -2 -18 -33 -34 -50 -26 -59 -38 99 140 140 157
188 204 202 195 6 -3 10 -3 9 2 -2 5 38 50 88 101 l90 92 115 30 c152 39 261
58 334 58 l60 -1 -70 -8z m112 -146 c-3 -27 -15 -70 -26 -96 -22 -51 -112
-151 -196 -219 -27 -23 -6 1 48 52 108 102 151 170 163 259 4 28 9 51 12 51 2
0 2 -21 -1 -47z m-367 -49 c0 -2 -7 -4 -15 -4 -8 0 -15 4 -15 10 0 5 7 7 15 4
8 -4 15 -8 15 -10z m-270 -104 c0 -5 -5 -10 -11 -10 -5 0 -7 5 -4 10 3 6 8 10
11 10 2 0 4 -4 4 -10z m3741 -480 c-53 -472 -224 -1934 -227 -1938 -1 -2 -17
6 -36 18 -77 45 -183 45 -241 0 l-26 -20 -38 31 -38 32 38 -38 39 -37 -23 -51
c-14 -35 -25 -88 -31 -162 -6 -64 -17 -124 -26 -144 -41 -84 -175 -197 -260
-221 -96 -25 -195 22 -250 119 -22 40 -19 54 7 29 34 -34 -31 135 -90 235 -23
38 -38 71 -35 74 3 3 20 9 38 13 28 7 29 8 8 9 -14 0 -32 -3 -39 -8 -11 -7
-21 -3 -35 12 -12 12 -37 34 -56 49 l-35 28 55 0 c86 0 101 27 50 95 -26 33
-28 40 -15 48 17 9 21 37 5 37 -5 0 -10 5 -10 11 0 6 6 9 13 6 20 -8 88 26
119 59 55 59 71 116 77 274 l6 144 35 7 c22 5 48 22 71 47 30 32 39 50 44 96
8 64 -9 221 -32 299 -18 61 -86 199 -119 243 l-24 31 37 29 c63 48 83 74 83
110 0 52 -18 80 -83 126 -123 88 -178 137 -236 209 -72 91 -101 144 -101 186
0 29 3 33 38 38 76 13 208 38 622 116 654 124 754 140 758 120 1 -9 -15 -171
-37 -361z m-3541 284 c-41 -42 -129 -121 -195 -177 -66 -55 -128 -107 -137
-115 -10 -8 -18 -13 -18 -10 0 3 62 57 138 121 75 63 168 147 207 186 38 39
72 71 74 71 3 0 -28 -34 -69 -76z m-2545 25 c192 -17 530 -65 954 -134 216
-36 395 -65 397 -65 2 0 4 -10 4 -22 0 -73 -130 -238 -292 -373 -121 -101
-128 -110 -128 -156 0 -31 7 -46 38 -76 20 -22 48 -46 62 -55 l25 -15 -46 -59
c-56 -72 -90 -136 -119 -229 -17 -56 -21 -93 -21 -188 1 -75 6 -129 15 -150
17 -43 68 -85 110 -93 33 -6 35 -9 49 -72 21 -90 80 -229 117 -274 17 -21 43
-39 60 -43 17 -4 30 -8 30 -10 0 -2 -18 -30 -40 -61 -22 -32 -40 -65 -40 -75
0 -9 -6 -20 -12 -22 -7 -3 19 -6 59 -6 51 -1 95 6 150 24 42 13 79 23 80 21 2
-2 -21 -21 -50 -44 -82 -62 -112 -96 -191 -216 -73 -112 -208 -288 -275 -359
-77 -83 -167 -99 -256 -48 -27 16 -82 62 -121 102 l-70 74 -12 127 c-23 231
-68 298 -200 298 -44 0 -71 -6 -106 -25 -33 -18 -48 -21 -51 -12 -2 6 -11 64
-19 127 -95 733 -194 1426 -271 1895 -19 115 -35 215 -35 221 0 12 -2 12 205
-7z m2705 -33 c0 -2 -8 -10 -17 -17 -16 -13 -17 -12 -4 4 13 16 21 21 21 13z
m-50 -41 c-7 -8 -17 -15 -23 -15 -6 0 -2 7 9 15 25 19 30 19 14 0z m-495 -42
c-32 -55 -99 -146 -122 -165 -9 -7 12 25 46 71 34 47 69 97 77 113 8 15 17 28
20 28 3 0 -6 -21 -21 -47z m-145 -197 c0 -2 -8 -10 -17 -17 -16 -13 -17 -12
-4 4 13 16 21 21 21 13z m100 -69 c0 -2 -10 -12 -22 -23 l-23 -19 19 23 c18
21 26 27 26 19z m-681 -34 c-56 -74 -111 -132 -177 -185 -42 -34 -68 -52 -58
-40 10 12 42 40 70 61 28 22 77 71 110 110 32 39 61 71 64 71 2 0 -2 -8 -9
-17z m441 -27 c0 -2 -7 -7 -16 -10 -8 -3 -12 -2 -9 4 6 10 25 14 25 6z m218
-93 c-10 -2 -26 -2 -35 0 -10 3 -2 5 17 5 19 0 27 -2 18 -5z m2767 -99 c30
-20 55 -39 55 -41 0 -12 -140 89 -170 123 -17 20 -12 17 17 -8 23 -21 67 -54
98 -74z m-2718 54 c-3 -7 -5 -2 -5 12 0 14 2 19 5 13 2 -7 2 -19 0 -25z m-884
-75 c-7 -2 -21 -2 -30 0 -10 3 -4 5 12 5 17 0 24 -2 18 -5z m7 -27 c0 -2 -7
-7 -16 -10 -8 -3 -12 -2 -9 4 6 10 25 14 25 6z m3717 -38 c17 -17 19 -27 12
-38 -9 -13 -10 -12 -5 2 3 12 -7 28 -32 49 -20 17 -28 27 -17 21 11 -6 30 -21
42 -34z m-3807 -18 c-24 -19 -40 -25 -40 -15 0 5 51 34 60 34 3 0 -6 -8 -20
-19z m-50 -30 c0 -5 -8 -10 -17 -10 -15 0 -16 2 -3 10 19 12 20 12 20 0z m144
-35 c22 -11 24 -13 6 -8 -14 4 -52 12 -85 20 l-60 13 54 -6 c29 -3 68 -12 85
-19z m3664 18 c-10 -2 -26 -2 -35 0 -10 3 -2 5 17 5 19 0 27 -2 18 -5z m-3671
-123 c-98 -62 -202 -178 -238 -267 -12 -30 -18 -37 -14 -18 10 46 47 103 116
178 58 64 151 137 173 137 6 0 -11 -13 -37 -30z m3644 -47 c13 -16 12 -17 -3
-4 -10 7 -18 15 -18 17 0 8 8 3 21 -13z m69 -74 c15 -28 5 -23 -15 7 -9 15
-12 23 -6 20 6 -4 16 -16 21 -27z m30 -64 c0 -5 -5 -3 -10 5 -5 8 -10 20 -10
25 0 6 5 3 10 -5 5 -8 10 -19 10 -25z m-3760 -109 c0 -2 -22 -18 -49 -36 -63
-40 -113 -95 -146 -160 -43 -85 -58 -61 -52 85 l3 90 2 -102 c1 -57 6 -103 11
-103 5 0 23 24 39 53 31 54 82 108 142 151 33 23 50 31 50 22z m-15 -92 c-19
-43 -41 -104 -49 -134 -8 -30 -15 -46 -15 -34 -1 35 85 261 95 251 2 -2 -12
-39 -31 -83z m748 59 c-7 -2 -21 -2 -30 0 -10 3 -4 5 12 5 17 0 24 -2 18 -5z
m3084 -65 c-3 -7 -5 -2 -5 12 0 14 2 19 5 13 2 -7 2 -19 0 -25z m-126 5 c13
-16 12 -17 -3 -4 -10 7 -18 15 -18 17 0 8 8 3 21 -13z m126 -90 c-3 -10 -5 -2
-5 17 0 19 2 27 5 18 2 -10 2 -26 0 -35z m-3086 -26 c-10 -9 -11 -8 -5 6 3 10
9 15 12 12 3 -3 0 -11 -7 -18z m2916 -99 c-3 -7 -5 -2 -5 12 0 14 2 19 5 13 2
-7 2 -19 0 -25z m-3730 -30 c-2 -13 -4 -5 -4 17 -1 22 1 32 4 23 2 -10 2 -28
0 -40z m10 -90 c-2 -13 -4 -3 -4 22 0 25 2 35 4 23 2 -13 2 -33 0 -45z m255
-44 c-34 -36 -73 -89 -87 -117 -14 -28 -25 -44 -25 -35 0 29 155 236 168 224
2 -3 -23 -35 -56 -72z m73 1 c-7 -28 -14 -43 -14 -35 -1 19 19 93 24 88 2 -2
-2 -26 -10 -53z m-276 -125 c11 -24 11 -24 -4 -5 -17 21 -45 108 -44 134 0 9
8 -11 18 -44 9 -33 23 -71 30 -85z m3668 33 c-2 -21 -4 -4 -4 37 0 41 2 58 4
38 2 -21 2 -55 0 -75z m-3117 -79 c-22 -66 -50 -128 -61 -139 -18 -17 -17 -14
4 25 14 25 39 89 57 143 18 53 35 96 37 94 2 -3 -15 -58 -37 -123z m-315 1
c-16 -58 -30 -103 -32 -101 -2 2 8 51 24 109 15 58 29 104 32 102 2 -3 -9 -52
-24 -110z m305 111 c0 -2 -8 -10 -17 -17 -16 -13 -17 -12 -4 4 13 16 21 21 21
13z m2857 -63 c-3 -10 -5 -4 -5 12 0 17 2 24 5 18 2 -7 2 -21 0 -30z m108 7
c9 -16 13 -30 11 -30 -3 0 -12 14 -21 30 -9 17 -13 30 -11 30 3 0 12 -13 21
-30z m-3033 -37 c-31 -43 -82 -88 -134 -118 -27 -15 -48 -25 -48 -22 0 3 25
20 55 37 30 17 74 54 97 81 45 53 61 65 30 22z m3185 -25 c-3 -7 -5 -2 -5 12
0 14 2 19 5 13 2 -7 2 -19 0 -25z m-3617 -3 c13 -14 21 -25 18 -25 -2 0 -15
11 -28 25 -13 14 -21 25 -18 25 2 0 15 -11 28 -25z m3367 -7 c-3 -7 -5 -2 -5
12 0 14 2 19 5 13 2 -7 2 -19 0 -25z m-3320 -10 c-3 -8 -6 -5 -6 6 -1 11 2 17
5 13 3 -3 4 -12 1 -19z m3479 -30 c22 -44 21 -44 46 -22 l23 19 -19 -22 c-26
-31 -32 -29 -56 17 -11 22 -18 40 -15 40 2 0 12 -15 21 -32z m-149 -10 c-3 -7
-5 -2 -5 12 0 14 2 19 5 13 2 -7 2 -19 0 -25z m10 -40 c-3 -8 -6 -5 -6 6 -1
11 2 17 5 13 3 -3 4 -12 1 -19z m-3237 -37 c-14 -27 -1 -27 50 -1 22 11 40 18
40 15 0 -6 -67 -40 -98 -49 l-22 -7 17 35 c9 20 18 34 21 32 2 -2 -1 -14 -8
-25z m3247 -13 c-3 -8 -6 -5 -6 6 -1 11 2 17 5 13 3 -3 4 -12 1 -19z m-4672
-179 c14 -79 31 -161 39 -182 8 -20 11 -35 6 -32 -13 8 -27 60 -50 185 -11 63
-23 126 -26 139 l-5 24 -35 -34 c-43 -42 -108 -171 -130 -259 -13 -50 -15 -98
-12 -210 2 -80 1 -131 -3 -115 -4 17 -7 84 -8 150 -1 142 15 219 65 322 34 69
118 173 129 161 3 -3 17 -70 30 -149z m325 -154 c32 -17 44 -54 37 -120 -3
-32 -4 -28 -5 18 -2 47 -7 63 -27 83 -15 15 -32 23 -41 20 -9 -3 -23 -6 -33
-6 -9 0 -48 -21 -85 -46 -38 -25 -70 -44 -72 -42 -6 7 122 89 152 97 41 13 42
13 74 -4z m1443 -100 c-3 -9 -8 -14 -10 -11 -3 3 -2 9 2 15 9 16 15 13 8 -4z
m-153 -55 c-8 -5 -19 -10 -25 -10 -5 0 -3 5 5 10 8 5 20 10 25 10 6 0 3 -5 -5
-10z m-60 -25 c-14 -8 -29 -14 -35 -14 -5 0 1 6 15 14 14 8 30 14 35 14 6 0
-1 -6 -15 -14z m-1183 -77 c-2 -18 -4 -6 -4 27 0 33 2 48 4 33 2 -15 2 -42 0
-60z m2720 50 c-3 -8 -6 -5 -6 6 -1 11 2 17 5 13 3 -3 4 -12 1 -19z m-1617 -5
c-19 -8 -46 -24 -59 -36 l-24 -22 19 27 c10 16 33 32 49 37 46 14 54 11 15 -6z
m1604 -67 c-3 -15 -8 -25 -11 -23 -2 3 -1 17 3 31 3 15 8 25 11 23 2 -3 1 -17
-3 -31z m-1694 10 c0 -2 -16 -14 -37 -26 -42 -24 -121 -42 -129 -28 -3 5 -15
-4 -27 -19 -84 -111 -129 -159 -191 -201 -73 -50 -170 -93 -209 -91 -12 0 2 7
31 15 126 33 238 117 334 248 43 57 43 58 98 60 35 2 68 11 90 24 37 23 40 24
40 18z m-910 -169 c44 -47 109 -104 145 -127 73 -48 86 -62 24 -28 -49 27
-201 167 -241 222 -15 21 -28 48 -27 60 1 15 4 11 10 -11 5 -18 44 -69 89
-116z m-662 13 c0 -9 -3 -7 -8 5 -5 11 -8 29 -8 40 0 16 2 15 8 -5 4 -14 8
-32 8 -40z m4732 14 c0 -2 -9 0 -20 6 -11 6 -20 13 -20 16 0 2 9 0 20 -6 11
-6 20 -13 20 -16z m-4694 -141 c-5 -5 -36 86 -35 101 0 6 9 -13 20 -43 10 -30
17 -56 15 -58z m2211 -5 c-3 -8 -6 -5 -6 6 -1 11 2 17 5 13 3 -3 4 -12 1 -19z
m-2187 -43 c0 -5 -5 -3 -10 5 -5 8 -10 20 -10 25 0 6 5 3 10 -5 5 -8 10 -19
10 -25z m18 -40 c-3 -3 -9 2 -12 12 -6 14 -5 15 5 6 7 -7 10 -15 7 -18z m16
-31 c3 -8 2 -12 -4 -9 -6 3 -10 10 -10 16 0 14 7 11 14 -7z m46 -84 c6 -11 8
-20 6 -20 -3 0 -10 9 -16 20 -6 11 -8 20 -6 20 3 0 10 -9 16 -20z m91 -145
l10 -20 -16 20 c-9 11 -21 29 -26 40 l-10 20 16 -20 c9 -11 21 -29 26 -40z
m4000 -142 c13 -16 12 -17 -3 -4 -10 7 -18 15 -18 17 0 8 8 3 21 -13z m-1584
-235 c-3 -8 -6 -5 -6 6 -1 11 2 17 5 13 3 -3 4 -12 1 -19z m-2187 -149 c70
-68 192 -148 271 -176 l46 -17 -29 -47 c-36 -57 -41 -115 -13 -135 33 -25 171
-14 280 21 12 4 5 -7 -20 -28 -39 -35 -39 -36 -15 -41 14 -3 39 -7 57 -8 l31
-3 -70 -80 c-38 -44 -94 -115 -124 -158 l-55 -78 -102 6 c-98 6 -281 19 -434
32 -85 7 -82 -3 -53 147 19 95 110 667 110 691 0 6 12 -6 27 -25 14 -19 56
-65 93 -101z m5676 -354 c26 -217 44 -398 40 -402 -10 -10 -441 -17 -520 -8
l-61 7 -50 81 c-27 45 -51 85 -53 89 -2 5 15 8 37 8 42 0 51 9 28 28 -15 12
-73 130 -66 134 2 2 39 21 82 42 133 66 324 231 434 377 63 82 68 87 75 64 3
-14 28 -203 54 -420z m-4805 219 c-16 -33 -30 -56 -31 -52 0 11 53 118 58 114
2 -2 -10 -30 -27 -62z m299 -10 c-25 -25 -112 -94 -195 -152 -208 -148 -325
-267 -488 -492 -16 -22 -16 -23 -7 -2 27 56 168 228 259 314 54 52 162 138
238 191 77 54 159 118 183 142 24 25 46 45 49 45 3 0 -15 -21 -39 -46z m-60
11 c0 -2 -10 -9 -22 -15 -22 -11 -22 -10 -4 4 21 17 26 19 26 11z m-50 -30 c0
-2 -13 -11 -30 -20 -38 -19 -40 -11 -2 9 31 17 32 18 32 11z m-90 -50 c0 -3
-31 -21 -70 -40 -38 -19 -70 -33 -70 -30 0 4 126 72 138 75 1 0 2 -2 2 -5z
m-140 -12 c0 -5 -10 -19 -21 -33 l-21 -25 18 33 c18 32 24 38 24 25z m-10 -69
c0 -1 -16 -11 -36 -23 -32 -19 -35 -15 -13 14 6 9 49 16 49 9z m1852 -316 c-6
-6 -7 0 -4 19 5 21 7 23 10 9 2 -10 0 -22 -6 -28z m1303 2 c3 -6 -1 -7 -9 -4
-18 7 -21 14 -7 14 6 0 13 -4 16 -10z m-1288 -42 c-3 -8 -6 -5 -6 6 -1 11 2
17 5 13 3 -3 4 -12 1 -19z m-46 -21 c-10 -9 -11 -8 -5 6 3 10 9 15 12 12 3 -3
0 -11 -7 -18z m-2016 -117 c-4 -6 -41 -34 -83 -62 -42 -29 -101 -74 -130 -102
-29 -27 -50 -42 -46 -33 3 9 10 17 16 17 5 0 7 4 4 9 -3 4 1 17 9 27 15 18 15
18 8 -1 -5 -18 -3 -17 21 5 23 21 195 147 204 149 2 1 0 -4 -3 -9z m9 -37 c-9
-16 -38 -55 -63 -88 -25 -33 -54 -72 -64 -85 -18 -25 -18 -25 -1 5 20 35 137
195 143 195 2 0 -5 -12 -15 -27z m-185 -30 c-12 -21 -27 -42 -32 -48 -11 -11
9 29 31 63 24 37 25 25 1 -15z m2071 24 c0 -2 -19 -21 -42 -42 l-43 -40 40 43
c36 39 45 47 45 39z m-2040 -217 c-6 -11 -13 -20 -16 -20 -2 0 0 9 6 20 6 11
13 20 16 20 2 0 0 -9 -6 -20z m-39 -77 c-11 -21 -20 -35 -21 -31 0 12 33 78
38 74 2 -2 -6 -21 -17 -43z m-45 -119 c-8 -21 -15 -34 -15 -28 -1 15 20 76 25
71 2 -2 -2 -21 -10 -43z m4694 -38 c0 -12 -5 -7 -19 24 -11 24 -11 24 3 6 9
-11 16 -24 16 -30z m-4713 -38 c-3 -8 -6 -5 -6 6 -1 11 2 17 5 13 3 -3 4 -12
1 -19z m-10 -50 c-3 -8 -6 -5 -6 6 -1 11 2 17 5 13 3 -3 4 -12 1 -19z m-20
-100 c-3 -8 -6 -5 -6 6 -1 11 2 17 5 13 3 -3 4 -12 1 -19z m-10 -60 c-3 -7 -5
-2 -5 12 0 14 2 19 5 13 2 -7 2 -19 0 -25z m-10 -125 c-2 -21 -4 -6 -4 32 0
39 2 55 4 38 2 -18 2 -50 0 -70z m264 -1090 c13 -16 12 -17 -3 -4 -10 7 -18
15 -18 17 0 8 8 3 21 -13z m4359 13 c0 -2 -8 -10 -17 -17 -16 -13 -17 -12 -4
4 13 16 21 21 21 13z m100 -26 c8 -5 11 -10 5 -10 -5 0 -17 5 -25 10 -8 5 -10
10 -5 10 6 0 17 -5 25 -10z m-4598 -29 c-9 -16 -18 -28 -21 -26 -4 5 27 55 34
55 2 0 -4 -13 -13 -29z m194 -23 l29 -33 -32 29 c-31 28 -38 36 -30 36 2 0 16
-15 33 -32z m4264 29 c0 -1 -26 -27 -57 -57 l-58 -55 55 58 c50 53 60 62 60
54z m229 -85 l-2 -37 -6 42 c-4 23 -14 51 -22 61 -8 10 -4 7 9 -6 15 -16 22
-34 21 -60z m-4438 11 c13 -16 12 -17 -3 -4 -17 13 -22 21 -14 21 2 0 10 -8
17 -17z m1419 -33 c-6 -11 -13 -20 -16 -20 -2 0 0 9 6 20 6 11 13 20 16 20 2
0 0 -9 -6 -20z m-1659 -7 c13 -16 12 -17 -3 -4 -17 13 -22 21 -14 21 2 0 10
-8 17 -17z m4318 -9 c-15 -18 -109 -74 -124 -74 -5 0 15 14 45 31 30 16 62 36
70 44 19 20 26 19 9 -1z m-3979 -20 c0 -2 -9 0 -20 6 -11 6 -20 13 -20 16 0 2
9 0 20 -6 11 -6 20 -13 20 -16z m-271 -10 c14 -12 -19 -1 -35 12 -18 14 -18
14 6 3 14 -6 27 -13 29 -15z m4601 23 c0 -2 -15 -16 -32 -33 l-33 -29 29 33
c28 30 36 37 36 29z m-4275 -45 c-3 -3 -11 0 -18 7 -9 10 -8 11 6 5 10 -3 15
-9 12 -12z m94 -89 c2 -2 -2 -3 -10 -2 -8 0 -30 19 -49 42 l-34 42 44 -40 c25
-22 47 -41 49 -42z m1112 40 c-12 -20 -14 -14 -5 12 4 9 9 14 11 11 3 -2 0
-13 -6 -23z m-1334 11 c-3 -3 -12 -4 -19 -1 -8 3 -5 6 6 6 11 1 17 -2 13 -5z
m40 -10 c-3 -3 -12 -4 -19 -1 -8 3 -5 6 6 6 11 1 17 -2 13 -5z m3803 2 c0 -2
-7 -7 -16 -10 -8 -3 -12 -2 -9 4 6 10 25 14 25 6z m-3753 -12 c-3 -3 -12 -4
-19 -1 -8 3 -5 6 6 6 11 1 17 -2 13 -5z m40 -10 c-3 -3 -12 -4 -19 -1 -8 3 -5
6 6 6 11 1 17 -2 13 -5z m4050 -10 c-3 -3 -12 -4 -19 -1 -8 3 -5 6 6 6 11 1
17 -2 13 -5z m-417 -9 c0 -6 -56 -35 -67 -35 -4 1 8 9 27 20 39 22 40 22 40
15z m377 -1 c-3 -3 -12 -4 -19 -1 -8 3 -5 6 6 6 11 1 17 -2 13 -5z m-40 -10
c-3 -3 -12 -4 -19 -1 -8 3 -5 6 6 6 11 1 17 -2 13 -5z m-54 -11 c-7 -2 -19 -2
-25 0 -7 3 -2 5 12 5 14 0 19 -2 13 -5z m-60 -10 c-7 -2 -19 -2 -25 0 -7 3 -2
5 12 5 14 0 19 -2 13 -5z m-337 -23 c-25 -13 -58 -20 -90 -19 l-51 1 55 9 c30
4 66 12 80 18 43 17 47 11 6 -9z m272 13 c-10 -2 -26 -2 -35 0 -10 3 -2 5 17
5 19 0 27 -2 18 -5z m-80 -10 c-10 -2 -28 -2 -40 0 -13 2 -5 4 17 4 22 1 32
-1 23 -4z m-105 -10 c-13 -2 -33 -2 -45 0 -13 2 -3 4 22 4 25 0 35 -2 23 -4z
m-260 -20 c-7 -2 -21 -2 -30 0 -10 3 -4 5 12 5 17 0 24 -2 18 -5z"/>
<path d="M4888 11473 c7 -3 16 -2 19 1 4 3 -2 6 -13 5 -11 0 -14 -3 -6 -6z"/>
<path d="M4798 11453 c7 -3 16 -2 19 1 4 3 -2 6 -13 5 -11 0 -14 -3 -6 -6z"/>
<path d="M4758 11443 c7 -3 16 -2 19 1 4 3 -2 6 -13 5 -11 0 -14 -3 -6 -6z"/>
<path d="M4688 11423 c7 -3 16 -2 19 1 4 3 -2 6 -13 5 -11 0 -14 -3 -6 -6z"/>
<path d="M4636 11411 c-4 -5 3 -7 14 -4 23 6 26 13 6 13 -8 0 -17 -4 -20 -9z"/>
<path d="M4640 11325 c-7 -9 -8 -15 -2 -15 5 0 12 7 16 15 3 8 4 15 2 15 -2 0
-9 -7 -16 -15z"/>
<path d="M4499 11273 c-13 -16 -12 -17 3 -5 9 8 23 10 29 6 8 -4 9 -3 5 4 -10
17 -21 15 -37 -5z"/>
<path d="M7896 10826 c-77 -18 -133 -35 -124 -38 13 -5 158 25 268 57 89 25
-5 13 -144 -19z"/>
<path d="M8103 10780 c0 -36 2 -50 4 -32 2 17 2 47 0 65 -2 17 -4 3 -4 -33z"/>
<path d="M8073 10760 c0 -25 2 -35 4 -22 2 12 2 32 0 45 -2 12 -4 2 -4 -23z"/>
<path d="M7725 10780 c28 -12 37 -12 30 0 -3 6 -16 10 -28 9 -21 0 -21 -1 -2
-9z"/>
<path d="M7542 10758 c-62 -12 -110 -23 -108 -25 3 -3 59 5 125 16 66 12 132
19 148 16 23 -4 24 -4 8 4 -27 13 -43 12 -173 -11z"/>
<path d="M7388 10723 c6 -2 18 -2 25 0 6 3 1 5 -13 5 -14 0 -19 -2 -12 -5z"/>
<path d="M7338 10713 c6 -2 18 -2 25 0 6 3 1 5 -13 5 -14 0 -19 -2 -12 -5z"/>
<path d="M7140 10680 c-74 -15 -126 -28 -115 -28 11 -1 83 12 160 27 77 16
129 29 115 29 -14 0 -86 -13 -160 -28z"/>
<path d="M7420 10700 c-11 -8 -7 -9 15 -4 37 8 45 14 19 14 -10 0 -26 -5 -34
-10z"/>
<path d="M8086 10623 c-4 -49 -14 -137 -22 -197 -8 -61 -14 -124 -13 -140 1
-37 35 214 44 337 4 48 5 87 3 87 -3 0 -8 -39 -12 -87z"/>
<path d="M8062 10670 c0 -19 2 -27 5 -17 2 9 2 25 0 35 -3 9 -5 1 -5 -18z"/>
<path d="M7401 10644 c0 -11 3 -14 6 -6 3 7 2 16 -1 19 -3 4 -6 -2 -5 -13z"/>
<path d="M7158 10633 c7 -3 16 -2 19 1 4 3 -2 6 -13 5 -11 0 -14 -3 -6 -6z"/>
<path d="M8053 10595 c0 -22 2 -30 4 -17 2 12 2 30 0 40 -3 9 -5 -1 -4 -23z"/>
<path d="M7412 10600 c0 -14 2 -19 5 -12 2 6 2 18 0 25 -3 6 -5 1 -5 -13z"/>
<path d="M7426 10530 c14 -109 70 -270 93 -270 6 0 -2 20 -16 45 -13 25 -38
96 -54 157 -16 62 -26 93 -23 68z"/>
<path d="M8043 10485 c0 -38 2 -53 4 -32 2 20 2 52 0 70 -2 17 -4 1 -4 -38z"/>
<path d="M7571 10454 c0 -11 3 -14 6 -6 3 7 2 16 -1 19 -3 4 -6 -2 -5 -13z"/>
<path d="M8031 10334 c0 -11 3 -14 6 -6 3 7 2 16 -1 19 -3 4 -6 -2 -5 -13z"/>
<path d="M8032 10140 c-8 -63 -27 -223 -43 -355 -15 -132 -31 -262 -33 -290
-28 -294 -36 -387 -35 -425 1 -25 8 18 15 95 24 253 55 536 85 794 17 139 29
263 27 275 -2 11 -9 -31 -16 -94z"/>
<path d="M7565 10190 c10 -11 20 -20 23 -20 3 0 -3 9 -13 20 -10 11 -20 20
-23 20 -3 0 3 -9 13 -20z"/>
<path d="M7650 10107 c30 -31 56 -57 57 -57 9 0 -27 40 -66 75 -43 37 -43 36
9 -18z"/>
<path d="M7735 10030 c10 -11 20 -20 23 -20 3 0 -3 9 -13 20 -10 11 -20 20
-23 20 -3 0 3 -9 13 -20z"/>
<path d="M7785 9980 c10 -11 20 -20 23 -20 3 0 -3 9 -13 20 -10 11 -20 20 -23
20 -3 0 3 -9 13 -20z"/>
<path d="M7981 9984 c0 -11 3 -14 6 -6 3 7 2 16 -1 19 -3 4 -6 -2 -5 -13z"/>
<path d="M7972 9920 c0 -14 2 -19 5 -12 2 6 2 18 0 25 -3 6 -5 1 -5 -13z"/>
<path d="M7869 9858 c-7 -13 -78 -91 -159 -174 -80 -82 -156 -166 -169 -185
-14 -20 -6 -14 20 16 24 28 102 111 175 185 115 118 166 180 150 180 -3 0 -11
-10 -17 -22z"/>
<path d="M7799 9843 c-13 -16 -12 -17 4 -4 9 7 17 15 17 17 0 8 -8 3 -21 -13z"/>
<path d="M7719 9753 l-24 -28 28 24 c15 14 27 26 27 28 0 8 -8 1 -31 -24z"/>
<path d="M7860 9683 l-55 -58 58 55 c31 30 57 56 57 57 0 8 -10 -1 -60 -54z"/>
<path d="M7669 9693 c-13 -16 -12 -17 4 -4 9 7 17 15 17 17 0 8 -8 3 -21 -13z"/>
<path d="M7559 9553 c-13 -16 -12 -17 4 -4 9 7 17 15 17 17 0 8 -8 3 -21 -13z"/>
<path d="M7649 9443 c-13 -16 -12 -17 4 -4 9 7 17 15 17 17 0 8 -8 3 -21 -13z"/>
<path d="M7474 9415 c-15 -20 -25 -37 -23 -39 2 -2 16 14 31 35 35 49 28 51
-8 4z"/>
<path d="M7265 9320 c10 -11 20 -20 23 -20 3 0 -3 9 -13 20 -10 11 -20 20 -23
20 -3 0 3 -9 13 -20z"/>
<path d="M7320 9275 c13 -14 26 -25 28 -25 3 0 -5 11 -18 25 -13 14 -26 25
-28 25 -3 0 5 -11 18 -25z"/>
<path d="M7375 9220 c10 -11 20 -20 23 -20 3 0 -3 9 -13 20 -10 11 -20 20 -23
20 -3 0 3 -9 13 -20z"/>
<path d="M7501 9215 c0 -5 18 -44 39 -85 21 -41 39 -70 39 -65 0 6 -18 44 -39
85 -21 41 -39 71 -39 65z"/>
<path d="M7467 9075 c15 -30 29 -53 31 -51 4 5 -46 106 -53 106 -3 0 7 -25 22
-55z"/>
<path d="M7435 9090 c9 -16 18 -30 21 -30 2 0 -2 14 -11 30 -9 17 -18 30 -21
30 -2 0 2 -13 11 -30z"/>
<path d="M7913 8985 c0 -22 2 -30 4 -17 2 12 2 30 0 40 -3 9 -5 -1 -4 -23z"/>
<path d="M7600 9004 c0 -6 7 -19 16 -30 14 -18 14 -18 3 6 -14 31 -19 36 -19
24z"/>
<path d="M7507 8982 c-5 -7 74 -154 80 -149 2 2 -15 38 -37 80 -21 42 -41 73
-43 69z"/>
<path d="M7902 8910 c0 -19 2 -27 5 -17 2 9 2 25 0 35 -3 9 -5 1 -5 -18z"/>
<path d="M7660 8886 c0 -2 8 -10 18 -17 15 -13 16 -12 3 4 -13 16 -21 21 -21
13z"/>
<path d="M7588 8763 c6 -2 18 -2 25 0 6 3 1 5 -13 5 -14 0 -19 -2 -12 -5z"/>
<path d="M7425 8739 c-122 -23 -146 -30 -80 -23 65 7 237 42 205 42 -14 0 -70
-9 -125 -19z"/>
<path d="M7185 8695 c-33 -7 -51 -13 -40 -13 11 -1 49 5 85 12 36 8 54 14 40
14 -14 0 -52 -6 -85 -13z"/>
<path d="M7668 8633 c6 -2 18 -2 25 0 6 3 1 5 -13 5 -14 0 -19 -2 -12 -5z"/>
<path d="M7603 8623 c9 -2 23 -2 30 0 6 3 -1 5 -18 5 -16 0 -22 -2 -12 -5z"/>
<path d="M7548 8613 c6 -2 18 -2 25 0 6 3 1 5 -13 5 -14 0 -19 -2 -12 -5z"/>
<path d="M7493 8603 c9 -2 23 -2 30 0 6 3 -1 5 -18 5 -16 0 -22 -2 -12 -5z"/>
<path d="M7628 8603 c6 -2 18 -2 25 0 6 3 1 5 -13 5 -14 0 -19 -2 -12 -5z"/>
<path d="M7438 8593 c6 -2 18 -2 25 0 6 3 1 5 -13 5 -14 0 -19 -2 -12 -5z"/>
<path d="M7578 8593 c7 -3 16 -2 19 1 4 3 -2 6 -13 5 -11 0 -14 -3 -6 -6z"/>
<path d="M7388 8583 c6 -2 18 -2 25 0 6 3 1 5 -13 5 -14 0 -19 -2 -12 -5z"/>
<path d="M7338 8573 c6 -2 18 -2 25 0 6 3 1 5 -13 5 -14 0 -19 -2 -12 -5z"/>
<path d="M7283 8563 c9 -2 23 -2 30 0 6 3 -1 5 -18 5 -16 0 -22 -2 -12 -5z"/>
<path d="M7185 8550 c-27 -7 -27 -8 -5 -8 14 0 39 4 55 8 27 7 27 8 5 8 -14 0
-38 -4 -55 -8z"/>
<path d="M7248 8523 c7 -3 16 -2 19 1 4 3 -2 6 -13 5 -11 0 -14 -3 -6 -6z"/>
<path d="M7208 8513 c7 -3 16 -2 19 1 4 3 -2 6 -13 5 -11 0 -14 -3 -6 -6z"/>
<path d="M7158 8503 c7 -3 16 -2 19 1 4 3 -2 6 -13 5 -11 0 -14 -3 -6 -6z"/>
<path d="M2245 10749 c7 -87 78 -527 95 -589 l10 -35 -5 35 c-2 19 -22 141
-43 270 -22 129 -43 270 -47 314 -6 78 -6 78 17 73 13 -3 79 -14 148 -24 109
-16 120 -19 85 -25 -22 -4 -9 -4 29 -1 48 3 66 2 62 -6 -5 -7 6 -11 31 -11 21
0 81 -7 133 -16 123 -20 269 -36 284 -31 6 2 -18 7 -54 11 -36 4 -202 30 -370
57 -168 27 -322 52 -344 55 l-38 6 7 -83z"/>
<path d="M2318 10783 c7 -3 16 -2 19 1 4 3 -2 6 -13 5 -11 0 -14 -3 -6 -6z"/>
<path d="M2383 10773 c15 -2 39 -2 55 0 15 2 2 4 -28 4 -30 0 -43 -2 -27 -4z"/>
<path d="M2292 10685 c0 -16 2 -22 5 -12 2 9 2 23 0 30 -3 6 -5 -1 -5 -18z"/>
<path d="M3145 10680 c49 -11 91 -18 93 -16 5 6 -133 36 -160 35 -13 0 17 -9
67 -19z"/>
<path d="M3276 10638 c3 -4 14 -8 25 -8 11 0 17 -5 14 -10 -4 -7 3 -9 22 -5
22 5 25 4 13 -5 -12 -9 -8 -10 19 -5 25 6 32 4 26 -5 -5 -8 -3 -11 4 -9 27 9
4 25 -60 40 -38 9 -66 12 -63 7z"/>
<path d="M2302 10590 c0 -19 2 -27 5 -17 2 9 2 25 0 35 -3 9 -5 1 -5 -18z"/>
<path d="M3161 10604 c0 -11 3 -14 6 -6 3 7 2 16 -1 19 -3 4 -6 -2 -5 -13z"/>
<path d="M3171 10554 c0 -11 3 -14 6 -6 3 7 2 16 -1 19 -3 4 -6 -2 -5 -13z"/>
<path d="M2361 10224 c0 -11 3 -14 6 -6 3 7 2 16 -1 19 -3 4 -6 -2 -5 -13z"/>
<path d="M2650 10216 c0 -3 9 -10 20 -16 11 -6 20 -8 20 -6 0 3 -9 10 -20 16
-11 6 -20 8 -20 6z"/>
<path d="M2371 10184 c0 -11 3 -14 6 -6 3 7 2 16 -1 19 -3 4 -6 -2 -5 -13z"/>
<path d="M2700 10186 c0 -2 14 -14 30 -26 17 -12 30 -19 30 -16 0 2 -13 14
-30 26 -16 12 -30 19 -30 16z"/>
<path d="M2381 10144 c0 -11 3 -14 6 -6 3 7 2 16 -1 19 -3 4 -6 -2 -5 -13z"/>
<path d="M2660 10150 c8 -5 20 -10 25 -10 6 0 3 5 -5 10 -8 5 -19 10 -25 10
-5 0 -3 -5 5 -10z"/>
<path d="M2720 10125 c14 -8 30 -14 35 -14 6 0 -1 6 -15 14 -14 8 -29 14 -35
14 -5 0 1 -6 15 -14z"/>
<path d="M2352 10100 c0 -14 4 -38 8 -55 7 -27 8 -27 8 -5 0 14 -4 39 -8 55
-7 27 -8 27 -8 5z"/>
<path d="M2459 10079 c24 -11 46 -18 48 -15 4 4 -73 36 -85 35 -4 0 13 -9 37
-20z"/>
<path d="M2820 10077 c0 -3 30 -24 67 -48 38 -24 86 -59 108 -78 36 -31 36
-30 -5 10 -25 24 -57 50 -72 58 -15 8 -26 19 -25 24 1 6 -5 11 -13 12 -8 0
-25 6 -37 13 -13 7 -23 11 -23 9z"/>
<path d="M2402 10000 c0 -19 2 -27 5 -17 2 9 2 25 0 35 -3 9 -5 1 -5 -18z"/>
<path d="M2372 9985 c0 -16 2 -22 5 -12 2 9 2 23 0 30 -3 6 -5 -1 -5 -18z"/>
<path d="M2382 9925 c0 -16 2 -22 5 -12 2 9 2 23 0 30 -3 6 -5 -1 -5 -18z"/>
<path d="M2711 9946 c2 -2 15 -9 29 -15 24 -11 24 -11 6 3 -16 13 -49 24 -35
12z"/>
<path d="M2412 9915 c0 -16 2 -22 5 -12 2 9 2 23 0 30 -3 6 -5 -1 -5 -18z"/>
<path d="M2392 9865 c0 -16 2 -22 5 -12 2 9 2 23 0 30 -3 6 -5 -1 -5 -18z"/>
<path d="M2883 9864 c9 -11 17 -25 17 -31 0 -5 -46 -52 -101 -103 -98 -90
-159 -161 -159 -183 0 -6 13 9 29 34 29 45 127 143 193 193 49 37 57 62 27 90
-22 20 -23 20 -6 0z"/>
<path d="M2422 9845 c0 -16 2 -22 5 -12 2 9 2 23 0 30 -3 6 -5 -1 -5 -18z"/>
<path d="M2402 9815 c-1 -11 5 -51 12 -90 8 -38 14 -59 14 -45 1 14 -5 54 -12
90 -8 36 -14 56 -14 45z"/>
<path d="M2431 9636 c-1 -10 6 -57 15 -105 8 -47 30 -198 49 -336 18 -137 33
-232 34 -210 1 49 -30 285 -64 495 -27 161 -33 188 -34 156z"/>
<path d="M2814 9608 l-29 -33 33 29 c17 17 32 31 32 33 0 8 -8 1 -36 -29z"/>
<path d="M2760 9539 c-12 -16 -21 -32 -18 -34 2 -2 13 12 26 31 28 42 21 45
-8 3z"/>
<path d="M2670 9455 c0 -7 81 -47 86 -43 2 3 -17 14 -41 26 -25 12 -45 20 -45
17z"/>
<path d="M2850 9366 c0 -2 16 -13 36 -25 19 -12 32 -16 29 -11 -7 11 -65 43
-65 36z"/>
<path d="M3216 9324 c-11 -8 -16 -14 -10 -14 13 0 39 18 34 24 -3 2 -14 -2
-24 -10z"/>
<path d="M2975 9270 c27 -27 51 -50 54 -50 3 0 -17 23 -44 50 -27 28 -51 50
-54 50 -3 0 17 -22 44 -50z"/>
<path d="M3070 9210 c-9 -6 -10 -10 -3 -10 6 0 15 5 18 10 8 12 4 12 -15 0z"/>
<path d="M3260 9210 c-13 -8 -13 -10 2 -10 9 0 20 5 23 10 8 13 -5 13 -25 0z"/>
<path d="M2870 9156 c0 -2 8 -10 18 -17 15 -13 16 -12 3 4 -13 16 -21 21 -21
13z"/>
<path d="M3149 9113 c-13 -16 -12 -17 4 -4 16 13 21 21 13 21 -2 0 -10 -8 -17
-17z"/>
<path d="M3120 9065 c0 -14 2 -25 4 -25 2 0 6 11 8 25 3 14 1 25 -3 25 -5 0
-9 -11 -9 -25z"/>
<path d="M3113 8925 c0 -22 2 -30 4 -17 2 12 2 30 0 40 -3 9 -5 -1 -4 -23z"/>
<path d="M2531 8874 c0 -11 3 -14 6 -6 3 7 2 16 -1 19 -3 4 -6 -2 -5 -13z"/>
<path d="M2973 8825 c0 -22 2 -30 4 -17 2 12 2 30 0 40 -3 9 -5 -1 -4 -23z"/>
<path d="M3122 8830 c0 -19 2 -27 5 -17 2 9 2 25 0 35 -3 9 -5 1 -5 -18z"/>
<path d="M3130 8744 c0 -16 5 -36 10 -44 6 -10 7 -2 3 25 -7 49 -13 58 -13 19z"/>
<path d="M2703 8693 c9 -2 25 -2 35 0 9 3 1 5 -18 5 -19 0 -27 -2 -17 -5z"/>
<path d="M2803 8683 c9 -2 23 -2 30 0 6 3 -1 5 -18 5 -16 0 -22 -2 -12 -5z"/>
<path d="M2698 8663 c12 -2 32 -2 45 0 12 2 2 4 -23 4 -25 0 -35 -2 -22 -4z"/>
<path d="M2793 8653 c9 -2 25 -2 35 0 9 3 1 5 -18 5 -19 0 -27 -2 -17 -5z"/>
<path d="M3308 8623 c7 -3 16 -2 19 1 4 3 -2 6 -13 5 -11 0 -14 -3 -6 -6z"/>
<path d="M3258 8603 c7 -3 16 -2 19 1 4 3 -2 6 -13 5 -11 0 -14 -3 -6 -6z"/>
<path d="M3328 8593 c6 -2 18 -2 25 0 6 3 1 5 -13 5 -14 0 -19 -2 -12 -5z"/>
<path d="M2713 8503 c9 -2 23 -2 30 0 6 3 -1 5 -18 5 -16 0 -22 -2 -12 -5z"/>
<path d="M2855 8480 c55 -11 111 -19 125 -18 14 0 -20 8 -75 18 -55 11 -111
19 -125 18 -14 0 20 -8 75 -18z"/>
<path d="M2798 8463 c6 -2 18 -2 25 0 6 3 1 5 -13 5 -14 0 -19 -2 -12 -5z"/>
<path d="M2848 8453 c6 -2 18 -2 25 0 6 3 1 5 -13 5 -14 0 -19 -2 -12 -5z"/>
<path d="M3023 8453 c9 -2 23 -2 30 0 6 3 -1 5 -18 5 -16 0 -22 -2 -12 -5z"/>
<path d="M2908 8443 c7 -3 16 -2 19 1 4 3 -2 6 -13 5 -11 0 -14 -3 -6 -6z"/>
<path d="M3083 8443 c9 -2 25 -2 35 0 9 3 1 5 -18 5 -19 0 -27 -2 -17 -5z"/>
<path d="M2963 8433 c9 -2 23 -2 30 0 6 3 -1 5 -18 5 -16 0 -22 -2 -12 -5z"/>
<path d="M3153 8433 c9 -2 25 -2 35 0 9 3 1 5 -18 5 -19 0 -27 -2 -17 -5z"/>
<path d="M3028 8423 c6 -2 18 -2 25 0 6 3 1 5 -13 5 -14 0 -19 -2 -12 -5z"/>
<path d="M3218 8423 c7 -3 16 -2 19 1 4 3 -2 6 -13 5 -11 0 -14 -3 -6 -6z"/>
<path d="M2525 7188 c-8 -26 -37 -228 -33 -239 2 -6 13 48 24 120 18 119 21
153 9 119z"/>
<path d="M2471 6845 c-8 -48 -11 -88 -9 -91 3 -2 10 34 18 82 7 47 10 87 8 90
-3 2 -10 -34 -17 -81z"/>
<path d="M2528 6713 c6 -2 18 -2 25 0 6 3 1 5 -13 5 -14 0 -19 -2 -12 -5z"/>
<path d="M2618 6703 c6 -2 18 -2 25 0 6 3 1 5 -13 5 -14 0 -19 -2 -12 -5z"/>
<path d="M2458 6693 c6 -2 18 -2 25 0 6 3 1 5 -13 5 -14 0 -19 -2 -12 -5z"/>
<path d="M2678 6693 c7 -3 16 -2 19 1 4 3 -2 6 -13 5 -11 0 -14 -3 -6 -6z"/>
<path d="M2523 6683 c15 -2 39 -2 55 0 15 2 2 4 -28 4 -30 0 -43 -2 -27 -4z"/>
<path d="M2670 6680 l-65 -7 70 0 c39 0 84 3 100 7 l30 8 -35 -1 c-19 0 -64
-3 -100 -7z"/>
<path d="M2803 6663 c20 -2 54 -2 75 0 20 2 3 4 -38 4 -41 0 -58 -2 -37 -4z"/>
<path d="M7907 7090 c3 -30 7 -57 9 -59 7 -8 2 64 -6 89 -6 16 -7 6 -3 -30z"/>
<path d="M7922 7000 c0 -14 2 -19 5 -12 2 6 2 18 0 25 -3 6 -5 1 -5 -13z"/>
<path d="M7931 6961 c-1 -7 13 -74 29 -148 17 -73 30 -143 30 -153 0 -11 4
-20 9 -20 5 0 -2 48 -14 108 -34 155 -53 229 -54 213z"/>
<path d="M7708 6653 c12 -2 32 -2 45 0 12 2 2 4 -23 4 -25 0 -35 -2 -22 -4z"/>
<path d="M7587 6633 c18 -2 50 -2 70 0 21 2 7 4 -32 4 -38 0 -55 -2 -38 -4z"/>
<path d="M7943 6633 c9 -2 23 -2 30 0 6 3 -1 5 -18 5 -16 0 -22 -2 -12 -5z"/>
<path d="M7753 6623 c32 -2 81 -2 110 0 29 2 3 3 -58 3 -60 0 -84 -1 -52 -3z"/>
</g>
</svg>
