<?xml version="1.0" standalone="no"?>
<!DOCTYPE svg PUBLIC "-//W3C//DTD SVG 20010904//EN"
 "http://www.w3.org/TR/2001/REC-SVG-20010904/DTD/svg10.dtd">
<svg version="1.0" xmlns="http://www.w3.org/2000/svg"
 width="1024.000000pt" height="1536.000000pt" viewBox="0 0 1024.000000 1536.000000"
 preserveAspectRatio="xMidYMid meet">

<g transform="translate(0.000000,1536.000000) scale(0.100000,-0.100000)"
fill="#000000" stroke="none">
<path d="M3540 12373 c-59 -18 -81 -46 -108 -138 -15 -51 -26 -419 -14 -440 4
-5 8 -36 9 -68 2 -33 8 -68 14 -78 5 -11 8 -23 6 -27 -4 -6 2 -57 17 -147 2
-11 8 -38 14 -60 6 -22 14 -57 17 -78 4 -21 15 -63 26 -94 10 -31 19 -58 19
-60 0 -2 -16 8 -35 22 -19 15 -39 24 -45 20 -15 -9 -13 -17 15 -47 14 -15 25
-33 25 -41 0 -7 4 -17 9 -22 19 -21 81 -145 72 -145 -5 0 -13 5 -16 10 -3 6
-17 10 -31 10 -19 0 -24 -5 -24 -24 0 -13 7 -29 15 -36 13 -11 11 -16 -18 -41
-38 -35 -47 -37 -158 -42 -133 -6 -189 -54 -189 -159 0 -48 5 -62 40 -110 l39
-56 0 -118 c1 -152 15 -261 46 -348 24 -67 24 -69 6 -95 -27 -38 -72 -142 -77
-174 -5 -39 -12 -47 -42 -46 -41 2 -156 -13 -167 -21 -5 -4 -26 -10 -45 -14
-93 -17 -167 -66 -100 -66 16 0 31 4 34 8 5 9 187 38 221 36 11 -1 50 -2 87
-3 l67 -1 -15 -27 c-7 -16 -14 -35 -14 -44 0 -9 -3 -19 -6 -22 -4 -3 -8 -22
-9 -41 -1 -27 3 -37 16 -41 11 -4 24 -3 30 0 7 5 9 -4 7 -25 -3 -28 -8 -33
-55 -49 -29 -10 -55 -16 -57 -13 -3 2 -15 -3 -28 -12 -12 -9 -30 -16 -40 -16
-10 0 -18 -4 -18 -10 0 -5 -8 -10 -17 -11 -10 0 -31 -9 -48 -20 -16 -10 -39
-23 -50 -28 -31 -15 -121 -98 -113 -106 6 -6 54 23 86 53 7 6 20 12 28 12 8 0
14 3 14 8 0 4 15 12 33 19 17 6 64 23 102 37 39 14 75 26 82 26 6 0 24 5 40
12 15 6 32 10 37 9 4 -1 14 3 20 9 19 15 26 1 15 -27 -5 -14 -7 -28 -4 -33 3
-5 1 -11 -3 -14 -11 -7 -3 -56 11 -74 6 -8 20 -11 35 -7 25 6 25 6 -7 -32 -17
-21 -35 -43 -39 -48 -4 -6 -26 -32 -49 -58 -24 -25 -43 -51 -43 -57 0 -14 43
4 95 40 52 36 53 36 57 8 2 -17 10 -23 31 -25 15 -1 27 1 27 5 0 4 10 8 23 8
23 2 23 1 12 -45 -13 -49 -7 -86 20 -127 8 -13 22 -24 30 -24 8 0 15 -3 15 -7
0 -14 96 -5 135 11 21 9 39 15 41 14 1 -2 -4 -21 -12 -43 -11 -31 -11 -46 -3
-67 13 -33 24 -35 103 -23 l29 4 -20 -22 c-39 -44 -75 -110 -93 -168 -10 -33
11 -64 40 -56 12 3 20 2 18 -3 -4 -11 -90 -108 -155 -175 l-48 -51 -79 3 c-59
1 -94 -3 -135 -18 -31 -12 -65 -23 -76 -26 -11 -4 -24 -12 -28 -20 -7 -11 -24
-13 -79 -7 -63 6 -73 10 -102 41 -26 29 -40 35 -78 38 -25 1 -50 5 -55 8 -4 3
-29 1 -56 -3 -57 -8 -97 -42 -97 -82 0 -28 -20 -40 -65 -38 -11 0 -64 3 -118
6 -90 4 -102 2 -150 -21 -29 -14 -71 -44 -95 -65 -24 -22 -47 -40 -53 -40 -20
0 -98 -86 -123 -135 -43 -88 -68 -179 -62 -232 3 -29 -1 -65 -10 -95 -14 -40
-14 -60 -5 -132 12 -86 25 -126 61 -181 11 -16 25 -40 31 -52 7 -13 16 -23 20
-23 9 0 0 -70 -11 -85 -26 -35 -38 -338 -17 -420 3 -11 8 -33 12 -50 4 -16 10
-34 14 -40 3 -5 6 -12 6 -15 2 -20 41 -107 52 -116 7 -6 13 -16 13 -22 0 -30
117 -156 195 -209 22 -16 42 -30 45 -33 12 -14 81 -51 121 -66 113 -40 215
-50 334 -30 27 5 70 0 130 -14 50 -12 119 -27 155 -35 36 -7 96 -21 135 -30
38 -9 84 -18 101 -21 17 -2 44 -8 58 -14 15 -5 38 -10 52 -10 13 0 24 -3 24
-7 0 -5 20 -7 45 -6 25 0 48 -3 51 -8 3 -5 18 -9 35 -9 36 0 37 -9 4 -40 -14
-13 -25 -28 -25 -32 0 -5 -11 -24 -25 -42 -28 -37 -90 -157 -87 -168 1 -5 -2
-8 -8 -8 -6 0 -9 -3 -8 -7 1 -5 -13 -38 -30 -76 -18 -37 -32 -74 -32 -82 0 -7
-5 -17 -11 -20 -5 -4 -8 -12 -6 -18 2 -7 0 -20 -5 -29 -4 -10 -10 -31 -12 -48
-4 -37 13 -48 50 -32 13 7 24 10 24 8 0 -3 -6 -31 -14 -63 -46 -184 -35 -399
22 -443 31 -25 48 -16 60 28 l9 37 1 -50 c2 -89 23 -160 87 -292 43 -88 83
-125 110 -103 8 6 11 18 8 26 -12 32 7 10 36 -40 17 -30 46 -70 65 -90 l35
-34 -72 -1 c-40 -1 -94 -3 -122 -6 -27 -2 -57 -5 -65 -6 -23 -1 -141 -39 -170
-54 -46 -25 -111 -98 -142 -164 -28 -59 -30 -70 -25 -141 7 -112 50 -183 115
-196 19 -4 48 -21 65 -38 61 -61 153 -91 253 -82 62 6 79 4 113 -13 68 -35
191 -29 340 15 31 10 63 18 71 20 30 6 145 36 160 42 8 3 21 4 28 3 8 -1 19 2
26 8 7 6 35 13 62 16 27 3 65 10 84 15 19 5 58 11 85 14 28 3 106 15 175 27
69 11 150 25 180 29 30 5 69 11 85 15 17 3 45 6 63 6 19 -1 39 2 45 6 6 4 25
8 42 10 16 1 40 5 52 8 l22 5 -19 -42 c-27 -60 -27 -165 1 -215 40 -74 99
-114 172 -118 38 -2 55 -9 80 -33 46 -43 156 -76 226 -68 30 4 60 11 67 17 8
6 27 5 58 -6 40 -14 123 -28 151 -26 46 3 95 11 120 20 85 29 154 50 185 56
19 4 40 10 45 14 6 4 23 8 39 9 16 1 34 6 40 11 6 5 47 16 91 25 44 8 91 18
105 21 14 3 48 10 75 15 28 5 65 14 84 19 19 6 37 8 42 6 4 -3 20 0 36 6 30
11 78 21 106 20 9 0 17 4 17 10 0 5 15 9 34 9 19 0 47 5 63 11 15 6 41 13 56
15 16 2 43 10 60 18 18 8 54 22 81 32 27 10 69 37 94 60 40 38 44 47 44 87
l-1 45 38 -5 c33 -5 41 -2 50 16 9 15 18 20 34 16 13 -4 41 -8 62 -9 22 -2 49
-7 60 -12 27 -12 355 -10 363 2 4 5 16 9 27 10 45 1 125 17 131 25 3 5 9 7 14
4 5 -3 35 8 68 25 33 16 62 30 65 30 8 0 109 66 154 99 18 14 33 30 33 37 0 6
17 15 38 19 20 4 43 12 51 18 8 7 16 11 18 10 9 -7 33 -2 45 9 7 7 39 31 71
52 64 43 168 161 164 186 -1 8 -6 18 -11 21 -5 4 10 24 33 45 131 120 157 151
217 256 41 73 47 93 33 119 -9 18 -12 18 -38 4 -27 -14 -29 -13 -24 5 3 11 9
20 14 20 4 0 13 16 20 35 7 19 17 35 21 35 4 0 8 6 8 13 0 6 6 23 13 37 17 33
50 121 53 140 1 8 5 26 8 40 14 61 18 87 31 215 4 33 7 62 7 65 6 70 -19 112
-45 76 -10 -13 -12 14 -12 131 0 82 -4 173 -8 203 -5 30 -11 68 -13 83 -2 16
-6 32 -8 36 -3 4 -8 30 -12 57 -3 27 -8 52 -10 56 -27 44 -23 387 5 461 6 15
10 49 10 76 -1 27 1 53 5 59 7 11 19 87 18 115 -1 9 3 17 7 17 4 0 8 10 8 23
1 12 6 41 11 63 13 61 6 203 -12 246 -16 37 -68 92 -109 115 -12 7 -39 12 -59
13 -30 0 -37 4 -40 22 -2 13 -15 29 -32 37 -33 15 -143 16 -161 1 -7 -6 -14
-7 -17 -4 -3 2 -29 -4 -57 -15 -119 -45 -281 -202 -378 -366 -36 -63 -73 -145
-79 -180 -2 -11 -8 -38 -14 -60 -22 -87 -33 -376 -17 -460 5 -22 10 -59 13
-81 2 -23 11 -60 19 -83 19 -55 30 -142 15 -121 -14 20 -3 -119 15 -180 36
-127 52 -404 26 -468 -6 -15 -12 -36 -14 -47 -7 -40 -29 -110 -38 -121 -6 -7
-12 -22 -14 -34 -2 -13 -11 -30 -19 -39 -7 -9 -23 -34 -34 -56 -46 -91 -227
-244 -255 -216 -7 7 -8 11 0 11 6 0 14 30 18 68 4 37 9 76 12 87 8 36 3 361
-6 411 -5 27 -6 50 -2 52 35 13 45 32 45 88 0 77 -7 131 -44 339 -11 63 -21
123 -21 130 0 2 -5 19 -10 37 -6 18 -12 44 -15 58 -7 37 -57 164 -66 168 -5 2
-8 12 -8 22 0 10 -5 22 -10 25 -9 6 -40 70 -40 83 0 3 10 -4 23 -15 32 -29 66
-45 83 -39 11 4 13 18 8 63 -3 32 -10 63 -14 68 -4 6 -10 24 -13 40 -8 48 -60
199 -71 207 -6 4 -7 8 -3 8 4 0 -4 20 -17 45 l-25 44 29 -6 c53 -10 50 38 -12
162 -32 65 -34 70 -90 161 -21 34 -38 66 -38 70 0 5 -20 36 -45 69 -25 33 -45
60 -45 61 0 1 17 -6 38 -16 49 -24 68 -11 46 32 -83 161 -226 291 -418 382
-76 36 -216 155 -183 156 22 0 22 29 0 78 -9 20 -17 39 -17 42 -1 3 -4 10 -8
16 -4 6 -22 39 -41 75 -19 35 -46 82 -61 103 -30 45 -27 56 9 32 63 -41 98 10
51 74 -14 19 -30 45 -35 58 -6 12 -15 22 -21 22 -6 0 -14 8 -17 18 -9 23 -59
94 -90 127 -23 24 -15 34 19 24 77 -22 125 3 93 48 -8 11 -11 23 -8 27 3 3 2
6 -4 6 -16 0 -98 147 -114 203 -7 26 -17 47 -21 47 -4 0 -8 7 -8 15 0 20 4 19
48 -8 41 -27 99 -29 113 -5 5 8 2 35 -6 63 -8 26 -15 61 -15 76 0 15 -4 31
-10 34 -5 3 -10 11 -10 16 0 6 19 -6 42 -25 47 -41 51 -42 68 -21 10 12 10 29
-1 82 -7 38 -14 77 -15 88 -1 11 -3 20 -4 20 -2 0 -10 34 -14 61 -1 11 -10 35
-19 52 -14 28 -7 47 8 23 3 -5 19 -12 35 -16 39 -9 64 14 56 53 -15 67 -17 78
-21 102 -11 66 -17 96 -22 110 -3 8 -8 24 -10 35 -3 21 -16 51 -39 97 -19 35
-18 44 4 26 27 -24 75 -45 94 -41 13 3 17 12 14 34 -1 16 -6 32 -9 36 -4 3 -7
14 -7 23 0 15 -58 133 -121 247 -33 60 -34 63 -14 63 24 0 18 21 -30 99 -25
40 -45 75 -45 78 0 3 -15 26 -33 52 -53 73 -53 70 0 69 27 0 55 1 64 1 45 3
21 79 -34 107 -17 10 -26 19 -19 21 20 7 14 30 -19 67 -31 35 -31 36 -18 93 7
32 17 64 22 71 5 7 7 15 4 19 -3 3 0 21 8 40 18 42 10 61 -14 39 -17 -15 -17
-12 -4 71 7 49 16 109 18 136 3 26 10 58 14 70 5 13 12 50 16 83 4 32 9 68 11
79 5 27 5 324 0 405 -5 75 -14 172 -21 215 -3 17 -7 48 -11 70 -15 107 -69
236 -115 281 -27 26 -37 29 -93 29 -55 0 -138 -24 -156 -45 -3 -3 -22 -14 -42
-23 -21 -10 -57 -32 -80 -50 -24 -18 -55 -40 -69 -49 -14 -9 -32 -23 -40 -30
-8 -7 -26 -21 -41 -31 -24 -15 -205 -163 -218 -177 -3 -3 -70 -66 -150 -140
-80 -73 -154 -142 -166 -154 -11 -12 -37 -32 -57 -46 -20 -14 -37 -28 -37 -32
0 -4 -7 -5 -15 -2 -8 4 -15 1 -15 -6 0 -7 -6 -6 -16 4 -8 9 -25 16 -37 16 -12
0 -44 7 -72 15 -50 16 -139 34 -185 39 -14 2 -38 6 -55 9 -41 9 -148 18 -275
23 -58 3 -112 5 -120 5 -34 2 -247 -11 -270 -17 -14 -3 -41 -7 -60 -9 -54 -6
-74 -10 -88 -19 -7 -4 -16 -6 -18 -3 -3 3 -25 -1 -50 -9 -44 -13 -46 -12 -76
14 -94 82 -165 146 -271 246 -22 20 -71 64 -110 99 -39 34 -78 69 -87 77 -9 8
-40 35 -70 60 -29 25 -65 56 -80 70 -16 14 -40 34 -56 45 -15 11 -32 25 -38
31 -6 6 -34 23 -61 38 -28 16 -54 31 -60 36 -14 10 -67 19 -85 13z m40 -146
c10 -4 9 -6 -6 -6 -14 -1 -24 7 -27 22 -5 19 -4 20 6 6 7 -9 19 -18 27 -22z
m3359 -21 c0 -7 -2 -6 -6 2 -2 6 -8 10 -12 8 -14 -9 -32 11 -25 29 7 17 9 17
26 -5 10 -12 18 -27 17 -34z m-59 20 c0 -3 -4 -8 -10 -11 -5 -3 -10 -1 -10 4
0 6 5 11 10 11 6 0 10 -2 10 -4z m-3340 -25 c0 -6 -4 -13 -10 -16 -5 -3 -10 1
-10 9 0 9 5 16 10 16 6 0 10 -4 10 -9z m3230 -6 c-7 -9 -15 -13 -19 -10 -3 3
1 10 9 15 21 14 24 12 10 -5z m-3180 -5 c0 -5 -2 -10 -4 -10 -3 0 -8 5 -11 10
-3 6 -1 10 4 10 6 0 11 -4 11 -10z m3286 -28 c-4 -3 -11 -1 -15 6 -4 7 -16 10
-27 6 -18 -7 -18 -6 0 8 17 14 22 14 34 1 8 -8 11 -17 8 -21z m35 11 c13 -16
12 -17 -3 -4 -17 13 -22 21 -14 21 2 0 10 -8 17 -17z m39 7 c0 -5 -4 -10 -10
-10 -5 0 -10 5 -10 10 0 6 5 10 10 10 6 0 10 -4 10 -10z m-3392 -41 c20 -32
10 -30 -16 2 -13 16 -17 27 -10 24 7 -3 19 -15 26 -26z m62 21 c0 -5 -8 -10
-17 -10 -15 0 -16 2 -3 10 19 12 20 12 20 0z m3195 -30 c-9 -16 -21 -30 -28
-29 -9 0 -9 2 1 6 6 2 12 10 12 17 0 11 19 36 27 36 2 0 -3 -13 -12 -30z
m-3278 -22 c1 -10 -3 -18 -9 -18 -5 0 -7 -7 -4 -16 4 -9 2 -13 -5 -8 -8 4 -9
-1 -4 -17 6 -20 5 -22 -6 -11 -12 11 -11 18 3 42 9 17 14 30 10 30 -4 0 -8 9
-9 20 -1 15 1 17 11 8 6 -6 13 -20 13 -30z m3163 38 c0 -3 -4 -8 -10 -11 -5
-3 -10 -1 -10 4 0 6 5 11 10 11 6 0 10 -2 10 -4z m65 -16 c-3 -5 -12 -10 -18
-10 -7 0 -6 4 3 10 19 12 23 12 15 0z m142 4 c-3 -3 -12 -4 -19 -1 -8 3 -5 6
6 6 11 1 17 -2 13 -5z m43 -8 c-7 -7 -13 -7 -20 0 -6 6 -3 10 10 10 13 0 16
-4 10 -10z m-56 -13 c10 4 13 1 9 -9 -6 -17 -15 -18 -31 -2 -10 10 -17 10 -32
0 -25 -15 -27 -4 -3 14 13 8 22 9 30 2 7 -6 19 -8 27 -5z m66 -18 c-7 -9 -15
-13 -18 -10 -3 2 1 11 8 20 7 9 15 13 18 10 3 -2 -1 -11 -8 -20z m-3355 -5 c3
-5 2 -10 -4 -10 -5 0 -13 5 -16 10 -3 6 -2 10 4 10 5 0 13 -4 16 -10z m3135 6
c0 -2 -8 -10 -17 -17 -16 -13 -17 -12 -4 4 13 16 21 21 21 13z m22 -18 c-7 -7
-12 -8 -12 -2 0 14 12 26 19 19 2 -3 -1 -11 -7 -17z m-3187 2 c3 -5 -1 -10 -9
-10 -9 0 -16 5 -16 10 0 6 4 10 9 10 6 0 13 -4 16 -10z m75 6 c0 -2 -7 -7 -16
-10 -8 -3 -12 -2 -9 4 6 10 25 14 25 6z m3160 0 c0 -9 -32 -36 -42 -36 -6 0 0
9 13 20 25 21 29 23 29 16z m-3180 -39 c11 -5 9 -6 -4 -4 -11 1 -21 9 -23 17
-3 10 -2 11 4 4 4 -6 15 -14 23 -17z m3090 8 c0 -2 -9 -3 -19 -2 -11 0 -18 5
-15 9 4 6 34 0 34 -7z m224 -22 c-6 -50 -12 -52 -12 -3 0 22 3 40 8 40 5 0 7
-17 4 -37z m27 14 c-10 -9 -11 -8 -5 6 3 10 9 15 12 12 3 -3 0 -11 -7 -18z
m-3246 -5 c-3 -3 -11 0 -18 7 -9 10 -8 11 6 5 10 -3 15 -9 12 -12z m3090 -2
c3 -5 1 -10 -4 -10 -6 0 -11 5 -11 10 0 6 2 10 4 10 3 0 8 -4 11 -10z m-3255
-4 c0 -2 -7 -7 -16 -10 -8 -3 -12 -2 -9 4 6 10 25 14 25 6z m195 -6 c3 -5 1
-10 -4 -10 -6 0 -11 5 -11 10 0 6 2 10 4 10 3 0 8 -4 11 -10z m-95 -20 c6 -11
9 -20 7 -20 -2 0 -12 9 -22 20 -10 11 -13 20 -7 20 6 0 16 -9 22 -20z m3234 5
c-25 -19 -38 -19 -22 0 7 8 19 14 27 15 11 0 9 -4 -5 -15z m102 -62 c-1 -1
-12 0 -24 4 -22 5 -25 30 -3 26 14 -4 14 14 0 23 -8 4 -7 9 2 15 11 6 16 -1
20 -29 4 -20 6 -38 5 -39z m-3446 47 c-6 -11 -13 -20 -16 -20 -2 0 0 9 6 20 6
11 13 20 16 20 2 0 0 -9 -6 -20z m-29 -3 c-6 -6 -7 -15 -2 -21 6 -7 3 -16 -5
-24 -12 -11 -14 -7 -14 21 0 24 5 34 15 34 11 0 12 -4 6 -10z m92 -8 c5 -3 -5
-6 -22 -5 -27 1 -29 3 -14 13 9 7 19 10 22 6 3 -4 10 -11 14 -14z m3169 0 c28
-17 29 -19 8 -14 -14 4 -32 13 -40 21 -21 20 -5 17 32 -7z m138 16 c0 -4 -7
-19 -15 -35 -13 -26 -18 -28 -45 -20 -19 5 -32 5 -36 -2 -4 -5 -19 -7 -35 -4
-17 3 -29 1 -33 -7 -3 -8 -5 -8 -5 -1 -1 6 6 17 14 24 12 10 15 10 15 0 0 -8
8 -10 23 -5 46 14 77 15 78 2 0 -6 5 -1 11 13 6 14 10 28 10 33 -1 4 3 7 8 7
6 0 10 -2 10 -5z m-3203 -19 c-3 -8 -1 -17 6 -20 7 -2 4 -5 -5 -5 -10 -1 -18
-6 -18 -12 0 -8 -4 -8 -15 1 -8 6 -18 9 -24 6 -5 -3 -11 0 -14 8 -6 16 24 17
36 1 8 -12 29 14 21 27 -3 4 0 8 6 8 7 0 10 -6 7 -14z m2973 9 c0 -2 -10 -10
-22 -16 -21 -11 -22 -11 -9 4 13 16 31 23 31 12z m52 -17 c7 -19 -2 -38 -17
-38 -18 0 -26 25 -12 39 14 14 24 14 29 -1z m-2985 -30 c-3 -8 -6 -5 -6 6 -1
11 2 17 5 13 3 -3 4 -12 1 -19z m2937 -3 c3 -8 1 -15 -4 -15 -6 0 -10 7 -10
15 0 8 2 15 4 15 2 0 6 -7 10 -15z m-3160 -10 c-4 -8 -13 -15 -22 -15 -13 0
-12 3 4 15 24 18 25 18 18 0z m3123 9 c-3 -3 -12 -4 -19 -1 -8 3 -5 6 6 6 11
1 17 -2 13 -5z m273 -14 c-29 -8 -40 -3 -21 10 8 4 21 5 30 2 12 -5 10 -8 -9
-12z m55 -1 c-4 -5 -1 -9 5 -9 6 0 9 -4 5 -9 -3 -5 0 -13 5 -16 11 -7 -16 -34
-34 -35 -6 0 -1 6 10 14 15 12 17 17 7 27 -15 15 -17 53 -3 44 6 -4 8 -11 5
-16z m-3420 1 c3 -5 1 -10 -4 -10 -6 0 -11 5 -11 10 0 6 2 10 4 10 3 0 8 -4
11 -10z m120 -37 c17 -11 18 -14 5 -23 -8 -5 -19 -10 -25 -10 -5 0 -4 4 4 9
19 12 4 31 -25 31 -13 0 -24 4 -24 9 0 11 36 2 65 -16z m2965 23 c0 -2 -8 -10
-17 -17 -16 -13 -17 -12 -4 4 13 16 21 21 21 13z m75 -22 c-17 -18 -31 -18
-16 -1 6 8 8 17 4 21 -4 4 0 4 10 1 14 -6 14 -9 2 -21z m80 -2 c-8 -8 -25 10
-19 20 4 6 9 5 15 -3 4 -7 6 -15 4 -17z m-3279 -2 c0 -11 -4 -20 -8 -20 -4 0
-5 -7 -2 -15 4 -8 1 -15 -6 -15 -20 0 -7 60 15 70 1 0 1 -9 1 -20z m21 -2 c-3
-8 -6 -5 -6 6 -1 11 2 17 5 13 3 -3 4 -12 1 -19z m68 2 c3 -5 -4 -6 -15 -3
-11 3 -22 9 -25 13 -3 5 4 6 15 3 11 -3 22 -9 25 -13z m3075 5 c-7 -9 -15 -13
-17 -11 -7 7 7 26 19 26 6 0 6 -6 -2 -15z m184 -7 c-6 -20 -5 -21 10 -9 9 7
16 9 16 5 0 -5 -9 -15 -20 -22 -18 -11 -20 -10 -20 11 0 22 7 37 17 37 3 0 1
-10 -3 -22z m83 7 c0 -8 -4 -15 -9 -15 -10 0 -11 14 -1 23 9 10 10 9 10 -8z
m-352 -5 c3 -5 -1 -10 -10 -10 -9 0 -13 5 -10 10 3 6 8 10 10 10 2 0 7 -4 10
-10z m-49 -15 c-11 -8 -24 -15 -30 -15 -5 0 -1 7 10 15 10 8 24 14 29 14 6 0
1 -6 -9 -14z m285 2 c-6 -8 -7 -18 -3 -23 4 -4 -1 -2 -10 5 -19 14 -25 26 -8
16 6 -3 10 -1 10 4 0 6 5 11 11 11 8 0 9 -4 0 -13z m-3286 -17 c3 -5 1 -10 -4
-10 -6 0 -11 5 -11 10 0 6 2 10 4 10 3 0 8 -4 11 -10z m3175 0 c0 -5 -5 -10
-11 -10 -5 0 -7 5 -4 10 3 6 8 10 11 10 2 0 4 -4 4 -10z m270 -10 c-24 -15
-36 -11 -14 4 10 8 21 12 24 10 2 -3 -2 -9 -10 -14z m-70 0 c0 -5 -10 -10 -22
-10 -19 0 -20 2 -8 10 19 13 30 13 30 0z m-165 -20 c-1 -11 -4 -22 -7 -25 -4
-5 -4 34 1 43 4 8 7 -1 6 -18z m-3185 -11 c0 -6 -4 -7 -10 -4 -5 3 -10 11 -10
16 0 6 5 7 10 4 6 -3 10 -11 10 -16z m3316 0 c22 -24 8 -42 -26 -36 -15 3 -32
1 -39 -6 -8 -8 -11 -8 -11 1 0 6 9 16 19 22 25 13 34 13 26 0 -3 -5 3 -10 14
-10 32 0 25 20 -9 26 -16 4 -28 10 -25 14 8 13 35 7 51 -11z m-3366 -4 c-13
-16 -4 -75 12 -75 6 0 7 7 4 16 -3 8 -2 12 4 9 20 -12 11 -36 -12 -33 -20 3
-23 10 -26 51 -3 38 0 47 14 47 13 0 14 -3 4 -15z m84 -6 c-3 -5 -10 -7 -15
-3 -5 3 -7 10 -3 15 3 5 10 7 15 3 5 -3 7 -10 3 -15z m66 -1 c0 -6 -6 -5 -15
2 -8 7 -15 14 -15 16 0 2 7 1 15 -2 8 -4 15 -11 15 -16z m3025 3 c-3 -6 -11
-11 -16 -11 -5 0 -4 6 3 14 14 16 24 13 13 -3z m235 3 c0 -8 -4 -12 -10 -9 -5
3 -10 10 -10 16 0 5 5 9 10 9 6 0 10 -7 10 -16z m71 -28 c1 -23 3 -54 5 -69 2
-24 1 -27 -12 -16 -12 10 -12 14 -2 21 10 8 10 11 0 15 -6 2 -9 10 -5 16 4 7
0 8 -13 3 -10 -4 -26 -9 -33 -10 -25 -4 -24 -25 2 -31 42 -11 91 -85 56 -85
-5 0 -7 4 -4 10 9 15 -25 60 -41 53 -8 -3 -14 0 -14 7 0 6 -4 8 -10 5 -5 -3
-10 -1 -10 5 0 7 -7 9 -17 6 -14 -6 -13 -2 4 16 12 13 21 28 20 33 -1 6 11 16
27 23 15 8 25 19 23 26 -3 7 1 13 9 13 10 0 14 -13 15 -41z m-381 24 c0 -5 -5
-10 -11 -10 -5 0 -7 5 -4 10 3 6 8 10 11 10 2 0 4 -4 4 -10z m175 0 c3 -5 1
-10 -4 -10 -6 0 -11 5 -11 10 0 6 2 10 4 10 3 0 8 -4 11 -10z m165 0 c0 -5 -5
-10 -11 -10 -5 0 -7 5 -4 10 3 6 8 10 11 10 2 0 4 -4 4 -10z m-3416 -9 c3 -5
-1 -11 -9 -14 -9 -4 -12 -1 -8 9 6 16 10 17 17 5z m201 -20 c-3 -6 -11 -11
-16 -11 -5 0 -4 6 3 14 14 16 24 13 13 -3z m-145 -6 c0 -8 -4 -15 -10 -15 -5
0 -10 7 -10 15 0 8 5 15 10 15 6 0 10 -7 10 -15z m80 3 c0 -11 -28 -10 -35 1
-3 6 4 9 15 8 11 -1 20 -5 20 -9z m3163 -23 c6 -6 10 -6 14 3 6 15 39 16 49 1
4 -8 0 -9 -15 -4 -22 7 -30 -10 -8 -18 6 -3 0 -6 -15 -6 -15 -1 -30 4 -33 9
-3 6 -15 10 -25 10 -10 0 -21 4 -24 8 -7 11 48 9 57 -3z m-3261 -30 c4 -20 2
-23 -8 -14 -7 6 -10 17 -7 25 7 20 10 18 15 -11z m3118 20 c0 -2 -10 -10 -22
-16 -21 -11 -22 -11 -9 4 13 16 31 23 31 12z m-3075 -25 c3 -5 1 -10 -4 -10
-6 0 -11 5 -11 10 0 6 2 10 4 10 3 0 8 -4 11 -10z m65 1 c0 -6 -4 -12 -8 -15
-5 -3 -9 1 -9 9 0 8 4 15 9 15 4 0 8 -4 8 -9z m3140 -16 c-7 -9 -15 -13 -17
-11 -7 7 7 26 19 26 6 0 6 -6 -2 -15z m-3298 -17 c-2 -10 -7 -18 -11 -18 -4 0
-7 8 -8 18 -1 10 4 19 11 19 8 0 11 -8 8 -19z m3198 12 c0 -5 -2 -10 -4 -10
-3 0 -8 5 -11 10 -3 6 -1 10 4 10 6 0 11 -4 11 -10z m-3071 -13 c8 -10 7 -14
-4 -14 -8 0 -15 6 -15 14 0 7 2 13 4 13 2 0 9 -6 15 -13z m3111 9 c0 -2 -7 -7
-16 -10 -8 -3 -12 -2 -9 4 6 10 25 14 25 6z m90 0 c0 -3 -4 -8 -10 -11 -5 -3
-10 -1 -10 4 0 6 5 11 10 11 6 0 10 -2 10 -4z m25 -13 c-11 -29 -11 -37 0 -38
6 -1 21 -6 34 -12 21 -8 22 -11 7 -16 -10 -4 -24 -1 -32 8 -8 8 -23 19 -32 25
-12 8 -14 13 -4 16 6 3 12 12 12 20 0 8 5 14 11 14 7 0 8 -7 4 -17z m43 -4
c11 0 12 -2 4 -6 -6 -2 -10 -9 -6 -14 3 -5 1 -9 -4 -9 -11 0 -22 25 -21 43 0
8 2 8 6 0 2 -7 12 -13 21 -14z m-3218 -9 c0 -5 -5 -10 -11 -10 -5 0 -7 5 -4
10 3 6 8 10 11 10 2 0 4 -4 4 -10z m3020 0 c8 -5 12 -11 10 -14 -3 -2 -14 2
-24 10 -22 15 -10 19 14 4z m85 -4 c7 3 15 1 18 -3 10 -17 -32 -12 -44 5 -11
14 -11 15 0 5 7 -6 19 -9 26 -7z m-3176 -27 l15 -24 -23 23 c-12 12 -27 19
-33 16 -7 -4 -8 -2 -4 5 11 17 26 10 45 -20z m-98 7 c-4 -6 -11 -18 -14 -26
-3 -9 -6 -5 -6 11 -1 16 4 26 14 26 9 0 11 -4 6 -11z m324 4 c3 -5 1 -10 -4
-10 -6 0 -11 5 -11 10 0 6 2 10 4 10 3 0 8 -4 11 -10z m-299 -26 c-4 -9 -9
-15 -11 -12 -3 3 -3 13 1 22 4 9 9 15 11 12 3 -3 3 -13 -1 -22z m3071 20 c-3
-3 -12 -4 -19 -1 -8 3 -5 6 6 6 11 1 17 -2 13 -5z m-2786 -21 c13 -17 13 -17
-6 -3 -11 8 -22 16 -24 17 -2 2 0 3 6 3 6 0 17 -8 24 -17z m2933 2 c17 -13 18
-15 3 -15 -9 0 -17 -5 -17 -11 0 -5 -5 -7 -11 -3 -8 4 -7 9 2 15 12 8 11 11
-1 19 -8 5 -10 10 -5 10 6 -1 19 -7 29 -15z m-3064 1 c0 -2 -7 -9 -15 -16 -13
-11 -14 -10 -9 4 5 14 24 23 24 12z m-120 -16 c0 -5 -4 -10 -10 -10 -5 0 -10
5 -10 10 0 6 5 10 10 10 6 0 10 -4 10 -10z m3230 0 c0 -5 8 -7 18 -3 14 5 15
3 4 -8 -10 -11 -15 -10 -29 4 -11 11 -13 17 -5 17 7 0 12 -4 12 -10z m170 -46
c-17 -20 -50 -18 -50 4 0 14 2 14 9 3 8 -12 12 -13 26 -1 9 7 14 19 11 26 -2
6 -2 15 2 19 13 13 14 -36 2 -51z m-3260 42 c0 -2 -7 -9 -15 -16 -13 -11 -14
-10 -9 4 5 14 24 23 24 12z m3220 -4 c0 -4 -9 -8 -20 -9 -11 -1 -18 2 -15 8 7
11 35 12 35 1z m-3407 -48 c7 1 9 1 5 -1 -5 -3 -8 -14 -9 -26 0 -21 -1 -21 -9
-2 -5 11 -8 34 -8 50 1 29 1 29 5 3 2 -15 10 -26 16 -24z m3161 33 c-3 -8 -12
-14 -21 -14 -13 0 -13 2 3 14 10 7 19 13 21 13 1 0 0 -6 -3 -13z m223 -31 c-2
-6 -10 -11 -18 -14 -12 -3 -12 -2 0 6 11 8 10 12 -8 21 -11 7 -21 16 -21 22 0
5 11 2 25 -8 13 -10 23 -22 22 -27z m-3152 5 c-6 -5 -25 10 -25 20 0 5 6 4 14
-3 8 -7 12 -15 11 -17z m3095 19 c0 -5 -2 -10 -4 -10 -3 0 -8 5 -11 10 -3 6
-1 10 4 10 6 0 11 -4 11 -10z m-360 -10 c0 -5 -5 -10 -11 -10 -5 0 -7 5 -4 10
3 6 8 10 11 10 2 0 4 -4 4 -10z m66 -8 c-10 -2 -22 0 -28 6 -6 6 0 7 19 4 21
-5 23 -7 9 -10z m-2965 -19 c-8 -15 -10 -15 -11 -2 0 17 10 32 18 25 2 -3 -1
-13 -7 -23z m3159 17 c0 -5 -5 -10 -11 -10 -5 0 -7 5 -4 10 3 6 8 10 11 10 2
0 4 -4 4 -10z m85 -8 c-3 -3 -11 0 -18 7 -9 10 -8 11 6 5 10 -3 15 -9 12 -12z
m-3198 -14 c-3 -8 -6 -5 -6 6 -1 11 2 17 5 13 3 -3 4 -12 1 -19z m41 8 c-7 -8
-15 -12 -17 -11 -5 6 10 25 20 25 5 0 4 -6 -3 -14z m3095 -12 c-10 -7 -22 -13
-28 -13 -5 0 -2 4 8 10 9 6 15 14 12 20 -3 5 1 6 10 3 14 -6 14 -8 -2 -20z
m-115 2 c-7 -8 -17 -12 -22 -9 -4 3 -2 9 5 14 22 13 31 11 17 -5z m322 -5 c0
-6 -4 -13 -10 -16 -5 -3 -10 1 -10 9 0 9 5 16 10 16 6 0 10 -4 10 -9z m-3005
-11 c3 -5 1 -10 -4 -10 -6 0 -11 5 -11 10 0 6 2 10 4 10 3 0 8 -4 11 -10z
m2845 1 c0 -5 -7 -11 -14 -14 -10 -4 -13 -1 -9 9 6 15 23 19 23 5z m-3230 -16
c-7 -8 -17 -15 -23 -15 -6 0 -2 7 9 15 25 19 30 19 14 0z m3250 -10 c0 -9 -9
-15 -22 -14 -17 1 -19 2 -5 6 9 2 17 9 17 14 0 5 2 9 5 9 3 0 5 -7 5 -15z
m-3282 -36 c2 -8 -4 -5 -14 6 -16 19 -16 19 -10 -8 4 -17 3 -26 -2 -23 -6 3
-12 19 -14 36 -4 28 -3 29 16 17 11 -8 22 -20 24 -28z m3414 14 c-5 -24 -6
-25 -12 -8 -6 16 2 33 16 35 1 0 -1 -12 -4 -27z m-232 3 c0 -2 -7 -7 -16 -10
-8 -3 -12 -2 -9 4 6 10 25 14 25 6z m-3060 -26 c0 -11 -4 -20 -9 -20 -5 0 -7
9 -4 20 3 11 7 20 9 20 2 0 4 -9 4 -20z m3096 -4 c0 -14 -5 -21 -9 -17 -4 4
-5 15 -1 24 9 24 12 21 10 -7z m64 -8 c0 -5 -9 -3 -20 4 -11 7 -20 16 -20 20
0 5 9 3 20 -4 11 -7 20 -16 20 -20z m30 22 c0 -5 -5 -10 -11 -10 -5 0 -7 5 -4
10 3 6 8 10 11 10 2 0 4 -4 4 -10z m-3241 -35 c16 5 21 2 21 -12 0 -10 -4 -14
-8 -8 -10 14 -55 15 -65 1 -6 -7 -7 -4 -3 7 3 9 1 17 -5 17 -6 0 -7 5 -4 11 5
7 13 5 25 -6 12 -11 26 -14 39 -10z m3301 13 c0 -8 -14 -13 -36 -14 -36 -1
-36 10 1 19 33 8 35 8 35 -5z m-120 -8 c0 -5 -2 -10 -4 -10 -3 0 -8 5 -11 10
-3 6 -1 10 4 10 6 0 11 -4 11 -10z m-457 -7 c-7 -2 -19 -2 -25 0 -7 3 -2 5 12
5 14 0 19 -2 13 -5z m-2803 -13 c0 -5 -4 -10 -9 -10 -6 0 -13 5 -16 10 -3 6 1
10 9 10 9 0 16 -4 16 -10z m3420 -1 c0 -15 -18 -19 -23 -6 -3 8 1 14 9 14 8 0
14 -4 14 -8z m-247 -14 c-3 -9 -8 -14 -10 -11 -3 3 -2 9 2 15 9 16 15 13 8 -4z
m87 0 c0 -8 -2 -15 -4 -15 -2 0 -13 -3 -23 -6 -17 -5 -17 -5 1 6 15 10 16 14
5 21 -11 7 -10 9 4 9 9 0 17 -7 17 -15z m-3115 -5 c3 -5 1 -10 -4 -10 -6 0
-11 5 -11 10 0 6 2 10 4 10 3 0 8 -4 11 -10z m42 4 c-3 -3 -12 -4 -19 -1 -8 3
-5 6 6 6 11 1 17 -2 13 -5z m3187 -3 c4 -5 -4 -7 -15 -4 -15 4 -27 0 -35 -12
-15 -20 -18 -16 -8 9 7 17 49 22 58 7z m-3371 -14 c3 -8 1 -20 -5 -28 -8 -11
-9 -11 -5 2 3 9 0 22 -6 28 -8 8 -8 11 0 11 6 0 13 -6 16 -13z m47 -7 c13 -8
12 -10 -4 -10 -12 0 -16 -5 -12 -16 3 -8 2 -12 -3 -9 -10 6 -11 45 -1 45 3 0
12 -5 20 -10z m3090 6 c0 -3 -4 -8 -10 -11 -5 -3 -10 -1 -10 4 0 6 5 11 10 11
6 0 10 -2 10 -4z m266 -28 c-6 -30 -20 -47 -38 -48 -5 0 -7 3 -7 8 4 22 -3 31
-18 25 -15 -5 -16 -4 -5 8 11 12 15 11 26 -3 17 -23 22 -23 29 2 4 14 0 20
-11 21 -14 0 -13 2 3 9 11 5 22 9 24 9 2 1 1 -13 -3 -31z m-223 7 c-3 -9 -8
-14 -10 -11 -3 3 -2 9 2 15 9 16 15 13 8 -4z m-3108 -14 c-3 -5 5 -17 17 -25
12 -9 19 -19 15 -22 -4 -4 -15 4 -26 17 -23 27 -26 39 -10 39 5 0 8 -4 4 -9z
m40 -9 c-3 -3 -11 0 -18 7 -9 10 -8 11 6 5 10 -3 15 -9 12 -12z m63 4 c-7 -8
-15 -12 -17 -11 -5 6 10 25 20 25 5 0 4 -6 -3 -14z m3113 -18 c5 1 9 -2 9 -8
0 -5 -4 -10 -9 -10 -14 0 -41 29 -41 43 0 7 8 3 16 -8 8 -11 20 -19 25 -17z
m-3111 -13 c-7 -9 -15 -13 -19 -10 -3 3 1 10 9 15 21 14 24 12 10 -5z m-100
-27 c0 -19 -16 -5 -17 14 -2 18 0 20 7 8 5 -8 10 -18 10 -22z m3044 20 c-3 -4
-12 -8 -20 -8 -8 0 -14 4 -14 8 0 4 9 8 19 8 11 0 17 -4 15 -8z m126 -1 c0 -2
-12 -14 -27 -28 l-26 -24 19 27 c16 23 34 36 34 25z m90 -1 c0 -2 -7 -7 -16
-10 -8 -3 -12 -2 -9 4 6 10 25 14 25 6z m-3190 -10 c0 -2 -7 -7 -16 -10 -8 -3
-12 -2 -9 4 6 10 25 14 25 6z m2995 -16 c3 -6 -1 -7 -9 -4 -18 7 -21 14 -7 14
6 0 13 -4 16 -10z m125 1 c0 -5 -7 -12 -16 -15 -14 -5 -15 -4 -4 9 14 17 20
19 20 6z m111 2 c0 -5 3 -19 5 -33 2 -15 -3 -35 -11 -45 -16 -19 -16 -19 -5 3
6 13 7 22 1 22 -5 0 -12 -9 -16 -19 -7 -22 -55 -35 -55 -15 0 7 6 11 14 8 7
-3 21 3 31 12 15 16 16 19 2 29 -9 7 -12 16 -8 24 6 9 10 7 14 -8 3 -12 10
-21 17 -21 6 0 8 5 3 13 -11 18 -12 37 -2 37 5 0 9 -3 10 -7z m-3331 -18 c0
-12 -19 -12 -23 0 -4 9 -1 12 9 8 7 -3 14 -7 14 -8z m3048 -10 c-3 -3 -9 2
-12 12 -6 14 -5 15 5 6 7 -7 10 -15 7 -18z m-28 5 c0 -5 -5 -10 -11 -10 -5 0
-7 5 -4 10 3 6 8 10 11 10 2 0 4 -4 4 -10z m-2936 -16 c3 -8 2 -12 -4 -9 -6 3
-10 10 -10 16 0 14 7 11 14 -7z m3143 0 c-10 -10 -76 -13 -82 -5 -2 5 11 7 30
5 19 -1 38 2 41 8 3 5 9 7 12 4 3 -3 2 -9 -1 -12z m-3224 -24 c3 -11 1 -18 -4
-14 -5 3 -9 12 -9 20 0 20 7 17 13 -6z m47 10 c0 -5 -2 -10 -4 -10 -3 0 -8 5
-11 10 -3 6 -1 10 4 10 6 0 11 -4 11 -10z m2980 6 c0 -3 -4 -8 -10 -11 -5 -3
-10 -1 -10 4 0 6 5 11 10 11 6 0 10 -2 10 -4z m50 -6 c0 -5 -10 -10 -22 -9
-22 0 -22 1 -3 9 11 5 21 9 23 9 1 1 2 -3 2 -9z m165 -10 c-3 -5 -11 -10 -16
-10 -6 0 -7 5 -4 10 3 6 11 10 16 10 6 0 7 -4 4 -10z m-3165 -10 c0 -5 -2 -10
-4 -10 -3 0 -8 5 -11 10 -3 6 -1 10 4 10 6 0 11 -4 11 -10z m3041 -32 c-11
-11 -13 -10 -8 5 4 9 2 17 -3 17 -6 0 -10 5 -10 12 0 8 6 6 17 -5 14 -14 15
-19 4 -29z m-66 22 c3 -6 -1 -7 -9 -4 -18 7 -21 14 -7 14 6 0 13 -4 16 -10z
m35 0 c0 -5 -2 -10 -4 -10 -3 0 -8 5 -11 10 -3 6 -1 10 4 10 6 0 11 -4 11 -10z
m115 0 c3 -5 -1 -10 -9 -10 -9 0 -16 5 -16 10 0 6 4 10 9 10 6 0 13 -4 16 -10z
m-3171 -11 c-3 -6 0 -15 7 -20 11 -7 10 -9 -3 -9 -11 0 -18 8 -18 20 0 11 5
20 11 20 5 0 7 -5 3 -11z m3205 -2 c-2 -1 -13 -9 -24 -17 -19 -14 -19 -14 -6
3 7 9 18 17 24 17 6 0 8 -1 6 -3z m-52 -29 c-3 -8 -6 -5 -6 6 -1 11 2 17 5 13
3 -3 4 -12 1 -19z m128 0 c-19 -62 -45 -108 -62 -108 -15 0 -14 2 5 16 23 16
32 41 10 28 -7 -5 -3 5 10 20 12 16 22 37 22 47 0 11 5 19 11 19 6 0 8 -9 4
-22z m-3235 2 c0 -5 -5 -10 -11 -10 -5 0 -7 5 -4 10 3 6 8 10 11 10 2 0 4 -4
4 -10z m3200 -11 c0 -11 -4 -18 -10 -14 -5 3 -7 12 -3 20 7 21 13 19 13 -6z
m-240 -3 c0 -3 -4 -8 -10 -11 -5 -3 -10 -1 -10 4 0 6 5 11 10 11 6 0 10 -2 10
-4z m177 -12 c-3 -3 -12 -4 -19 -1 -8 3 -5 6 6 6 11 1 17 -2 13 -5z m-107 -20
c0 -8 -5 -12 -10 -9 -6 4 -8 11 -5 16 9 14 15 11 15 -7z m80 1 c0 -2 -9 -3
-19 -2 -11 0 -18 5 -15 9 4 6 34 0 34 -7z m60 1 c0 -2 -9 -6 -20 -9 -11 -3
-18 -1 -14 4 5 9 34 13 34 5z m-180 -49 c0 -2 -9 -12 -20 -22 -24 -21 -27 -14
-4 9 15 15 24 20 24 13z m139 -37 c-6 -16 -16 -30 -21 -30 -6 0 -6 6 2 15 6 8
9 18 6 24 -3 5 0 12 6 14 7 3 14 6 15 6 1 1 -3 -12 -8 -29z m51 -2 c0 -4 -4
-8 -9 -8 -6 0 -12 4 -15 8 -3 5 1 9 9 9 8 0 15 -4 15 -9z m-26 -43 c-9 -14
-20 -25 -25 -25 -5 0 1 11 13 25 12 14 23 25 25 25 2 0 -4 -11 -13 -25z
m-2623 -17 c11 -21 11 -22 -4 -9 -10 7 -17 17 -17 22 0 15 9 10 21 -13z m2540
-21 c-10 -9 -11 -8 -5 6 3 10 9 15 12 12 3 -3 0 -11 -7 -18z m-2551 -21 c0 -3
-4 -8 -10 -11 -5 -3 -10 -1 -10 4 0 6 5 11 10 11 6 0 10 -2 10 -4z m2583 -3
c-7 -2 -19 -2 -25 0 -7 3 -2 5 12 5 14 0 19 -2 13 -5z m-2484 -117 c-2 -27 -2
-28 -6 -6 -3 14 -10 31 -15 38 -8 9 -7 11 6 6 10 -4 16 -17 15 -38z m-244
-134 c-3 -3 -11 0 -18 7 -9 10 -8 11 6 5 10 -3 15 -9 12 -12z m335 8 c0 -5 -2
-10 -4 -10 -3 0 -8 5 -11 10 -3 6 -1 10 4 10 6 0 11 -4 11 -10z m-135 -969 c3
-6 -3 -9 -14 -8 -11 0 -17 5 -15 9 7 11 22 10 29 -1z m26 -28 c-12 -20 -14
-14 -5 12 4 9 9 14 11 11 3 -2 0 -13 -6 -23z m34 17 c3 -5 1 -10 -4 -10 -6 0
-11 5 -11 10 0 6 2 10 4 10 3 0 8 -4 11 -10z m-182 -25 c-3 -9 -8 -14 -10 -11
-3 3 -2 9 2 15 9 16 15 13 8 -4z m-158 -5 c3 -5 1 -10 -4 -10 -6 0 -11 5 -11
10 0 6 2 10 4 10 3 0 8 -4 11 -10z m452 -48 c-3 -17 -1 -22 10 -18 8 3 11 1 8
-4 -3 -6 -12 -10 -19 -10 -17 0 -51 38 -43 47 4 4 14 -2 22 -13 8 -10 15 -14
15 -7 0 22 -12 43 -27 43 -8 0 -11 5 -8 11 12 18 47 -23 42 -49z m-274 33 c-3
-9 -8 -14 -10 -11 -3 3 -2 9 2 15 9 16 15 13 8 -4z m67 5 c12 -8 11 -10 -7
-10 -13 0 -23 5 -23 10 0 13 11 13 30 0z m110 0 c0 -5 -8 -10 -17 -10 -15 0
-16 2 -3 10 19 12 20 12 20 0z m-51 -27 c-7 -10 -14 -20 -16 -22 -1 -2 -1 6 0
18 1 11 8 21 15 21 12 0 12 -3 1 -17z m-74 -13 c3 -5 2 -10 -4 -10 -5 0 -13 5
-16 10 -3 6 -2 10 4 10 5 0 13 -4 16 -10z m92 -12 c-3 -8 -6 -5 -6 6 -1 11 2
17 5 13 3 -3 4 -12 1 -19z m-82 -18 c-3 -5 -12 -10 -18 -10 -7 0 -6 4 3 10 19
12 23 12 15 0z m76 -41 c-5 -13 -10 -18 -10 -11 -1 6 -7 12 -15 12 -8 0 -17 4
-20 9 -3 4 6 6 19 3 16 -3 25 0 25 9 0 7 2 10 5 7 3 -3 1 -16 -4 -29z m-361
17 c0 -3 -4 -8 -10 -11 -5 -3 -10 -1 -10 4 0 6 5 11 10 11 6 0 10 -2 10 -4z
m31 -23 c13 -16 12 -17 -3 -4 -10 7 -18 15 -18 17 0 8 8 3 21 -13z m129 -7 c0
-3 -4 -8 -10 -11 -5 -3 -10 -1 -10 4 0 6 5 11 10 11 6 0 10 -2 10 -4z m-105
-25 c-3 -6 -14 -10 -23 -10 -15 1 -15 2 1 6 9 2 17 9 17 15 0 6 3 9 6 5 3 -3
3 -10 -1 -16z m62 3 c-3 -3 -12 -4 -19 -1 -8 3 -5 6 6 6 11 1 17 -2 13 -5z
m217 -9 c3 -8 1 -15 -4 -15 -6 0 -10 7 -10 15 0 8 2 15 4 15 2 0 6 -7 10 -15z
m316 11 c0 -3 -4 -8 -10 -11 -5 -3 -10 -1 -10 4 0 6 5 11 10 11 6 0 10 -2 10
-4z m-522 -30 c-7 -8 -16 -12 -21 -9 -11 7 2 23 19 23 12 0 12 -2 2 -14z m568
7 c-10 -10 -46 -11 -40 -1 3 4 15 8 26 8 12 0 18 -3 14 -7z m55 -26 c-10 -9
-11 -8 -5 6 3 10 9 15 12 12 3 -3 0 -11 -7 -18z m-726 3 c13 -6 15 -9 5 -9 -8
0 -22 4 -30 9 -18 12 -2 12 25 0z m123 -10 c-7 -10 -14 -18 -15 -16 -6 6 9 36
18 36 5 0 4 -9 -3 -20z m396 6 c-10 -8 -21 -12 -24 -10 -5 6 21 24 34 24 6 0
1 -6 -10 -14z m-457 -21 c0 -19 -27 -29 -41 -15 -8 8 -6 9 7 5 12 -5 17 -2 17
9 0 9 4 16 8 16 5 0 9 -7 9 -15z m-110 -1 c-3 -3 -12 -4 -19 -1 -8 3 -5 6 6 6
11 1 17 -2 13 -5z m268 -12 c-3 -3 -11 0 -18 7 -9 10 -8 11 6 5 10 -3 15 -9
12 -12z m507 -4 c-7 -7 -12 -8 -12 -2 0 14 12 26 19 19 2 -3 -1 -11 -7 -17z
m-331 3 c-7 -5 -11 -14 -7 -20 5 -7 1 -9 -8 -5 -19 7 -21 20 -3 27 20 9 33 7
18 -2z m190 -4 c-6 -8 -9 -16 -6 -18 2 -3 -5 -5 -16 -6 -19 -2 -18 -1 3 17 27
23 35 25 19 7z m-691 -7 c0 -5 -4 -10 -9 -10 -6 0 -13 5 -16 10 -3 6 1 10 9
10 9 0 16 -4 16 -10z m570 -4 c0 -4 7 -6 15 -2 8 3 15 1 15 -3 0 -5 -7 -11
-15 -15 -8 -3 -15 -1 -15 4 0 6 -9 10 -19 10 -11 0 -22 3 -24 8 -3 4 6 7 19 7
13 0 24 -4 24 -9z m70 10 c0 -2 -7 -7 -16 -10 -8 -3 -12 -2 -9 4 6 10 25 14
25 6z m82 -21 c3 -14 1 -25 -3 -25 -5 0 -9 11 -9 25 0 14 2 25 4 25 2 0 6 -11
8 -25z m1648 10 c0 -8 -2 -15 -4 -15 -2 0 -6 7 -10 15 -3 8 -1 15 4 15 6 0 10
-7 10 -15z m-2295 -5 c3 -6 -1 -7 -9 -4 -18 7 -21 14 -7 14 6 0 13 -4 16 -10z
m143 -10 c3 -12 2 -12 -8 -3 -7 6 -18 9 -25 7 -7 -3 -16 0 -20 6 -5 8 2 10 21
8 15 -2 29 -10 32 -18z m544 5 c0 -5 -5 -11 -11 -13 -6 -2 -11 4 -11 13 0 9 5
15 11 13 6 -2 11 -8 11 -13z m248 5 c0 -5 -5 -10 -11 -10 -5 0 -7 5 -4 10 3 6
8 10 11 10 2 0 4 -4 4 -10z m-726 -33 c4 4 4 0 1 -8 -6 -17 -55 -15 -55 2 0 5
7 6 15 3 8 -4 15 -1 15 5 0 6 -5 11 -11 11 -5 0 -7 5 -3 11 4 8 11 4 18 -10 7
-12 15 -18 20 -14z m176 29 c0 -3 -4 -8 -10 -11 -5 -3 -10 -1 -10 4 0 6 5 11
10 11 6 0 10 -2 10 -4z m390 -6 c-20 -13 -33 -13 -25 0 3 6 14 10 23 10 15 0
15 -2 2 -10z m-699 -9 c-22 -14 6 -24 30 -10 17 9 20 8 13 -3 -5 -7 -7 -22 -6
-33 2 -18 2 -19 -8 -2 -6 9 -18 17 -25 17 -8 0 -15 2 -15 4 0 2 -3 11 -6 20
-4 11 0 16 12 16 15 0 16 -2 5 -9z m349 -12 c0 -5 5 -7 10 -4 6 3 10 1 10 -4
0 -13 -3 -13 -24 -5 -18 7 -22 24 -6 24 6 0 10 -5 10 -11z m283 -14 c-7 -21
-13 -19 -13 6 0 11 4 18 10 14 5 -3 7 -12 3 -20z m-663 11 c0 -2 -7 -6 -15
-10 -8 -3 -15 -1 -15 4 0 6 7 10 15 10 8 0 15 -2 15 -4z m466 -5 c-9 -14 -44
-20 -49 -7 -3 6 8 12 25 13 16 1 26 -2 24 -6z m37 -21 c-10 -11 -21 -20 -26
-20 -4 0 -3 9 3 20 6 11 17 20 25 20 12 0 12 -4 -2 -20z m-163 -5 c0 -8 -4
-15 -10 -15 -5 0 -7 7 -4 15 4 8 8 15 10 15 2 0 4 -7 4 -15z m220 5 c0 -5 -7
-10 -16 -10 -8 0 -12 5 -9 10 3 6 10 10 16 10 5 0 9 -4 9 -10z m37 -10 c-1
-11 -5 -20 -9 -20 -10 0 -10 4 -2 24 8 22 13 20 11 -4z m-592 0 c-27 -12 -35
-12 -35 0 0 6 12 10 28 9 24 0 25 -1 7 -9z m390 -10 c-10 -11 -22 -20 -27 -20
-10 0 24 38 36 39 5 1 1 -8 -9 -19z m302 0 c1 -16 -1 -17 -12 -7 -11 10 -8 19
10 27 1 0 1 -9 2 -20z m-587 0 c-8 -5 -19 -10 -25 -10 -5 0 -3 5 5 10 8 5 20
10 25 10 6 0 3 -5 -5 -10z m120 0 c-20 -13 -33 -13 -25 0 3 6 14 10 23 10 15
0 15 -2 2 -10z m550 -10 c-24 -15 -36 -11 -14 4 10 8 21 12 24 10 2 -3 -2 -9
-10 -14z m-350 0 c0 -5 -4 -10 -10 -10 -5 0 -10 5 -10 10 0 6 5 10 10 10 6 0
10 -4 10 -10z m114 1 c4 -5 -4 -7 -16 -3 -16 4 -19 2 -13 -8 5 -9 4 -11 -4 -6
-6 4 -9 12 -6 17 8 12 32 12 39 0z m-54 -21 c0 -5 -9 -6 -20 -3 -11 3 -17 9
-15 14 7 10 35 1 35 -11z m-340 1 c0 -5 -7 -12 -16 -15 -14 -5 -15 -4 -4 9 14
17 20 19 20 6z m63 -21 c-10 -18 -23 -28 -32 -25 -7 3 -20 0 -29 -7 -13 -12
-14 -11 -2 9 10 15 18 19 26 12 8 -6 17 -2 28 16 23 35 31 31 9 -5z m130 16
c4 -10 1 -13 -9 -9 -7 3 -14 9 -14 14 0 14 17 10 23 -5z m334 8 c-3 -3 -12 -4
-19 -1 -8 3 -5 6 6 6 11 1 17 -2 13 -5z m-613 -19 c8 -9 18 -15 21 -15 14 3
29 -8 22 -16 -4 -5 -12 -3 -16 5 -5 7 -10 12 -12 11 -7 -3 -59 19 -59 25 0 11
29 4 44 -10z m376 5 c0 -5 -8 -10 -17 -10 -15 0 -16 2 -3 10 19 12 20 12 20 0z
m175 0 c3 -5 1 -10 -4 -10 -6 0 -11 5 -11 10 0 6 2 10 4 10 3 0 8 -4 11 -10z
m-52 -7 c-7 -2 -13 -12 -13 -21 0 -14 -2 -14 -9 -3 -5 7 -14 10 -20 7 -6 -4
-8 -12 -5 -18 4 -7 2 -8 -5 -4 -6 4 -9 12 -5 17 7 11 43 28 59 28 6 -1 4 -3
-2 -6z m204 1 c-3 -3 -12 -4 -19 -1 -8 3 -5 6 6 6 11 1 17 -2 13 -5z m-119
-18 c-7 -8 -15 -12 -17 -11 -5 6 10 25 20 25 5 0 4 -6 -3 -14z m-271 -2 c-3
-3 -12 -4 -19 -1 -8 3 -5 6 6 6 11 1 17 -2 13 -5z m103 -4 c0 -5 -4 -10 -10
-10 -5 0 -10 5 -10 10 0 6 5 10 10 10 6 0 10 -4 10 -10z m205 -19 c0 -16 -3
-27 -7 -24 -13 7 -7 53 6 53 1 0 1 -13 1 -29z m-605 -7 c0 -2 -9 0 -20 6 -11
6 -20 13 -20 16 0 2 9 0 20 -6 11 -6 20 -13 20 -16z m674 11 c-4 -8 -10 -15
-15 -15 -5 0 -9 7 -9 15 0 8 7 15 15 15 9 0 12 -6 9 -15z m-639 -15 c3 -5 1
-10 -4 -10 -6 0 -11 5 -11 10 0 6 2 10 4 10 3 0 8 -4 11 -10z m45 -5 c-7 -8
-17 -15 -23 -15 -6 0 -2 7 9 15 25 19 30 19 14 0z m235 4 c11 -16 1 -19 -13
-3 -7 8 -8 14 -3 14 5 0 13 -5 16 -11z m192 5 c-3 -3 -12 -4 -19 -1 -8 3 -5 6
6 6 11 1 17 -2 13 -5z m138 -14 c3 -6 -1 -7 -9 -4 -18 7 -21 14 -7 14 6 0 13
-4 16 -10z m57 -12 c-7 -7 -12 -8 -12 -2 0 14 12 26 19 19 2 -3 -1 -11 -7 -17z
m-257 2 c3 -6 -1 -7 -9 -4 -18 7 -21 14 -7 14 6 0 13 -4 16 -10z m35 -10 c0
-5 -2 -10 -4 -10 -3 0 -8 5 -11 10 -3 6 -1 10 4 10 6 0 11 -4 11 -10z m143
-13 c-3 -4 -11 -6 -18 -3 -7 2 -16 -2 -19 -10 -6 -16 -36 -20 -36 -4 0 5 8 6
17 3 12 -5 15 -2 10 10 -5 14 -1 17 23 15 16 -1 26 -6 23 -11z m-178 -7 c3 -5
-1 -10 -10 -10 -9 0 -13 5 -10 10 3 6 8 10 10 10 2 0 7 -4 10 -10z m90 0 c3
-5 1 -10 -4 -10 -6 0 -11 5 -11 10 0 6 2 10 4 10 3 0 8 -4 11 -10z m1125 -10
c0 -5 -2 -10 -4 -10 -3 0 -8 5 -11 10 -3 6 -1 10 4 10 6 0 11 -4 11 -10z
m-1030 -24 c0 -2 -7 -7 -16 -10 -8 -3 -12 -2 -9 4 6 10 25 14 25 6z m107 -12
c-16 -9 -31 -13 -34 -10 -3 3 5 10 18 15 37 15 47 12 16 -5z m897 -10 c3 -8 2
-12 -4 -9 -6 3 -10 10 -10 16 0 14 7 11 14 -7z m203 -6 c-3 -8 -6 -5 -6 6 -1
11 2 17 5 13 3 -3 4 -12 1 -19z m-1312 -8 c3 -5 1 -10 -4 -10 -6 0 -11 5 -11
10 0 6 2 10 4 10 3 0 8 -4 11 -10z m1025 -20 c0 -5 -2 -10 -4 -10 -3 0 -8 5
-11 10 -3 6 -1 10 4 10 6 0 11 -4 11 -10z m350 0 c0 -5 -2 -10 -4 -10 -3 0 -8
5 -11 10 -3 6 -1 10 4 10 6 0 11 -4 11 -10z m-1490 -24 c0 -2 -7 -9 -15 -16
-12 -10 -15 -10 -15 4 0 9 7 16 15 16 8 0 15 -2 15 -4z m-137 -13 c-7 -2 -19
-2 -25 0 -7 3 -2 5 12 5 14 0 19 -2 13 -5z m52 -3 c3 -6 -1 -7 -9 -4 -18 7
-21 14 -7 14 6 0 13 -4 16 -10z m130 -30 c-3 -5 -13 -10 -21 -10 -8 0 -14 -5
-14 -12 0 -6 -3 -8 -7 -4 -5 4 1 14 11 22 23 16 40 19 31 4z m132 4 c-3 -3
-12 -4 -19 -1 -8 3 -5 6 6 6 11 1 17 -2 13 -5z m183 -4 c0 -5 -5 -10 -11 -10
-5 0 -7 5 -4 10 3 6 8 10 11 10 2 0 4 -4 4 -10z m-505 -19 c-3 -6 -17 -11 -31
-11 -13 0 -24 -5 -24 -12 0 -6 -2 -9 -5 -6 -14 13 8 35 31 30 15 -3 24 0 24 9
0 7 3 10 6 6 3 -3 3 -10 -1 -16z m67 -3 c-7 -7 -12 -8 -12 -2 0 14 12 26 19
19 2 -3 -1 -11 -7 -17z m1473 -6 c-3 -3 -11 0 -18 7 -9 10 -8 11 6 5 10 -3 15
-9 12 -12z m-1506 -11 c7 -5 12 -14 9 -21 -2 -7 -10 -4 -22 9 -19 21 -12 28
13 12z m51 -11 c0 -5 -4 -10 -10 -10 -5 0 -10 5 -10 10 0 6 5 10 10 10 6 0 10
-4 10 -10z m80 -10 c0 -5 -2 -10 -4 -10 -3 0 -8 5 -11 10 -3 6 -1 10 4 10 6 0
11 -4 11 -10z m120 -10 c0 -5 -7 -7 -15 -4 -8 4 -15 8 -15 10 0 2 7 4 15 4 8
0 15 -4 15 -10z m45 -20 c3 -5 2 -10 -4 -10 -5 0 -13 5 -16 10 -3 6 -2 10 4
10 5 0 13 -4 16 -10z m-315 -15 c-7 -8 -20 -15 -29 -15 -11 0 -8 5 9 14 33 19
35 19 20 1z m15 -25 c3 -5 -1 -10 -10 -10 -9 0 -13 5 -10 10 3 6 8 10 10 10 2
0 7 -4 10 -10z m220 0 c3 -5 1 -10 -4 -10 -6 0 -11 5 -11 10 0 6 2 10 4 10 3
0 8 -4 11 -10z m40 0 c3 -5 2 -10 -4 -10 -5 0 -13 5 -16 10 -3 6 -2 10 4 10 5
0 13 -4 16 -10z m773 -25 c-3 -3 -9 2 -12 12 -6 14 -5 15 5 6 7 -7 10 -15 7
-18z m-868 1 c0 -3 -4 -8 -10 -11 -5 -3 -10 -1 -10 4 0 6 5 11 10 11 6 0 10
-2 10 -4z m810 -86 c0 -5 -5 -10 -11 -10 -5 0 -7 5 -4 10 3 6 8 10 11 10 2 0
4 -4 4 -10z m425 -110 c3 -5 1 -10 -4 -10 -6 0 -11 5 -11 10 0 6 2 10 4 10 3
0 8 -4 11 -10z m-485 -14 c0 -2 -7 -7 -16 -10 -8 -3 -12 -2 -9 4 6 10 25 14
25 6z m-1080 -180 c0 -2 -7 -7 -16 -10 -8 -3 -12 -2 -9 4 6 10 25 14 25 6z
m594 -144 c3 -5 -1 -9 -9 -9 -8 0 -12 4 -9 9 3 4 7 8 9 8 2 0 6 -4 9 -8z
m-214 -67 c-7 -9 -15 -13 -17 -11 -7 7 7 26 19 26 6 0 6 -6 -2 -15z m63 -10
c-3 -9 -8 -14 -10 -11 -3 3 -2 9 2 15 9 16 15 13 8 -4z m397 5 c-8 -5 -19 -10
-25 -10 -5 0 -3 5 5 10 8 5 20 10 25 10 6 0 3 -5 -5 -10z m-1551 -26 c31 -3
70 -6 86 -8 17 -2 59 -7 95 -10 36 -4 92 -11 124 -16 32 -5 62 -7 67 -5 4 3
10 1 13 -3 3 -5 37 -8 76 -7 38 1 70 -1 70 -4 0 -4 -21 -7 -47 -8 -86 0 -203
-20 -203 -34 0 -5 16 -42 35 -83 19 -41 35 -80 35 -86 0 -5 5 -10 11 -10 5 0
7 -5 4 -11 -4 -5 1 -19 11 -30 9 -10 15 -21 13 -24 -3 -2 -36 1 -74 6 -39 6
-83 12 -100 14 -16 2 -46 7 -65 10 -19 3 -60 8 -90 11 -30 3 -89 12 -130 20
-41 8 -89 14 -107 14 -17 0 -34 4 -37 9 -3 4 -17 7 -30 6 -14 -2 -43 1 -66 6
-22 5 -55 11 -73 13 -18 3 -33 5 -35 5 -5 1 48 59 106 116 65 65 184 127 226
118 16 -3 54 -7 85 -9z m-493 -7 c4 -3 -35 -6 -85 -5 -52 0 -91 5 -91 10 0 10
166 6 176 -5z m1874 -7 c0 -5 -5 -10 -11 -10 -5 0 -7 5 -4 10 3 6 8 10 11 10
2 0 4 -4 4 -10z m137 -35 c-4 -8 -12 -15 -19 -14 -10 0 -10 2 0 6 6 2 12 12
12 21 0 8 3 13 6 9 4 -3 4 -13 1 -22z m-1901 -34 c-7 -11 -46 -11 -46 0 0 7
41 17 49 13 1 -2 0 -7 -3 -13z m-306 -2 c12 -8 9 -10 -13 -6 -17 3 -34 -1 -43
-10 -8 -8 -14 -10 -14 -4 0 11 29 30 45 31 6 0 17 -5 25 -11z m110 -8 c0 -5
-7 -12 -16 -15 -8 -3 -12 -2 -9 3 3 6 -12 12 -32 14 -35 3 -34 4 10 5 26 1 47
-2 47 -7z m90 -7 c0 -2 -14 -4 -31 -4 -16 0 -28 4 -25 9 5 8 56 3 56 -5z
m-466 -33 c-5 -6 -34 20 -34 30 0 5 8 1 18 -8 10 -10 17 -20 16 -22z m1587 22
c13 -15 12 -15 -11 -3 -34 17 -36 20 -18 20 9 0 22 -7 29 -17z m-1527 -5 c-3
-4 -10 -8 -16 -8 -6 0 -16 -7 -22 -15 -9 -13 -11 -11 -11 9 0 20 5 24 27 24
15 -1 25 -5 22 -10z m196 2 c0 -5 -8 -10 -17 -10 -15 0 -16 2 -3 10 19 12 20
12 20 0z m-342 -20 c-7 -11 -17 -20 -22 -20 -5 0 -1 9 9 20 10 11 20 20 22 20
2 0 -2 -9 -9 -20z m2269 14 c-3 -3 -12 -4 -19 -1 -8 3 -5 6 6 6 11 1 17 -2 13
-5z m-2212 -22 c-3 -3 -11 0 -18 7 -9 10 -8 11 6 5 10 -3 15 -9 12 -12z m465
14 c0 -3 -4 -8 -10 -11 -5 -3 -10 -1 -10 4 0 6 5 11 10 11 6 0 10 -2 10 -4z
m-350 -10 c0 -11 -19 -15 -25 -6 -3 5 1 10 9 10 9 0 16 -2 16 -4z m2280 -6 c0
-5 -5 -10 -11 -10 -5 0 -7 5 -4 10 3 6 8 10 11 10 2 0 4 -4 4 -10z m-2384 -25
c-23 -17 -36 -19 -36 -6 0 5 10 12 23 14 12 2 24 5 27 5 3 1 -4 -5 -14 -13z
m-56 1 c0 -2 -7 -7 -16 -10 -8 -3 -12 -2 -9 4 6 10 25 14 25 6z m-36 -25 c3
-5 -6 -8 -20 -8 -19 0 -22 2 -13 8 18 11 26 11 33 0z m174 -7 c-13 -13 -20
-14 -34 -5 -17 11 -17 11 3 6 12 -3 24 -1 28 5 3 5 9 10 13 10 3 0 -1 -7 -10
-16z m-228 -14 c0 -5 -11 -17 -24 -26 -16 -10 -23 -22 -19 -32 4 -13 3 -14 -5
-3 -6 8 -15 10 -23 6 -8 -4 2 8 21 28 36 37 50 44 50 27z m111 -11 c11 -11 19
-23 17 -25 -3 -2 -15 7 -28 21 -28 30 -19 34 11 4z m139 1 c0 -5 -5 -10 -11
-10 -5 0 -7 5 -4 10 3 6 8 10 11 10 2 0 4 -4 4 -10z m1595 0 c3 -5 1 -10 -4
-10 -6 0 -11 5 -11 10 0 6 2 10 4 10 3 0 8 -4 11 -10z m-1915 -9 c0 -5 -11
-16 -25 -25 -33 -22 -32 -34 4 -28 38 5 46 -11 18 -34 -12 -10 -16 -12 -9 -4
17 20 15 30 -8 30 -11 0 -20 -4 -20 -10 0 -5 -7 -7 -15 -4 -11 5 -12 10 -4 26
21 40 59 71 59 49z m96 -36 c1 -8 -2 -15 -6 -15 -5 0 -8 9 -7 20 1 21 10 18
13 -5z m44 15 c0 -5 -5 -10 -11 -10 -5 0 -7 5 -4 10 3 6 8 10 11 10 2 0 4 -4
4 -10z m200 0 c0 -5 -2 -10 -4 -10 -3 0 -8 5 -11 10 -3 6 -1 10 4 10 6 0 11
-4 11 -10z m-165 -10 c3 -5 1 -10 -4 -10 -6 0 -11 5 -11 10 0 6 2 10 4 10 3 0
8 -4 11 -10z m431 -21 c24 -7 32 -16 32 -34 0 -14 -5 -25 -11 -25 -6 0 -8 3
-4 6 10 11 -17 31 -35 26 -11 -2 -20 3 -24 13 -5 12 -9 13 -14 5 -5 -8 -13 -9
-21 -4 -20 13 -63 12 -71 0 -4 -6 -8 0 -8 13 0 23 1 23 63 17 34 -4 76 -11 93
-17z m-536 -24 c0 -5 -5 -3 -10 5 -5 8 -10 20 -10 25 0 6 5 3 10 -5 5 -8 10
-19 10 -25z m140 31 c0 -3 -4 -8 -10 -11 -5 -3 -10 -1 -10 4 0 6 5 11 10 11 6
0 10 -2 10 -4z m49 -10 c10 -12 8 -13 -8 -9 -12 3 -21 9 -21 14 0 14 16 11 29
-5z m1428 8 c-3 -3 -12 -4 -19 -1 -8 3 -5 6 6 6 11 1 17 -2 13 -5z m213 -14
c0 -5 -5 -10 -11 -10 -5 0 -7 5 -4 10 3 6 8 10 11 10 2 0 4 -4 4 -10z m-1725
-19 c-3 -6 -11 -11 -16 -11 -5 0 -4 6 3 14 14 16 24 13 13 -3z m355 -3 c0 -6
7 -8 14 -5 10 4 13 1 9 -9 -4 -11 -8 -12 -20 -2 -11 9 -16 9 -24 -3 -12 -19
-11 -29 1 -29 6 0 10 5 10 11 0 5 13 -2 29 -18 23 -23 26 -31 17 -45 -6 -10
-19 -18 -28 -18 -17 0 -20 4 -22 33 -1 6 -7 18 -14 26 -7 8 -10 22 -6 35 4 11
7 26 7 33 0 6 6 9 14 6 7 -3 13 -10 13 -15z m297 2 c18 -5 44 -7 58 -5 14 1
54 -3 88 -11 34 -7 89 -15 122 -19 33 -3 87 -10 120 -16 33 -6 76 -13 95 -15
61 -6 124 -15 155 -21 17 -3 38 -5 48 -5 9 0 17 -3 17 -7 0 -4 10 -7 22 -7 21
1 22 -3 23 -69 2 -95 -2 -108 -30 -101 -16 4 -25 1 -30 -11 -3 -10 -1 -19 4
-21 7 -2 8 -10 1 -22 -7 -13 -19 -17 -45 -15 -29 3 -35 0 -35 -15 0 -10 5 -22
12 -26 8 -5 9 -2 4 11 -5 15 -4 16 8 6 10 -8 16 -9 21 -1 3 6 11 8 16 4 5 -3
7 -10 3 -15 -8 -14 49 1 58 15 4 6 8 -1 8 -15 0 -36 -5 -38 -51 -23 -22 8 -45
12 -50 8 -13 -8 -49 24 -49 44 0 8 -6 12 -13 9 -8 -3 -20 -1 -28 4 -10 7 -4 9
21 8 62 -2 70 0 70 22 0 11 5 17 10 14 12 -7 12 -3 4 19 -3 9 -10 16 -16 16
-5 0 -6 -4 -3 -10 3 -5 -3 -20 -15 -32 l-21 -23 6 34 c3 19 8 38 11 43 3 4 0
8 -7 8 -8 0 -8 4 1 15 7 9 8 15 2 15 -13 0 -22 -24 -17 -50 2 -11 0 -20 -5
-20 -5 0 -7 -6 -4 -14 8 -20 -9 -27 -24 -10 -7 8 -9 14 -4 14 19 0 20 51 1 73
-13 16 -19 18 -19 7 0 -12 -4 -11 -15 4 -15 19 -35 14 -35 -9 0 -8 -6 -12 -13
-10 -7 3 -20 -7 -29 -22 -10 -16 -18 -22 -18 -15 0 7 -4 11 -9 7 -6 -3 -25 1
-43 9 -29 13 -30 14 -8 13 14 -1 28 -6 33 -12 4 -6 11 -4 17 5 7 11 10 11 10
2 0 -7 5 -10 10 -7 6 4 8 10 5 15 -3 4 1 11 7 14 7 3 -6 3 -30 1 -23 -2 -40 0
-37 5 3 5 1 12 -5 15 -6 4 -9 1 -8 -6 2 -6 -4 -14 -12 -17 -8 -2 -12 -1 -8 3
11 12 -11 45 -35 55 -14 5 -29 4 -42 -5 -18 -11 -24 -10 -43 5 -12 10 -22 23
-22 30 0 6 -5 8 -10 5 -7 -4 -6 -14 2 -28 7 -12 11 -25 10 -29 -1 -5 9 -8 23
-8 14 0 25 -5 25 -11 0 -6 -9 -8 -21 -4 -12 4 -62 7 -112 7 -61 1 -84 4 -73
10 9 5 33 7 52 5 26 -4 32 -2 25 7 -12 14 24 40 41 30 7 -5 8 -3 3 5 -4 8 3
24 20 41 20 21 23 29 12 33 -9 3 -14 -1 -13 -11 1 -10 -10 -19 -29 -23 -18 -4
-22 -7 -11 -8 19 -1 19 -2 -2 -21 -25 -23 -33 -25 -26 -7 6 16 -25 19 -43 5
-7 -5 -14 -5 -18 2 -9 15 -25 12 -25 -4 0 -16 -27 -29 -35 -17 -2 5 -23 9 -45
9 -22 0 -45 4 -51 8 -8 5 -10 -10 -7 -55 4 -52 2 -61 -11 -59 -12 3 -16 16
-15 58 0 47 10 199 13 208 1 4 65 -7 108 -18z m988 10 c3 -5 1 -10 -4 -10 -6
0 -11 5 -11 10 0 6 2 10 4 10 3 0 8 -4 11 -10z m540 1 c17 -5 -15 -7 -77 -7
-58 1 -104 4 -101 9 5 9 137 7 178 -2z m62 -7 c-3 -3 -12 -4 -19 -1 -8 3 -5 6
6 6 11 1 17 -2 13 -5z m-2478 -18 c7 -8 8 -17 3 -20 -6 -3 -12 3 -15 14 -6 24
-4 25 12 6z m635 -8 c-4 -6 1 -17 10 -24 10 -7 13 -15 7 -18 -12 -8 -34 30
-26 44 3 6 8 10 11 10 3 0 2 -5 -2 -12z m1636 2 c0 -5 -7 -7 -15 -4 -8 4 -15
8 -15 10 0 2 7 4 15 4 8 0 15 -4 15 -10z m-2140 -10 c0 -5 -4 -10 -10 -10 -5
0 -10 5 -10 10 0 6 5 10 10 10 6 0 10 -4 10 -10z m2185 -8 c-3 -3 -11 0 -18 7
-9 10 -8 11 6 5 10 -3 15 -9 12 -12z m-2340 -2 c-3 -5 -11 -10 -16 -10 -6 0
-7 5 -4 10 3 6 11 10 16 10 6 0 7 -4 4 -10z m214 -20 c6 0 11 -5 11 -11 0 -17
-22 -5 -38 22 -12 21 -12 22 1 7 8 -10 19 -18 26 -18z m118 15 c0 -8 -4 -12
-9 -9 -5 3 -6 10 -3 15 9 13 12 11 12 -6z m2050 9 c-3 -3 -12 -4 -19 -1 -8 3
-5 6 6 6 11 1 17 -2 13 -5z m143 -4 c0 -5 -5 -10 -11 -10 -5 0 -7 5 -4 10 3 6
8 10 11 10 2 0 4 -4 4 -10z m-2150 -15 c0 -8 -4 -15 -10 -15 -5 0 -10 7 -10
15 0 8 5 15 10 15 6 0 10 -7 10 -15z m145 5 c3 -5 1 -10 -4 -10 -6 0 -11 5
-11 10 0 6 2 10 4 10 3 0 8 -4 11 -10z m192 -12 c-3 -8 -6 -5 -6 6 -1 11 2 17
5 13 3 -3 4 -12 1 -19z m1770 16 c-3 -3 -12 -4 -19 -1 -8 3 -5 6 6 6 11 1 17
-2 13 -5z m-2195 -26 c-9 -9 -15 -9 -24 1 -11 10 -10 11 5 6 10 -5 17 -2 17 6
0 7 3 9 7 6 4 -4 1 -13 -5 -19z m-298 3 c3 -5 -1 -11 -9 -14 -9 -4 -12 -1 -8
9 6 16 10 17 17 5z m331 -11 c3 -5 1 -10 -4 -10 -6 0 -11 5 -11 10 0 6 2 10 4
10 3 0 8 -4 11 -10z m369 -5 c-4 -8 -1 -15 5 -15 6 0 11 6 11 13 0 9 2 9 9 -1
10 -16 2 -62 -11 -62 -5 0 -6 5 -3 11 4 5 -1 19 -10 29 -9 10 -14 24 -10 29 9
16 15 13 9 -4z m-309 -5 c-3 -5 -14 -10 -23 -9 -14 0 -13 2 3 9 27 11 27 11
20 0z m-165 -21 c0 -6 -4 -7 -10 -4 -5 3 -10 11 -10 16 0 6 5 7 10 4 6 -3 10
-11 10 -16z m-245 1 c3 -5 1 -10 -4 -10 -6 0 -11 5 -11 10 0 6 2 10 4 10 3 0
8 -4 11 -10z m2305 0 c0 -5 -2 -10 -4 -10 -3 0 -8 5 -11 10 -3 6 -1 10 4 10 6
0 11 -4 11 -10z m-1592 -29 c2 -13 -4 -28 -15 -36 -25 -19 -89 -8 -69 12 4 4
11 1 16 -7 8 -13 10 -12 10 2 0 9 -8 18 -17 20 -15 3 -14 5 5 10 17 5 22 2 22
-13 0 -10 5 -19 10 -19 6 0 10 5 10 11 0 5 5 7 10 4 6 -3 10 3 10 14 0 10 -5
22 -10 24 -6 3 -5 4 2 3 7 -1 14 -13 16 -25z m-605 12 c-7 -2 -19 -2 -25 0 -7
3 -2 5 12 5 14 0 19 -2 13 -5z m117 -25 c0 -6 -7 -5 -15 2 -8 7 -15 17 -15 22
0 6 7 5 15 -2 8 -7 15 -17 15 -22z m1575 22 c4 -6 15 -8 26 -5 23 8 89 -12 89
-26 0 -6 -8 -8 -17 -5 -49 14 -93 17 -112 7 -18 -10 -21 -9 -21 7 0 30 22 43
35 22z m-1514 -17 c13 -16 12 -17 -3 -4 -17 13 -22 21 -14 21 2 0 10 -8 17
-17z m757 -3 c-14 -22 -24 -19 -15 5 4 8 11 15 17 15 6 0 6 -7 -2 -20z m-38
-5 c0 -8 -4 -15 -10 -15 -5 0 -7 7 -4 15 4 8 8 15 10 15 2 0 4 -7 4 -15z m984
-3 c6 -3 26 -7 45 -8 75 -6 271 -38 327 -53 46 -12 195 -18 212 -7 6 3 12 0
15 -6 3 -10 9 -11 26 0 11 6 34 12 51 12 16 0 30 5 30 11 0 6 9 8 20 4 11 -3
20 -3 20 2 0 4 14 9 32 10 17 1 36 7 42 13 13 13 29 13 21 1 -3 -5 -1 -12 5
-16 5 -3 10 -2 10 3 0 6 11 9 25 8 39 -2 23 -20 -20 -24 -21 -1 -45 -8 -52
-14 -10 -8 -13 -6 -13 6 0 9 -4 16 -10 16 -5 0 -7 -8 -3 -17 5 -15 3 -16 -7
-6 -9 8 -18 9 -25 3 -13 -11 -77 -21 -142 -23 -24 -1 -43 -4 -43 -8 0 -3 -13
-4 -30 -1 -23 3 -30 0 -30 -12 0 -9 -4 -16 -10 -16 -5 0 -10 4 -10 10 0 5 -7
7 -15 4 -9 -4 -15 0 -15 7 0 11 -3 11 -10 -1 -8 -12 -10 -12 -10 -1 0 8 -2 12
-5 9 -9 -9 6 -38 16 -32 6 3 15 1 22 -4 12 -10 17 -12 40 -12 6 0 4 -5 -6 -11
-9 -6 -15 -15 -11 -20 9 -15 -42 -69 -54 -57 -8 8 -16 6 -27 -6 -15 -15 -15
-17 0 -22 12 -5 14 -14 10 -34 -3 -16 -1 -31 4 -35 6 -3 11 -11 11 -16 0 -6
-4 -8 -8 -5 -10 6 -48 13 -116 21 -60 7 -64 10 -36 25 15 8 25 9 29 2 3 -6 20
-12 38 -15 25 -4 32 -1 37 16 6 25 0 36 -27 46 -15 6 -27 2 -41 -10 -21 -20
-38 -17 -18 3 7 7 12 16 12 20 0 4 -9 -1 -20 -12 -12 -12 -18 -26 -13 -33 4
-7 0 -7 -10 2 -17 13 -25 37 -9 28 4 -3 13 2 21 11 13 13 11 14 -15 8 -38 -10
-39 -11 -21 -39 23 -36 10 -47 -46 -36 -27 5 -63 11 -80 13 -127 17 -145 24
-115 42 7 4 8 3 4 -4 -4 -7 -2 -12 3 -12 6 0 11 6 11 13 0 9 2 9 9 -1 10 -17
52 -12 69 8 12 13 13 13 9 0 -2 -8 3 -20 12 -27 20 -15 34 -17 26 -3 -4 6 -3
10 2 9 20 -3 27 2 13 11 -13 8 -13 10 1 10 9 0 20 7 23 16 8 20 -18 46 -38 38
-17 -7 -22 -34 -6 -34 6 0 10 7 10 16 0 8 5 12 11 9 7 -5 4 -14 -7 -26 -16
-17 -19 -18 -26 -4 -5 8 -15 15 -23 15 -8 0 -17 5 -21 12 -5 8 -2 9 10 5 11
-5 16 -3 14 5 -2 6 -14 12 -27 13 -17 1 -21 -2 -18 -17 3 -10 1 -16 -3 -13 -5
3 -13 -3 -19 -12 -10 -17 -10 -17 -11 0 0 9 -6 17 -12 18 -8 0 -8 3 2 6 8 4
22 15 31 26 15 19 17 19 48 4 28 -14 31 -14 21 -1 -18 21 -4 30 15 10 20 -20
32 -21 15 -1 -6 8 -8 20 -4 26 4 8 3 9 -4 5 -7 -4 -12 -5 -12 -1 0 9 24 49 34
56 13 10 -2 29 -22 29 -14 0 -14 -2 -3 -9 9 -6 10 -14 5 -22 -5 -8 -9 -16 -10
-19 -5 -24 -18 -38 -32 -33 -13 4 -14 3 -3 -5 10 -7 10 -11 1 -17 -16 -10 -30
12 -30 48 0 29 14 37 24 12 3 -8 11 -15 18 -15 9 0 10 3 2 8 -6 4 -17 18 -24
31 -11 21 -10 23 4 18 8 -3 18 -2 21 3 4 6 -3 10 -14 10 -10 0 -27 3 -36 6
-15 6 -15 4 -3 -15 11 -18 11 -23 -2 -31 -8 -5 -18 -6 -22 -4 -4 3 -8 -2 -8
-12 0 -11 -6 -15 -20 -11 -11 3 -20 1 -20 -4 0 -5 5 -9 10 -9 6 0 10 -8 10
-17 0 -15 -2 -16 -10 -3 -12 18 -12 18 -15 -45 -3 -63 -3 -65 -13 -65 -6 0 -8
42 -2 60 1 3 1 29 0 59 -1 50 0 53 19 48 11 -3 25 1 32 9 6 8 15 12 19 9 5 -3
12 0 15 6 5 7 -1 10 -16 9 -37 -3 -46 1 -24 10 19 8 19 9 -2 9 -13 1 -23 6
-23 12 0 5 -4 8 -9 5 -14 -9 -41 4 -41 20 0 11 7 13 28 8 15 -4 31 -9 36 -12z
m-1904 -2 c0 -5 -8 -10 -17 -10 -15 0 -16 2 -3 10 19 12 20 12 20 0z m97 -9
c0 -11 -5 -18 -9 -15 -4 3 -5 11 -1 19 7 21 12 19 10 -4z m750 4 c-2 -5 -11
-10 -20 -10 -8 0 -19 -4 -23 -8 -4 -4 -12 -7 -18 -7 -6 0 -4 5 4 10 13 9 13
10 0 10 -10 0 -11 3 -3 8 17 11 64 9 60 -3z m1853 11 c0 -3 -4 -8 -10 -11 -5
-3 -10 -1 -10 4 0 6 5 11 10 11 6 0 10 -2 10 -4z m-2395 -26 c3 -5 1 -10 -4
-10 -6 0 -11 5 -11 10 0 6 2 10 4 10 3 0 8 -4 11 -10z m891 -9 c-3 -5 -15 -7
-26 -4 -28 7 -25 13 6 13 14 0 23 -4 20 -9z m-1186 -11 c0 -5 -4 -10 -10 -10
-5 0 -10 5 -10 10 0 6 5 10 10 10 6 0 10 -4 10 -10z m598 -8 c-30 -18 -38 -38
-12 -28 8 3 12 2 9 -4 -10 -16 -22 -11 -41 18 -15 23 -15 25 -1 13 12 -9 17
-10 17 -2 0 7 5 9 10 6 6 -3 10 -1 10 4 0 6 8 11 18 11 12 0 10 -5 -10 -18z
m224 -4 c-9 -9 -15 -9 -24 1 -11 11 -10 13 5 8 10 -4 17 -2 17 5 0 6 3 8 7 5
4 -4 1 -13 -5 -19z m1066 2 c10 -17 10 -20 -6 -20 -11 0 -18 8 -19 20 -1 11 1
20 5 20 4 0 13 -9 20 -20z m-1943 0 c3 -5 1 -10 -4 -10 -6 0 -11 5 -11 10 0 6
2 10 4 10 3 0 8 -4 11 -10z m570 -18 c-7 -8 -35 7 -35 18 0 6 7 6 20 -2 10 -7
17 -14 15 -16z m661 13 c14 -11 15 -14 4 -14 -8 0 -24 6 -34 14 -15 11 -16 15
-5 15 8 0 24 -7 35 -15z m-544 -17 c-7 -7 -12 -8 -12 -2 0 14 12 26 19 19 2
-3 -1 -11 -7 -17z m728 -3 c-7 -8 -9 -22 -6 -31 5 -12 2 -15 -11 -9 -10 4 -24
8 -30 8 -10 0 -10 4 -1 14 8 9 13 10 18 3 4 -6 12 1 19 16 6 15 14 24 18 21 3
-4 0 -13 -7 -22z m50 5 c0 -5 -7 -10 -16 -10 -8 0 -12 5 -9 10 3 6 10 10 16
10 5 0 9 -4 9 -10z m278 -15 c-3 -3 -9 2 -12 12 -6 14 -5 15 5 6 7 -7 10 -15
7 -18z m260 -40 c1 -29 -2 -35 -18 -35 -11 0 -20 4 -20 10 0 5 7 7 15 4 8 -4
15 -1 15 5 0 6 -7 11 -15 11 -12 0 -12 3 2 20 10 11 18 20 19 20 0 0 1 -16 2
-35z m-251 19 c-3 -3 -12 -4 -19 -1 -8 3 -5 6 6 6 11 1 17 -2 13 -5z m-342
-34 c39 -26 25 -26 -17 0 -18 11 -28 20 -23 20 6 0 24 -9 40 -20z m-1350 0 c3
-5 1 -10 -4 -10 -6 0 -11 5 -11 10 0 6 2 10 4 10 3 0 8 -4 11 -10z m1573 -53
c-18 -18 -42 -11 -25 8 7 7 16 11 20 8 5 -3 8 3 7 13 -4 32 3 41 7 11 2 -15
-2 -33 -9 -40z m346 11 c-3 -5 -12 -4 -20 3 -19 16 -18 18 6 12 11 -3 17 -9
14 -15z m-1894 -11 c11 -5 9 -6 -4 -4 -11 1 -21 9 -23 17 -3 10 -2 11 4 4 4
-6 15 -14 23 -17z m2661 -10 c-10 -9 -11 -8 -5 6 3 10 9 15 12 12 3 -3 0 -11
-7 -18z m-148 -12 c-3 -9 -8 -14 -10 -11 -3 3 -2 9 2 15 9 16 15 13 8 -4z
m-158 -61 c-3 -70 -9 -84 -26 -67 -18 18 -21 71 -4 102 24 48 33 37 30 -35z
m-2461 40 c3 -8 2 -12 -4 -9 -6 3 -10 10 -10 16 0 14 7 11 14 -7z m2591 6 c3
-5 2 -10 -4 -10 -5 0 -13 5 -16 10 -3 6 -2 10 4 10 5 0 13 -4 16 -10z m-555
-10 c0 -5 -4 -10 -10 -10 -5 0 -10 5 -10 10 0 6 5 10 10 10 6 0 10 -4 10 -10z
m380 -10 c0 -5 -2 -10 -4 -10 -3 0 -8 5 -11 10 -3 6 -1 10 4 10 6 0 11 -4 11
-10z m-85 -19 c19 -8 19 -8 -2 -20 -20 -10 -22 -9 -16 6 5 15 3 16 -8 6 -19
-18 -34 -16 -19 2 14 17 16 17 45 6z m-2280 -141 c-3 -5 -14 -10 -23 -9 -14 0
-13 2 3 9 27 11 27 11 20 0z m485 -123 c0 -2 -9 -14 -20 -27 -11 -13 -20 -19
-20 -15 0 5 7 17 17 27 15 17 23 22 23 15z m115 -7 c3 -6 -1 -7 -9 -4 -10 4
-16 1 -16 -10 0 -10 -6 -13 -15 -10 -14 6 -13 8 2 20 22 16 30 17 38 4z m-79
-48 c-17 -16 -18 -16 -5 5 7 12 15 20 18 17 3 -2 -3 -12 -13 -22z m44 -2 c0
-5 -2 -10 -4 -10 -3 0 -8 5 -11 10 -3 6 -1 10 4 10 6 0 11 -4 11 -10z m-116
-40 c-6 -6 -10 -3 -10 10 0 13 4 16 10 10 7 -7 7 -13 0 -20z m77 -3 c-10 -9
-11 -8 -5 6 3 10 9 15 12 12 3 -3 0 -11 -7 -18z m2159 9 c0 -2 -7 -7 -16 -10
-8 -3 -12 -2 -9 4 6 10 25 14 25 6z m-2225 -44 c-15 -16 -16 -15 -4 12 7 15
15 23 17 16 3 -7 -3 -19 -13 -28z m38 -3 c-9 -9 -12 -7 -10 9 1 14 5 18 11 12
7 -7 6 -14 -1 -21z m2321 15 c5 -13 4 -14 -7 -6 -8 7 -17 9 -20 5 -4 -3 -7 -1
-7 5 0 18 27 14 34 -4z m-2389 -24 c-4 -12 -9 -19 -12 -17 -3 3 -2 15 2 27 4
12 9 19 12 17 3 -3 2 -15 -2 -27z m-25 12 c0 -4 -10 -9 -22 -9 -18 -2 -20 0
-8 7 18 12 30 13 30 2z m2346 -7 c-11 -8 -22 -12 -25 -9 -6 6 19 24 34 24 6
-1 1 -7 -9 -15z m-2276 -35 c0 -5 -7 -7 -15 -4 -8 4 -15 8 -15 10 0 2 7 4 15
4 8 0 15 -4 15 -10z m2190 -30 c0 -5 -5 -10 -11 -10 -5 0 -7 5 -4 10 3 6 8 10
11 10 2 0 4 -4 4 -10z m-57 -15 c-3 -9 -8 -14 -10 -11 -3 3 -2 9 2 15 9 16 15
13 8 -4z m84 -7 c-3 -8 -6 -5 -6 6 -1 11 2 17 5 13 3 -3 4 -12 1 -19z m108 12
c-3 -5 -11 -10 -16 -10 -6 0 -7 5 -4 10 3 6 11 10 16 10 6 0 7 -4 4 -10z m-54
-23 c-10 -9 -11 -8 -5 6 3 10 9 15 12 12 3 -3 0 -11 -7 -18z m-73 -9 c11 -14
10 -16 -7 -11 -12 3 -17 11 -14 19 3 8 6 14 7 12 1 -2 7 -11 14 -20z m-95 5
c-7 -2 -19 -2 -25 0 -7 3 -2 5 12 5 14 0 19 -2 13 -5z m202 -3 c-3 -5 -12 -10
-18 -10 -7 0 -6 4 3 10 19 12 23 12 15 0z m-145 -70 c0 -5 -5 -10 -11 -10 -5
0 -7 5 -4 10 3 6 8 10 11 10 2 0 4 -4 4 -10z m-43 -6 c-3 -3 -12 -4 -19 -1 -8
3 -5 6 6 6 11 1 17 -2 13 -5z m78 -4 c-3 -5 -11 -10 -16 -10 -6 0 -7 5 -4 10
3 6 11 10 16 10 6 0 7 -4 4 -10z m40 -10 c-3 -5 -12 -10 -18 -10 -7 0 -6 4 3
10 19 12 23 12 15 0z m230 -10 c-3 -5 -12 -10 -18 -10 -7 0 -6 4 3 10 19 12
23 12 15 0z m-420 -18 c-3 -3 -11 0 -18 7 -9 10 -8 11 6 5 10 -3 15 -9 12 -12z
m225 -4 c0 -6 -6 -5 -15 2 -8 7 -15 14 -15 16 0 2 7 1 15 -2 8 -4 15 -11 15
-16z m-233 -14 c-3 -3 -12 -4 -19 -1 -8 3 -5 6 6 6 11 1 17 -2 13 -5z m-67
-14 c0 -5 -5 -10 -11 -10 -5 0 -7 5 -4 10 3 6 8 10 11 10 2 0 4 -4 4 -10z
m250 -10 c0 -5 -4 -10 -10 -10 -5 0 -10 5 -10 10 0 6 5 10 10 10 6 0 10 -4 10
-10z m124 -36 c3 -8 2 -12 -4 -9 -6 3 -10 10 -10 16 0 14 7 11 14 -7z m-2837
-16 c-3 -8 -6 -5 -6 6 -1 11 2 17 5 13 3 -3 4 -12 1 -19z m2610 -10 c-3 -8 -6
-5 -6 6 -1 11 2 17 5 13 3 -3 4 -12 1 -19z m74 7 c10 6 11 5 4 -3 -6 -6 -21
-9 -34 -5 -16 4 -19 8 -10 14 8 4 16 3 20 -3 4 -6 13 -7 20 -3z m-229 -17 c-7
-7 -12 -8 -12 -2 0 14 12 26 19 19 2 -3 -1 -11 -7 -17z m400 -33 c-6 -12 -11
-14 -16 -6 -4 6 -2 11 4 11 7 0 9 7 5 18 -5 13 -3 14 5 5 8 -7 9 -17 2 -28z
m-117 5 c3 -5 1 -10 -4 -10 -6 0 -11 5 -11 10 0 6 2 10 4 10 3 0 8 -4 11 -10z
m-235 -4 c0 -2 -7 -7 -16 -10 -8 -3 -12 -2 -9 4 6 10 25 14 25 6z m204 -11
c-4 -8 -10 -15 -15 -15 -4 0 -6 7 -3 15 4 8 10 15 15 15 4 0 6 -7 3 -15z m191
-15 c3 -5 1 -10 -4 -10 -6 0 -11 5 -11 10 0 6 2 10 4 10 3 0 8 -4 11 -10z
m1075 -44 c0 -3 -4 -8 -10 -11 -5 -3 -10 -1 -10 4 0 6 5 11 10 11 6 0 10 -2
10 -4z m-1070 -80 c0 -3 -4 -8 -10 -11 -5 -3 -10 -1 -10 4 0 6 5 11 10 11 6 0
10 -2 10 -4z m-212 -50 c-7 -8 -15 -12 -17 -11 -5 6 10 25 20 25 5 0 4 -6 -3
-14z m110 -11 c-3 -3 -9 2 -12 12 -6 14 -5 15 5 6 7 -7 10 -15 7 -18z m-41
-17 c-3 -8 -6 -5 -6 6 -1 11 2 17 5 13 3 -3 4 -12 1 -19z m-144 -13 c-3 -9 -8
-14 -10 -11 -3 3 -2 9 2 15 9 16 15 13 8 -4z m67 -15 c0 -5 -4 -10 -10 -10 -5
0 -10 5 -10 10 0 6 5 10 10 10 6 0 10 -4 10 -10z m100 -20 c0 -5 -5 -10 -11
-10 -5 0 -7 5 -4 10 3 6 8 10 11 10 2 0 4 -4 4 -10z m-1600 -200 c0 -5 -5 -10
-11 -10 -5 0 -7 5 -4 10 3 6 8 10 11 10 2 0 4 -4 4 -10z m-72 -14 c-10 -7 -15
-16 -11 -19 3 -4 1 -7 -5 -7 -7 0 -12 4 -12 8 0 12 22 32 35 32 5 0 2 -7 -7
-14z m148 -4 c-10 -2 -22 0 -28 6 -6 6 0 7 19 4 21 -5 23 -7 9 -10z m5130 -9
c-7 -7 -26 7 -26 19 0 6 6 6 15 -2 9 -7 13 -15 11 -17z m-5385 -2 c7 11 9 10
9 -5 0 -12 -5 -16 -16 -12 -9 3 -25 6 -37 7 -20 1 -20 2 3 8 14 4 27 3 29 -2
2 -5 7 -3 12 4z m64 -1 c8 -13 -5 -13 -25 0 -13 8 -13 10 2 10 9 0 20 -4 23
-10z m125 6 c0 -3 -4 -8 -10 -11 -5 -3 -10 -1 -10 4 0 6 5 11 10 11 6 0 10 -2
10 -4z m180 -16 c0 -11 -4 -20 -9 -20 -7 0 -8 17 -2 38 4 10 11 -2 11 -18z
m-183 -13 c15 6 16 5 3 -8 -17 -19 -43 -21 -36 -2 3 7 1 13 -4 13 -6 0 -10 -4
-10 -10 0 -13 -41 -13 -60 1 -11 8 -7 9 16 4 22 -4 35 -1 44 10 12 14 14 15
22 1 5 -9 15 -13 25 -9z m73 11 c0 -11 -38 -10 -44 1 -3 5 5 8 19 7 14 0 25
-4 25 -8z m172 -18 c13 0 9 18 -4 23 -7 2 -2 2 12 -1 14 -2 38 -6 54 -8 41 -5
46 -14 8 -14 -17 0 -33 -4 -36 -9 -7 -10 -56 -2 -73 12 -23 17 -14 29 9 13 12
-9 26 -16 30 -16z m5168 20 c0 -5 -7 -7 -15 -4 -8 4 -15 8 -15 10 0 2 7 4 15
4 8 0 15 -4 15 -10z m-5265 -18 c-3 -3 -11 0 -18 7 -9 10 -8 11 6 5 10 -3 15
-9 12 -12z m-35 -7 c11 -13 10 -14 -4 -9 -9 3 -16 10 -16 15 0 13 6 11 20 -6z
m290 0 c16 0 24 -5 22 -13 -1 -8 7 -16 18 -19 26 -7 25 -19 -2 -27 -30 -7 -42
7 -29 33 9 15 9 21 1 21 -17 0 -42 -28 -35 -39 3 -5 1 -12 -5 -16 -5 -3 -10 2
-10 12 0 14 -2 15 -9 5 -6 -10 -10 -9 -14 7 -4 15 -10 19 -24 15 -15 -6 -16
-5 -5 7 10 11 16 11 33 1 26 -17 36 -8 18 15 -12 15 -12 16 1 7 8 -5 26 -9 40
-9z m248 -15 c4 -12 3 -13 -10 -2 -13 10 -17 10 -22 -3 -7 -20 -36 -19 -36 1
0 10 6 14 15 10 8 -3 15 -1 15 5 0 16 33 6 38 -11z m26 5 c-4 -8 -1 -15 4 -15
6 0 23 -11 38 -25 31 -29 37 -30 57 -11 13 14 71 11 63 -3 -7 -11 12 -36 21
-28 4 5 2 12 -6 16 -7 5 -12 12 -11 17 2 14 29 26 41 19 5 -4 25 -9 42 -12 70
-10 169 -34 188 -43 12 -7 19 -7 19 -1 0 6 6 8 14 5 8 -3 12 -12 9 -20 -3 -8
-9 -11 -14 -8 -5 3 -9 0 -9 -5 0 -6 4 -11 9 -11 12 0 8 -71 -6 -94 -10 -18
-13 -19 -35 -4 -14 9 -35 14 -51 11 -17 -3 -27 -1 -27 6 0 7 -4 9 -10 6 -5 -3
-10 -3 -10 2 0 4 -17 8 -37 9 -35 0 -98 11 -178 29 -31 7 -58 12 -87 14 -10 0
-18 8 -18 16 0 8 -5 15 -11 15 -5 0 -7 -4 -4 -10 11 -17 -7 -11 -20 7 -11 14
-10 19 3 29 12 9 9 11 -17 12 -17 0 -31 -3 -31 -8 0 -5 6 -7 13 -4 7 2 13 -4
14 -16 1 -11 -3 -20 -9 -20 -15 0 -37 31 -38 53 0 14 -3 15 -13 5 -12 -10 -10
-15 7 -30 21 -17 21 -17 -6 -16 -16 2 -28 6 -28 9 0 4 -3 14 -6 22 -3 9 3 16
16 20 15 4 19 10 14 19 -5 8 3 6 19 -5 26 -17 27 -17 27 3 0 11 5 20 11 20 6
0 9 -7 6 -15 -4 -8 -2 -17 3 -20 6 -4 10 0 10 7 0 9 3 9 10 -2 9 -13 11 -13
20 0 13 20 12 30 -2 26 -7 -1 -10 -1 -7 1 4 2 5 13 2 23 -3 11 0 20 6 20 5 0
8 -7 5 -15z m-620 -1 c9 -3 16 -11 16 -16 0 -7 -4 -7 -12 -1 -7 6 -23 9 -35 8
-13 -1 -23 2 -23 7 0 9 31 11 54 2z m121 -4 c-3 -5 -12 -10 -18 -10 -7 0 -6 4
3 10 19 12 23 12 15 0z m365 -3 c0 -5 -4 -6 -9 -2 -6 3 -20 -5 -32 -17 -17
-18 -20 -19 -16 -5 5 12 1 17 -13 17 -11 0 -20 3 -20 8 0 4 20 7 45 7 25 0 45
-4 45 -8z m30 3 c0 -5 -2 -10 -4 -10 -3 0 -8 5 -11 10 -3 6 -1 10 4 10 6 0 11
-4 11 -10z m150 0 c8 -5 11 -10 5 -10 -5 0 -17 5 -25 10 -8 5 -10 10 -5 10 6
0 17 -5 25 -10z m-569 -26 c8 -9 8 -14 1 -14 -6 0 -14 5 -17 11 -4 6 -13 8
-20 5 -8 -3 -18 1 -24 8 -8 10 -4 12 19 8 16 -2 35 -10 41 -18z m113 10 c5
-12 1 -14 -17 -9 -21 6 -21 6 -3 -9 15 -12 22 -13 27 -4 4 7 6 15 3 19 -2 4 0
10 5 13 5 3 12 -6 15 -20 5 -17 12 -24 21 -20 9 3 15 -1 15 -10 0 -11 -5 -14
-17 -9 -10 4 -40 9 -67 11 -28 3 -53 7 -58 10 -14 9 -9 24 8 24 8 0 12 -4 9
-10 -3 -5 -1 -10 4 -10 6 0 11 9 11 20 0 24 35 28 44 4z m511 -8 c-11 -8 -26
-11 -35 -8 -11 5 -9 8 10 13 40 11 45 10 25 -5z m50 4 c3 -5 -1 -10 -9 -10 -9
0 -16 5 -16 10 0 6 4 10 9 10 6 0 13 -4 16 -10z m-283 -22 c-6 -6 -15 -8 -19
-4 -4 4 -1 11 7 16 19 12 27 3 12 -12z m4654 -36 c-10 -11 -16 -12 -16 -4 0 7
5 12 10 12 6 0 10 8 11 18 0 11 2 13 6 4 3 -8 -2 -21 -11 -30z m374 28 c0 -5
-5 -10 -11 -10 -5 0 -7 5 -4 10 3 6 8 10 11 10 2 0 4 -4 4 -10z m-5180 -19 c0
-3 -11 -7 -25 -7 -14 -1 -25 4 -25 11 0 8 9 10 25 7 14 -2 25 -7 25 -11z m95
9 c3 -5 -3 -10 -15 -10 -12 0 -18 5 -15 10 3 6 10 10 15 10 5 0 12 -4 15 -10z
m38 -20 c4 -16 0 -20 -16 -19 -12 0 -17 3 -11 5 7 3 9 14 6 26 -3 13 -1 19 5
15 6 -4 13 -16 16 -27z m-108 10 c3 -5 1 -10 -4 -10 -6 0 -11 5 -11 10 0 6 2
10 4 10 3 0 8 -4 11 -10z m29 -5 c3 -8 1 -15 -4 -15 -6 0 -10 7 -10 15 0 8 2
15 4 15 2 0 6 -7 10 -15z m5071 -4 c-3 -6 -11 -11 -17 -11 -6 0 -6 6 2 15 14
17 26 13 15 -4z m-4175 -45 c0 -3 -4 -8 -10 -11 -5 -3 -10 -1 -10 4 0 6 5 11
10 11 6 0 10 -2 10 -4z m4170 -16 c0 -5 -7 -7 -15 -4 -8 4 -15 8 -15 10 0 2 7
4 15 4 8 0 15 -4 15 -10z m-4195 -28 c-3 -3 -11 0 -18 7 -9 10 -8 11 6 5 10
-3 15 -9 12 -12z m4546 -5 c-10 -9 -11 -8 -5 6 3 10 9 15 12 12 3 -3 0 -11 -7
-18z m-4486 3 c-3 -5 -10 -10 -16 -10 -5 0 -9 5 -9 10 0 6 7 10 16 10 8 0 12
-4 9 -10z m4470 -30 c-3 -5 -11 -10 -16 -10 -6 0 -7 5 -4 10 3 6 11 10 16 10
6 0 7 -4 4 -10z m-332 -41 c-9 -9 -12 -7 -10 9 1 14 5 18 11 12 7 -7 6 -14 -1
-21z m91 10 c-6 -11 -24 -2 -24 11 0 5 7 7 15 4 8 -4 12 -10 9 -15z m136 -63
c0 -2 -7 -7 -16 -10 -8 -3 -12 -2 -9 4 6 10 25 14 25 6z m146 -22 c-4 -9 -9
-15 -11 -12 -3 3 -3 13 1 22 4 9 9 15 11 12 3 -3 3 -13 -1 -22z m-26 -28 c0
-3 -4 -8 -10 -11 -5 -3 -10 -1 -10 4 0 6 5 11 10 11 6 0 10 -2 10 -4z m-20
-56 c0 -5 -10 -10 -22 -10 -19 0 -20 2 -8 10 19 13 30 13 30 0z m21 -17 c-12
-20 -14 -14 -5 12 4 9 9 14 11 11 3 -2 0 -13 -6 -23z m39 -67 c0 -3 -4 -8 -10
-11 -5 -3 -10 -1 -10 4 0 6 5 11 10 11 6 0 10 -2 10 -4z m-70 -26 c0 -5 -5
-10 -11 -10 -5 0 -7 5 -4 10 3 6 8 10 11 10 2 0 4 -4 4 -10z m-2815 -120 c-3
-5 -14 -10 -23 -9 -14 0 -13 2 3 9 27 11 27 11 20 0z m285 -154 c0 -2 -7 -9
-15 -16 -13 -11 -14 -10 -9 4 5 14 24 23 24 12z m-145 -86 c3 -5 1 -10 -4 -10
-6 0 -11 5 -11 10 0 6 2 10 4 10 3 0 8 -4 11 -10z m-1565 -140 c0 -5 -5 -10
-11 -10 -5 0 -7 5 -4 10 3 6 8 10 11 10 2 0 4 -4 4 -10z m1571 -53 c-10 -9
-11 -8 -5 6 3 10 9 15 12 12 3 -3 0 -11 -7 -18z m-1571 -7 c0 -5 -2 -10 -4
-10 -3 0 -8 5 -11 10 -3 6 -1 10 4 10 6 0 11 -4 11 -10z m47 -316 c-3 -3 -12
-4 -19 -1 -8 3 -5 6 6 6 11 1 17 -2 13 -5z m-1314 -505 c-8 -8 -13 -7 -18 2
-5 8 -4 10 3 5 7 -4 12 -2 12 5 0 7 3 9 7 6 4 -4 2 -12 -4 -18z m37 8 c0 -2
-10 -12 -22 -23 l-23 -19 19 23 c18 21 26 27 26 19z m-90 -21 c0 -3 -4 -8 -10
-11 -5 -3 -10 -1 -10 4 0 6 5 11 10 11 6 0 10 -2 10 -4z m-154 -60 c-29 -26
-34 -41 -10 -32 8 3 13 2 10 -3 -3 -5 -14 -11 -25 -14 -15 -4 -18 -1 -14 12 8
21 44 61 55 61 5 0 -2 -11 -16 -24z m24 -6 c0 -5 -5 -10 -11 -10 -5 0 -7 5 -4
10 3 6 8 10 11 10 2 0 4 -4 4 -10z m152 -22 c-7 -7 -12 -8 -12 -2 0 6 3 14 7
17 3 4 9 5 12 2 2 -3 -1 -11 -7 -17z m138 18 c0 -2 -7 -7 -16 -10 -8 -3 -12
-2 -9 4 6 10 25 14 25 6z m-135 -46 c-3 -5 -11 -10 -16 -10 -6 0 -7 5 -4 10 3
6 11 10 16 10 6 0 7 -4 4 -10z m-215 -20 c0 -5 -4 -10 -10 -10 -5 0 -10 5 -10
10 0 6 5 10 10 10 6 0 10 -4 10 -10z m30 -4 c0 -3 -4 -8 -10 -11 -5 -3 -10 -1
-10 4 0 6 5 11 10 11 6 0 10 -2 10 -4z m31 -10 c-6 -7 -8 -22 -4 -32 6 -17 5
-17 -10 -5 -16 13 -16 15 -1 32 20 22 32 26 15 5z m20 -9 c-10 -9 -11 -8 -5 6
3 10 9 15 12 12 3 -3 0 -11 -7 -18z m78 3 c-14 -11 -18 -19 -11 -20 7 0 10 -5
6 -11 -5 -8 -9 -8 -14 1 -6 9 -11 7 -19 -9 -10 -18 -9 -23 11 -31 l23 -9 -23
0 c-37 -1 -38 27 -1 65 18 19 37 34 42 34 5 0 -1 -9 -14 -20z m124 6 c4 -10 0
-12 -15 -8 -15 4 -17 7 -6 13 17 11 15 11 21 -5z m77 -6 c0 -5 -7 -7 -15 -4
-8 4 -15 8 -15 10 0 2 7 4 15 4 8 0 15 -4 15 -10z m-376 -31 c-3 -5 -10 -7
-15 -3 -5 3 -7 10 -3 15 3 5 10 7 15 3 5 -3 7 -10 3 -15z m206 8 c0 -2 -10
-12 -22 -23 l-23 -19 19 23 c18 21 26 27 26 19z m-160 -17 c0 -5 -2 -10 -4
-10 -3 0 -8 5 -11 10 -3 6 -1 10 4 10 6 0 11 -4 11 -10z m180 -3 c0 -2 -10
-12 -22 -23 l-23 -19 19 23 c18 21 26 27 26 19z m-240 -27 c0 -5 -5 -10 -11
-10 -5 0 -7 5 -4 10 3 6 8 10 11 10 2 0 4 -4 4 -10z m300 0 c0 -5 -2 -10 -4
-10 -3 0 -8 5 -11 10 -3 6 -1 10 4 10 6 0 11 -4 11 -10z m50 -10 c0 -5 -2 -10
-4 -10 -3 0 -8 5 -11 10 -3 6 -1 10 4 10 6 0 11 -4 11 -10z m-35 -20 c3 -5 1
-10 -4 -10 -6 0 -11 5 -11 10 0 6 2 10 4 10 3 0 8 -4 11 -10z m2085 6 c0 -2
-8 -10 -17 -17 -16 -13 -17 -12 -4 4 13 16 21 21 21 13z m-2340 -16 c0 -5 -5
-10 -11 -10 -5 0 -7 5 -4 10 3 6 8 10 11 10 2 0 4 -4 4 -10z m489 -34 c-3 -3
-11 5 -18 17 -13 21 -12 21 5 5 10 -10 16 -20 13 -22z m-539 -6 c0 -5 -2 -10
-4 -10 -3 0 -8 5 -11 10 -3 6 -1 10 4 10 6 0 11 -4 11 -10z m330 1 c0 -6 -4
-12 -8 -15 -5 -3 -9 1 -9 9 0 8 4 15 9 15 4 0 8 -4 8 -9z m-120 -61 c0 -5 -2
-10 -4 -10 -3 0 -8 5 -11 10 -3 6 -1 10 4 10 6 0 11 -4 11 -10z m-62 -25 c13
5 14 3 5 -6 -14 -14 -33 -3 -32 19 1 15 2 14 6 -1 3 -12 10 -16 21 -12z m122
21 c0 -3 -4 -8 -10 -11 -5 -3 -10 -1 -10 4 0 6 5 11 10 11 6 0 10 -2 10 -4z
m27 -16 c-1 -12 -5 -16 -10 -11 -5 5 -6 14 -3 20 11 16 15 13 13 -9z m233 16
c0 -11 -19 -15 -25 -6 -3 5 1 10 9 10 9 0 16 -2 16 -4z m240 -16 c0 -5 -4 -10
-10 -10 -5 0 -10 5 -10 10 0 6 5 10 10 10 6 0 10 -4 10 -10z m-545 -10 c3 -5
1 -10 -4 -10 -6 0 -11 5 -11 10 0 6 2 10 4 10 3 0 8 -4 11 -10z m1945 -5 c-7
-9 -15 -13 -19 -10 -3 3 1 10 9 15 21 14 24 12 10 -5z m-1975 -5 c3 -5 1 -10
-4 -10 -6 0 -11 5 -11 10 0 6 2 10 4 10 3 0 8 -4 11 -10z m222 -22 c-3 -8 -6
-5 -6 6 -1 11 2 17 5 13 3 -3 4 -12 1 -19z m1823 8 c0 -3 -4 -8 -10 -11 -5 -3
-10 -1 -10 4 0 6 5 11 10 11 6 0 10 -2 10 -4z m-210 -26 c0 -5 -5 -10 -11 -10
-5 0 -7 5 -4 10 3 6 8 10 11 10 2 0 4 -4 4 -10z m347 -45 c0 -8 -4 -15 -9 -15
-10 0 -11 14 -1 23 9 10 10 9 10 -8z m-1852 -13 c-3 -3 -11 0 -18 7 -9 10 -8
11 6 5 10 -3 15 -9 12 -12z m1775 -2 c0 -5 -5 -10 -11 -10 -5 0 -7 5 -4 10 3
6 8 10 11 10 2 0 4 -4 4 -10z m-190 -65 c0 -8 -2 -15 -4 -15 -2 0 -6 7 -10 15
-3 8 -1 15 4 15 6 0 10 -7 10 -15z m137 -71 c-3 -3 -12 -4 -19 -1 -8 3 -5 6 6
6 11 1 17 -2 13 -5z m60 0 c-3 -3 -12 -4 -19 -1 -8 3 -5 6 6 6 11 1 17 -2 13
-5z"/>
<path d="M6715 11960 c3 -5 8 -10 11 -10 2 0 4 5 4 10 0 6 -5 10 -11 10 -5 0
-7 -4 -4 -10z"/>
<path d="M6968 11779 c-10 -5 -18 -15 -18 -22 0 -8 3 -8 9 1 4 8 11 13 15 13
18 -3 26 0 26 9 0 13 -10 12 -32 -1z"/>
<path d="M3340 8179 c0 -6 -7 -9 -15 -5 -8 3 -26 -5 -40 -18 -21 -19 -23 -25
-12 -35 11 -8 20 -6 38 12 38 36 53 57 40 57 -6 0 -11 -5 -11 -11z m-35 -39
c-20 -23 -29 -21 -19 4 3 9 13 16 22 16 13 0 12 -3 -3 -20z"/>
<path d="M3396 8178 c3 -4 0 -8 -7 -8 -7 0 -10 -2 -8 -5 7 -6 49 6 49 14 0 4
-9 7 -19 7 -11 0 -17 -4 -15 -8z"/>
<path d="M3500 8160 c0 -6 7 -10 15 -10 8 0 15 2 15 4 0 2 -7 6 -15 10 -8 3
-15 1 -15 -4z"/>
<path d="M3428 8153 c6 -2 18 -2 25 0 6 3 1 5 -13 5 -14 0 -19 -2 -12 -5z"/>
<path d="M3546 8153 c-3 -3 -3 -10 0 -14 7 -12 34 -11 34 0 0 11 -26 22 -34
14z"/>
<path d="M3615 8139 c-4 -6 -5 -12 -2 -15 2 -3 7 2 10 11 7 17 1 20 -8 4z"/>
<path d="M3410 8130 c0 -5 5 -10 11 -10 5 0 7 5 4 10 -3 6 -8 10 -11 10 -2 0
-4 -4 -4 -10z"/>
<path d="M3480 8133 c0 -5 10 -18 23 -29 l22 -19 -20 25 c-11 14 -21 27 -22
29 -2 2 -3 0 -3 -6z"/>
<path d="M3637 8133 c-11 -10 -8 -43 3 -43 6 0 10 -8 11 -17 0 -12 2 -13 6 -5
3 7 -1 19 -7 28 -19 21 -8 25 24 9 32 -17 50 -20 23 -4 -9 6 -15 14 -12 20 3
5 -1 6 -10 2 -10 -3 -20 -1 -24 6 -4 6 -10 8 -14 4z"/>
<path d="M3350 8120 c-12 -8 -11 -10 7 -10 12 0 25 5 28 10 8 13 -15 13 -35 0z"/>
<path d="M3545 8101 c23 -22 32 -26 40 -17 6 7 17 15 25 19 13 5 13 6 0 6 -9
1 -21 -4 -26 -9 -7 -7 -18 -4 -34 10 -35 30 -39 24 -5 -9z"/>
<path d="M3735 8110 c3 -5 8 -10 11 -10 2 0 4 5 4 10 0 6 -5 10 -11 10 -5 0
-7 -4 -4 -10z"/>
<path d="M3305 8100 c-3 -5 -1 -10 4 -10 6 0 11 5 11 10 0 6 -2 10 -4 10 -3 0
-8 -4 -11 -10z"/>
<path d="M3470 8106 c0 -2 8 -10 18 -17 15 -13 16 -12 3 4 -13 16 -21 21 -21
13z"/>
<path d="M3530 8080 c0 -5 5 -10 11 -10 5 0 7 5 4 10 -3 6 -8 10 -11 10 -2 0
-4 -4 -4 -10z"/>
<path d="M3710 8080 c-8 -5 -12 -11 -9 -14 2 -3 11 -1 19 4 8 5 12 11 9 14 -2
3 -11 1 -19 -4z"/>
<path d="M3745 8080 c3 -5 8 -10 11 -10 2 0 4 5 4 10 0 6 -5 10 -11 10 -5 0
-7 -4 -4 -10z"/>
<path d="M3780 8080 c0 -5 5 -10 10 -10 6 0 10 5 10 10 0 6 -4 10 -10 10 -5 0
-10 -4 -10 -10z"/>
<path d="M3439 8063 c-13 -16 -12 -17 4 -4 9 7 17 15 17 17 0 8 -8 3 -21 -13z"/>
<path d="M3395 8050 c3 -5 8 -10 11 -10 2 0 4 5 4 10 0 6 -5 10 -11 10 -5 0
-7 -4 -4 -10z"/>
<path d="M3456 8044 c-5 -14 -4 -15 9 -4 17 14 19 20 6 20 -5 0 -12 -7 -15
-16z"/>
<path d="M3595 8050 c3 -5 8 -10 11 -10 2 0 4 5 4 10 0 6 -5 10 -11 10 -5 0
-7 -4 -4 -10z"/>
<path d="M3790 8051 c0 -7 -6 -11 -13 -8 -8 3 -20 1 -28 -4 -10 -7 -5 -9 16
-7 17 2 35 -3 43 -12 11 -12 11 -11 1 10 -15 32 -19 36 -19 21z"/>
<path d="M3349 8033 c-13 -16 -12 -17 4 -4 16 13 21 21 13 21 -2 0 -10 -8 -17
-17z"/>
<path d="M3146 8023 c-6 -14 -5 -15 5 -6 7 7 10 15 7 18 -3 3 -9 -2 -12 -12z"/>
<path d="M3421 8028 c-1 -10 -6 -18 -12 -18 -5 0 -7 -5 -3 -11 9 -15 28 16 20
34 -2 7 -5 4 -5 -5z"/>
<path d="M3485 8020 c3 -5 8 -10 11 -10 2 0 4 5 4 10 0 6 -5 10 -11 10 -5 0
-7 -4 -4 -10z"/>
<path d="M3595 8020 c-3 -5 -1 -10 4 -10 6 0 11 5 11 10 0 6 -2 10 -4 10 -3 0
-8 -4 -11 -10z"/>
<path d="M3226 8011 c-4 -5 3 -7 14 -4 23 6 26 13 6 13 -8 0 -17 -4 -20 -9z"/>
<path d="M3356 8012 c-2 -4 7 -13 21 -19 25 -12 25 -12 8 7 -20 22 -22 23 -29
12z"/>
<path d="M3563 8005 c0 -8 4 -12 9 -9 5 3 6 10 3 15 -9 13 -12 11 -12 -6z"/>
<path d="M3667 8014 c7 -3 9 -13 6 -22 -6 -14 -5 -15 9 -2 16 15 7 31 -17 29
-5 0 -5 -3 2 -5z"/>
<path d="M3270 8000 c0 -5 5 -10 10 -10 6 0 10 5 10 10 0 6 -4 10 -10 10 -5 0
-10 -4 -10 -10z"/>
<path d="M3737 7991 c-4 -17 -3 -21 5 -13 5 5 8 16 6 23 -3 8 -7 3 -11 -10z"/>
<path d="M3770 8000 c18 -12 30 -13 30 -2 0 4 -10 9 -22 9 -18 2 -20 0 -8 -7z"/>
<path d="M3308 7988 c9 -9 15 -9 24 0 9 9 7 12 -12 12 -19 0 -21 -3 -12 -12z"/>
<path d="M3701 7983 c-7 -8 -11 -16 -8 -19 2 -2 10 2 17 11 17 20 9 27 -9 8z"/>
<path d="M3810 7989 c0 -5 5 -7 10 -4 6 3 10 8 10 11 0 2 -4 4 -10 4 -5 0 -10
-5 -10 -11z"/>
<path d="M3520 7980 c-8 -5 -11 -12 -7 -16 4 -4 13 -2 19 4 15 15 7 24 -12 12z"/>
<path d="M3550 7970 c0 -5 5 -10 11 -10 5 0 7 5 4 10 -3 6 -8 10 -11 10 -2 0
-4 -4 -4 -10z"/>
<path d="M3586 7955 c-11 -8 -16 -15 -10 -15 5 0 18 7 28 15 11 8 16 15 10 15
-5 0 -18 -7 -28 -15z"/>
<path d="M3796 7955 c4 -8 11 -15 16 -15 6 0 5 6 -2 15 -7 8 -14 15 -16 15 -2
0 -1 -7 2 -15z"/>
<path d="M3826 7955 c4 -8 8 -15 10 -15 2 0 4 7 4 15 0 8 -4 15 -10 15 -5 0
-7 -7 -4 -15z"/>
<path d="M2843 7832 c3 -28 27 -37 35 -13 3 8 0 11 -7 7 -6 -4 -9 -2 -5 7 3 8
-2 17 -10 20 -11 4 -14 -1 -13 -21z"/>
<path d="M3071 7881 c-17 -11 -6 -31 17 -30 11 0 12 3 5 6 -18 7 -16 23 2 23
8 0 15 -7 15 -15 0 -8 4 -15 10 -15 5 0 7 7 4 15 -4 8 -1 15 6 15 8 0 10 -9 6
-25 -5 -18 -2 -25 7 -25 9 0 14 10 13 28 -1 24 -5 27 -36 30 -19 1 -41 -2 -49
-7z"/>
<path d="M3185 7882 c-20 -14 -6 -72 18 -72 8 0 8 3 -1 12 -17 17 -15 28 6 28
13 0 14 2 3 9 -7 5 -10 14 -7 20 8 12 -4 14 -19 3z"/>
<path d="M3231 7859 c6 -13 6 -19 -1 -19 -5 0 -10 -10 -10 -22 0 -22 0 -22 13
-3 25 37 27 53 6 58 -16 4 -17 2 -8 -14z"/>
<path d="M3270 7848 c0 -6 3 -9 6 -5 3 3 17 2 30 -3 18 -7 22 -6 17 5 -6 18
-53 20 -53 3z"/>
<path d="M3050 7821 c0 -33 6 -37 30 -20 12 9 12 10 -4 5 -15 -5 -17 -2 -13
14 3 11 1 23 -4 26 -5 3 -9 -9 -9 -25z"/>
<path d="M3094 7825 c8 -8 20 -15 27 -15 7 0 4 6 -7 15 -25 19 -40 19 -20 0z"/>
<path d="M3422 7822 c7 -9 13 -18 14 -20 1 -2 4 4 7 12 3 8 -2 16 -14 19 -17
5 -18 3 -7 -11z"/>
<path d="M3563 7819 c-1 -10 4 -22 10 -25 7 -4 9 -4 5 1 -4 4 -3 14 2 20 7 9
7 14 -3 18 -8 3 -13 -3 -14 -14z"/>
<path d="M3261 7821 c-8 -5 -9 -11 -3 -15 5 -3 12 1 16 9 6 17 6 18 -13 6z"/>
<path d="M3390 7820 c0 -5 5 -10 11 -10 5 0 7 5 4 10 -3 6 -8 10 -11 10 -2 0
-4 -4 -4 -10z"/>
<path d="M3459 7806 c-7 -14 -23 -26 -41 -30 -16 -3 -27 -10 -23 -15 3 -6 16
-4 32 4 24 13 30 12 50 0 12 -8 30 -15 40 -15 17 1 17 2 -1 15 -10 8 -22 12
-26 10 -4 -3 -13 2 -20 10 -11 14 -10 14 11 7 13 -5 30 -7 37 -5 16 6 33 -39
18 -50 -7 -6 -6 -7 3 -5 20 6 26 58 7 58 -9 0 -13 6 -10 14 7 19 -15 31 -29
17 -9 -9 -7 -10 7 -5 13 5 17 4 12 -4 -9 -14 -42 -16 -50 -3 -4 5 0 12 6 14
10 4 10 6 0 6 -7 1 -17 -10 -23 -23z"/>
<path d="M3654 7795 c-4 -8 -10 -12 -15 -9 -5 3 -6 -2 -3 -11 7 -18 7 -18 23
13 6 12 9 22 6 22 -3 0 -8 -7 -11 -15z"/>
<path d="M3100 7790 c0 -5 5 -10 10 -10 6 0 10 5 10 10 0 6 -4 10 -10 10 -5 0
-10 -4 -10 -10z"/>
<path d="M3136 7791 c-3 -5 3 -11 15 -14 16 -4 18 -3 8 9 -13 16 -16 17 -23 5z"/>
<path d="M3375 7790 c3 -5 10 -10 16 -10 5 0 9 5 9 10 0 6 -7 10 -16 10 -8 0
-12 -4 -9 -10z"/>
<path d="M3705 7790 c-3 -5 -1 -10 4 -10 6 0 11 5 11 10 0 6 -2 10 -4 10 -3 0
-8 -4 -11 -10z"/>
<path d="M3775 7790 c-3 -5 -1 -10 4 -10 6 0 11 5 11 10 0 6 -2 10 -4 10 -3 0
-8 -4 -11 -10z"/>
<path d="M3674 7779 c-3 -6 -1 -16 4 -21 8 -8 11 -5 9 11 -1 24 -3 25 -13 10z"/>
<path d="M3576 7765 c-4 -11 3 -19 19 -25 14 -5 25 -12 25 -16 0 -3 -7 -4 -15
0 -8 3 -15 1 -15 -3 0 -11 26 -22 34 -14 11 11 6 43 -5 41 -6 -2 -14 3 -17 11
-3 8 0 11 7 7 6 -4 11 -2 11 3 0 17 -37 13 -44 -4z"/>
<path d="M3810 7776 c0 -9 30 -14 35 -6 4 6 -3 10 -14 10 -12 0 -21 -2 -21 -4z"/>
<path d="M3714 7742 c1 -17 7 -37 15 -44 11 -11 12 -10 3 8 -6 12 -9 24 -6 27
3 3 1 13 -4 23 -8 14 -10 12 -8 -14z"/>
<path d="M3790 7755 c0 -9 6 -12 15 -9 8 4 15 7 15 9 0 2 -7 5 -15 9 -9 3 -15
0 -15 -9z"/>
<path d="M3855 7750 c-3 -5 -2 -10 4 -10 5 0 13 5 16 10 3 6 2 10 -4 10 -5 0
-13 -4 -16 -10z"/>
<path d="M3326 7742 c-3 -6 -1 -14 5 -17 15 -10 25 3 12 16 -7 7 -13 7 -17 1z"/>
<path d="M3660 7745 c0 -10 29 -24 34 -17 3 6 -3 12 -14 15 -11 3 -20 4 -20 2z"/>
<path d="M3755 7740 c-3 -5 -1 -10 4 -10 6 0 11 5 11 10 0 6 -2 10 -4 10 -3 0
-8 -4 -11 -10z"/>
<path d="M3805 7729 c-18 -8 -17 -9 4 -5 14 3 30 1 36 -4 6 -5 17 -5 25 2 12
8 12 9 -2 4 -10 -3 -20 -1 -23 4 -7 12 -14 12 -40 -1z"/>
<path d="M3800 7700 c0 -5 5 -10 11 -10 5 0 7 5 4 10 -3 6 -8 10 -11 10 -2 0
-4 -4 -4 -10z"/>
<path d="M3840 7690 c6 -4 11 -10 11 -14 -1 -14 12 -36 21 -36 6 0 5 6 -2 15
-9 11 -10 18 -1 29 9 11 6 14 -15 14 -15 0 -21 -4 -14 -8z"/>
<path d="M3780 7676 c0 -2 7 -7 16 -10 8 -3 12 -2 9 4 -6 10 -25 14 -25 6z"/>
<path d="M3817 7645 c-4 -8 -2 -17 3 -20 6 -4 10 -4 10 -1 0 2 3 11 6 20 3 9
2 16 -4 16 -5 0 -12 -7 -15 -15z"/>
<path d="M3810 7584 c0 -8 5 -12 10 -9 6 3 10 10 10 16 0 5 -4 9 -10 9 -5 0
-10 -7 -10 -16z"/>
<path d="M4370 7688 c0 -4 9 -8 20 -8 11 0 20 4 20 8 0 4 -9 8 -20 8 -11 0
-20 -4 -20 -8z"/>
<path d="M4420 7682 c0 -4 6 -14 13 -21 10 -11 7 -12 -13 -7 -14 3 -19 3 -12
0 6 -3 9 -10 6 -16 -4 -6 2 -5 15 1 13 7 21 8 21 2 0 -6 -9 -15 -19 -21 -16
-8 -22 -6 -31 7 -10 16 -11 16 -6 1 3 -9 0 -18 -5 -20 -6 -2 -7 -11 -4 -21 4
-9 11 -14 16 -11 5 3 7 10 4 15 -4 5 -1 9 6 9 7 0 23 10 36 22 22 21 23 21 30
1 6 -15 13 -18 28 -12 17 6 17 8 3 8 -10 1 -18 8 -18 16 0 9 -9 15 -21 15 -12
0 -23 8 -26 20 -5 19 -23 29 -23 12z"/>
<path d="M4455 7670 c4 -6 11 -8 16 -5 14 9 11 15 -7 15 -8 0 -12 -5 -9 -10z"/>
<path d="M4496 7671 c-4 -6 -2 -11 4 -11 6 0 8 -4 5 -10 -3 -5 -1 -10 4 -10
13 0 14 10 2 29 -6 9 -11 10 -15 2z"/>
<path d="M4535 7650 c0 -31 10 -31 18 -1 2 11 -1 22 -7 24 -7 3 -12 -6 -11
-23z"/>
<path d="M4366 7654 c-9 -8 -13 -20 -10 -25 7 -12 7 -11 23 19 14 26 9 28 -13
6z"/>
<path d="M4565 7650 c-3 -5 -3 -10 1 -10 4 0 -1 -9 -10 -19 -11 -12 -13 -21
-7 -25 8 -6 41 41 41 59 0 9 -18 6 -25 -5z"/>
<path d="M4601 7634 c0 -11 3 -14 6 -6 3 7 2 16 -1 19 -3 4 -6 -2 -5 -13z"/>
<path d="M4439 7594 c-22 -25 -22 -26 -3 -16 17 9 24 8 33 -2 11 -13 51 -29
51 -20 0 2 -14 11 -31 19 -19 11 -29 22 -25 31 8 20 3 18 -25 -12z"/>
<path d="M4577 7603 c-4 -6 -2 -15 3 -18 7 -4 -3 -14 -21 -23 -39 -20 -47 -37
-22 -46 10 -3 24 -9 31 -12 11 -5 11 -3 1 14 -7 11 -19 18 -28 15 -10 -3 -9 0
3 8 16 10 21 9 31 -5 13 -17 31 -23 21 -7 -10 15 6 43 20 37 7 -3 16 -1 19 4
4 6 1 10 -4 10 -18 0 -12 18 7 23 16 4 16 5 -1 6 -10 0 -20 -6 -23 -14 -8 -20
-22 -19 -26 3 -2 12 -6 13 -11 5z"/>
<path d="M4510 7593 c8 -3 22 -11 30 -17 13 -10 13 -9 1 7 -7 9 -21 17 -30 16
-13 0 -14 -1 -1 -6z"/>
<path d="M4365 7580 c-3 -5 -1 -10 4 -10 6 0 11 5 11 10 0 6 -2 10 -4 10 -3 0
-8 -4 -11 -10z"/>
<path d="M4643 7565 c-6 -14 -7 -25 -2 -25 11 0 22 25 17 39 -1 6 -8 -1 -15
-14z"/>
<path d="M4445 7560 c-4 -6 -11 -7 -17 -4 -6 4 -9 1 -6 -6 7 -22 25 -22 31 0
6 22 2 26 -8 10z"/>
<path d="M4393 7536 c5 -12 1 -23 -10 -32 -10 -7 -13 -14 -7 -14 6 0 18 8 27
18 14 15 14 18 -1 32 -14 13 -15 12 -9 -4z"/>
<path d="M4470 7540 c0 -5 5 -10 10 -10 6 0 10 5 10 10 0 6 -4 10 -10 10 -5 0
-10 -4 -10 -10z"/>
<path d="M4383 7480 c-13 -5 -23 -15 -23 -21 0 -8 4 -9 13 0 8 6 16 9 19 6 3
-3 11 1 18 10 14 17 6 18 -27 5z"/>
<path d="M4590 7470 c0 -5 5 -10 10 -10 6 0 10 5 10 10 0 6 -4 10 -10 10 -5 0
-10 -4 -10 -10z"/>
<path d="M4410 7460 c0 -5 5 -10 10 -10 6 0 10 5 10 10 0 6 -4 10 -10 10 -5 0
-10 -4 -10 -10z"/>
<path d="M3865 6120 c-3 -5 -1 -10 4 -10 6 0 11 5 11 10 0 6 -2 10 -4 10 -3 0
-8 -4 -11 -10z"/>
<path d="M4142 6103 c2 -10 -6 -26 -17 -35 -18 -16 -18 -17 -2 -18 9 0 17 -8
17 -17 0 -15 2 -14 14 3 13 17 13 19 0 22 -13 3 -13 5 1 16 10 7 14 18 9 29
-8 22 -26 22 -22 0z"/>
<path d="M4234 6098 c-4 -5 -1 -14 7 -18 14 -9 29 -4 29 10 0 13 -29 20 -36 8z"/>
<path d="M4324 6095 c17 -13 17 -15 3 -21 -10 -3 -17 -11 -17 -16 0 -6 7 -8
15 -4 8 3 15 1 15 -4 0 -14 -22 -12 -44 5 -22 17 -36 19 -36 6 0 -5 9 -11 20
-14 11 -3 20 -13 20 -22 0 -15 2 -15 22 -1 12 9 30 16 40 16 10 0 18 5 18 10
0 6 -7 10 -15 10 -8 0 -15 5 -15 10 0 14 13 13 29 -2 11 -11 13 -10 9 2 -3 8
-14 16 -26 18 -12 2 -22 8 -22 13 0 5 -8 9 -17 9 -16 -1 -16 -2 1 -15z"/>
<path d="M4397 6089 c13 -13 -14 -67 -37 -72 -10 -2 -7 -5 8 -9 12 -3 20 -2
16 3 -3 5 0 9 6 9 6 0 9 4 5 9 -3 5 4 16 15 24 23 16 18 47 -8 47 -12 0 -13
-3 -5 -11z"/>
<path d="M4454 6075 c10 -8 24 -11 29 -8 6 4 2 10 -9 14 -31 12 -40 9 -20 -6z"/>
<path d="M4172 6068 c2 -6 10 -14 16 -16 7 -2 10 2 6 12 -7 18 -28 22 -22 4z"/>
<path d="M4200 6070 c0 -5 5 -10 10 -10 6 0 10 5 10 10 0 6 -4 10 -10 10 -5 0
-10 -4 -10 -10z"/>
<path d="M4236 6057 c3 -10 -4 -14 -27 -15 -32 -1 -47 -8 -36 -18 3 -3 13 -2
22 3 25 14 77 4 71 -14 -4 -9 -1 -13 6 -11 22 8 18 24 -12 46 -17 13 -27 16
-24 9z"/>
<path d="M4524 6062 c4 -8 0 -12 -11 -12 -15 0 -16 -2 -3 -10 9 -5 17 -5 20 1
4 5 15 0 26 -12 17 -21 18 -22 1 -16 -11 4 -16 3 -12 -3 9 -15 35 -12 35 3 0
14 -21 36 -49 52 -9 5 -12 4 -7 -3z"/>
<path d="M4443 6053 c4 -3 -1 -15 -10 -26 -17 -18 -17 -18 12 -6 34 15 61 36
33 26 -10 -4 -18 -2 -18 3 0 6 -5 10 -12 10 -6 0 -8 -3 -5 -7z"/>
<path d="M4410 6039 c0 -5 5 -7 10 -4 6 3 10 8 10 11 0 2 -4 4 -10 4 -5 0 -10
-5 -10 -11z"/>
<path d="M4490 6019 c0 -5 5 -7 10 -4 6 3 10 8 10 11 0 2 -4 4 -10 4 -5 0 -10
-5 -10 -11z"/>
<path d="M4315 6002 c-3 -9 -3 -13 0 -10 4 4 18 3 31 -2 31 -12 31 -7 0 13
-22 15 -25 15 -31 -1z"/>
<path d="M4466 5995 c-6 -17 12 -31 24 -19 5 5 2 14 -5 21 -10 10 -14 9 -19
-2z"/>
<path d="M4391 5983 c-14 -11 -13 -12 9 -9 14 3 31 5 38 5 6 1 12 5 12 9 0 12
-40 9 -59 -5z"/>
<path d="M4505 5970 c-10 -11 -13 -20 -7 -20 6 0 13 4 17 9 3 6 17 6 35 1 27
-8 28 -7 17 11 -7 11 -14 14 -15 9 -3 -8 -8 -8 -16 0 -9 7 -18 4 -31 -10z"/>
</g>
</svg>
