<?xml version="1.0" standalone="no"?>
<!DOCTYPE svg PUBLIC "-//W3C//DTD SVG 20010904//EN"
 "http://www.w3.org/TR/2001/REC-SVG-20010904/DTD/svg10.dtd">
<svg version="1.0" xmlns="http://www.w3.org/2000/svg"
 width="300.000000pt" height="300.000000pt" viewBox="0 0 300.000000 300.000000"
 preserveAspectRatio="xMidYMid meet">
<metadata>
Created by potrace 1.10, written by Peter Selinger 2001-2011
</metadata>
<g transform="translate(0.000000,300.000000) scale(0.100000,-0.100000)"
fill="#000000" stroke="none">
<path d="M936 2793 c-34 -54 -54 -128 -43 -157 12 -32 -15 -86 -70 -140 -31
-31 -58 -54 -59 -53 -2 2 3 21 11 42 8 22 14 47 15 56 0 8 14 25 30 37 39 29
42 72 5 72 -16 0 -25 6 -25 15 0 18 -12 19 -28 3 -13 -13 -17 -82 -4 -75 13 9
11 -47 -4 -99 -15 -51 -51 -113 -98 -169 l-25 -30 6 40 c4 22 17 64 30 93 14
33 23 72 23 105 0 53 -35 177 -50 177 -4 0 -20 -38 -35 -84 -24 -75 -26 -89
-16 -135 6 -29 18 -65 26 -82 26 -50 0 -153 -55 -219 l-22 -25 7 70 c10 92 7
132 -9 164 -16 30 -94 121 -105 121 -3 0 -4 -39 0 -88 6 -91 19 -127 65 -181
39 -47 40 -92 5 -191 -31 -88 -37 -85 -32 16 3 53 -14 114 -40 148 -23 29
-108 91 -115 83 -3 -2 1 -26 7 -53 7 -27 16 -67 21 -88 7 -27 26 -55 61 -89
l52 -51 -1 -85 c0 -47 -5 -95 -12 -106 -10 -17 -11 -11 -12 40 0 81 -24 119
-96 152 -30 14 -57 23 -59 21 -3 -2 4 -29 15 -59 15 -40 35 -68 77 -106 l57
-52 -2 -68 c-1 -37 -4 -248 -7 -468 l-5 -400 102 -61 c57 -33 289 -174 515
-313 227 -138 419 -254 426 -257 8 -2 53 20 102 51 131 82 141 82 227 9 29
-25 62 -47 73 -49 40 -8 125 -12 125 -6 0 4 -28 31 -62 61 -61 53 -63 54 -137
60 l-76 5 68 19 c89 24 132 18 208 -33 60 -40 63 -41 150 -41 49 0 89 3 89 8
-1 7 -48 40 -128 90 -32 20 -46 22 -97 17 -33 -3 -82 -8 -110 -10 l-50 -5 74
37 c99 49 160 54 227 20 74 -38 112 -42 198 -21 42 10 76 20 76 23 -1 12 -168
81 -196 81 -16 0 -47 -9 -69 -19 -23 -10 -63 -21 -90 -25 l-50 -7 85 49 c104
61 184 81 229 58 42 -22 113 -20 193 6 65 21 95 45 43 36 -13 -3 -22 -2 -20 3
7 10 -98 49 -131 49 -40 0 -84 -27 -78 -48 5 -14 4 -14 -4 -3 -8 11 -14 12
-24 4 -13 -10 -110 -45 -114 -40 -6 6 143 121 175 135 20 9 66 16 106 17 77 1
113 17 195 87 l44 38 -75 0 c-84 0 -155 -27 -199 -75 -26 -28 -100 -71 -100
-58 1 5 24 33 53 65 55 60 151 118 227 138 52 14 100 45 100 66 0 20 -54 18
-71 -3 -10 -11 -10 -14 -1 -9 7 4 12 2 12 -4 0 -6 5 -8 10 -5 6 3 10 2 10 -2
0 -5 -15 -14 -32 -21 -31 -11 -32 -10 -13 5 20 15 20 15 -2 10 -30 -7 -29 1 4
35 21 22 24 31 15 40 -17 17 -60 -26 -68 -68 -4 -25 -16 -40 -43 -55 -20 -12
-50 -30 -66 -40 l-30 -18 42 88 c40 84 96 151 127 151 29 0 95 71 115 126 32
84 29 88 -41 45 -67 -40 -112 -94 -104 -123 2 -10 0 -16 -5 -12 -5 3 -9 -4 -9
-14 0 -17 -39 -77 -40 -62 -1 27 36 166 56 207 22 45 25 60 19 110 -3 32 -9
213 -13 402 l-7 345 -538 323 c-296 178 -543 323 -547 323 -5 0 -60 -32 -122
-72 -154 -97 -203 -123 -273 -143 -33 -10 -80 -24 -105 -31 l-45 -14 30 25
c38 31 87 55 113 55 40 0 96 33 155 91 33 33 57 62 55 65 -11 10 -131 -16
-171 -38 -24 -14 -56 -44 -75 -72 -27 -40 -157 -156 -175 -156 -6 0 30 71 43
84 14 14 13 29 -2 20 -7 -4 -8 -3 -4 5 4 6 11 9 16 6 15 -9 39 61 46 131 8 81
-3 82 -50 7z m610 -20 c28 -16 267 -158 532 -318 l482 -289 0 -301 c-1 -165
-5 -318 -10 -340 -5 -22 -14 -62 -21 -89 -8 -37 -9 -66 0 -117 12 -74 -4 -192
-33 -246 l-15 -28 -1 33 c0 18 5 53 11 78 16 63 -1 114 -58 175 -25 27 -49 49
-54 49 -7 0 -4 -61 7 -136 2 -17 20 -57 40 -90 33 -54 35 -64 32 -120 -3 -52
-10 -71 -46 -126 -35 -54 -102 -132 -79 -91 4 6 12 35 17 63 6 29 21 65 35 82
27 32 34 88 11 88 -21 0 -44 -42 -48 -86 -3 -36 -4 -35 -12 20 -8 53 -6 64 18
111 32 63 27 90 -15 81 -16 -3 -29 -1 -31 6 -2 6 -10 8 -16 4 -17 -10 -15 -58
4 -84 31 -45 47 -247 23 -294 -19 -37 -77 -105 -109 -128 -30 -21 -29 -20 20
74 43 81 50 103 50 151 0 54 -33 155 -50 155 -8 0 -50 -136 -50 -164 0 -11 7
-46 17 -79 l16 -58 -28 -60 c-26 -53 -38 -65 -104 -108 -42 -26 -83 -52 -91
-56 -8 -5 8 18 36 51 106 124 124 171 102 267 -7 32 -17 58 -23 59 -5 0 -25
-30 -45 -67 -33 -63 -35 -74 -33 -151 l1 -84 -46 -52 c-36 -40 -69 -62 -140
-96 -51 -24 -95 -42 -97 -40 -2 2 24 26 57 53 33 28 75 62 93 78 18 15 40 44
48 65 19 48 33 152 20 152 -6 0 -37 -28 -70 -62 -58 -61 -75 -93 -87 -169 -4
-25 -20 -50 -46 -75 -21 -21 -36 -42 -33 -47 3 -6 1 -7 -4 -4 -14 9 -92 -26
-179 -80 l-72 -44 -273 167 c-151 91 -381 232 -511 312 l-238 145 0 389 c0
365 1 391 19 427 15 28 31 42 63 54 24 9 63 35 88 57 l45 39 -45 0 c-52 1 -72
-9 -77 -38 -3 -23 7 -27 25 -9 9 9 12 9 12 0 0 -6 -9 -16 -19 -22 -25 -13 -34
-13 -26 0 3 6 1 10 -6 10 -8 0 -8 4 1 15 8 10 9 15 1 15 -6 0 -23 -24 -38 -52
-25 -49 -28 -51 -31 -26 -7 59 60 137 147 172 62 24 106 71 81 86 -23 15 -28
13 -67 -25 -42 -41 -48 -43 -31 -12 7 12 11 25 10 29 -1 5 3 7 9 5 6 -1 14 4
16 11 7 19 -19 14 -44 -10 -13 -12 -23 -33 -23 -47 0 -16 -15 -42 -40 -70 -44
-48 -48 -41 -24 40 12 39 28 66 60 97 43 40 47 42 108 42 72 0 108 11 186 54
l55 31 -90 13 c-115 17 -154 7 -194 -48 -27 -38 -91 -98 -91 -86 0 4 13 34 28
69 33 71 80 117 146 142 l45 17 31 -26 c22 -18 43 -26 68 -26 l37 1 -24 19
c-13 11 -41 23 -62 26 -21 4 -36 10 -33 15 7 12 65 11 103 -2 43 -15 80 -5 78
22 -2 26 -31 42 -59 33 -21 -6 -21 -7 -3 -20 10 -8 14 -14 8 -14 -7 0 -15 5
-18 10 -5 8 -11 7 -20 0 -8 -7 -27 -10 -42 -9 -15 2 -33 1 -38 -3 -6 -3 -24
-9 -42 -12 -17 -4 -50 -21 -72 -37 -23 -16 -41 -27 -41 -25 0 12 103 131 132
152 73 55 154 56 204 3 40 -42 75 -59 125 -59 l41 0 -23 19 c-13 10 -30 17
-39 14 -12 -4 -12 -3 -2 5 11 7 8 14 -14 31 -30 23 -41 26 -46 10 -2 -6 -11
-7 -22 -3 -19 7 -19 8 0 15 15 6 13 8 -11 8 -45 2 -64 17 -29 24 16 3 49 -3
76 -14 27 -10 70 -19 96 -19 43 0 153 28 167 42 10 9 -63 30 -76 22 -7 -4 -9
-3 -6 3 8 12 -24 23 -65 23 -19 0 -26 4 -22 14 15 39 -60 24 -120 -24 -20 -15
-60 -34 -89 -41 -28 -6 -72 -20 -96 -31 -39 -16 -42 -17 -30 -2 32 38 157 116
217 134 85 27 192 26 251 0 65 -30 120 -26 231 16 9 4 -11 15 -50 30 -100 37
-122 39 -171 14 -24 -11 -64 -23 -89 -26 l-45 -5 51 21 c28 11 113 58 190 105
76 46 139 84 140 85 0 0 23 -12 50 -27z m-300 6 c-13 -8 -15 -14 -7 -19 8 -4
0 -15 -23 -31 -19 -13 -33 -26 -30 -30 6 -11 -24 -19 -43 -12 -10 4 -14 2 -10
-4 7 -11 -22 -28 -31 -18 -3 3 0 5 7 5 7 0 10 4 6 9 -7 13 31 24 47 15 10 -6
11 -5 1 8 -11 13 -7 18 27 33 27 12 37 21 28 26 -7 4 -23 -2 -39 -14 -69 -55
-119 -84 -119 -71 0 9 81 84 91 85 20 3 24 5 36 12 6 4 18 4 26 1 8 -3 18 -1
22 5 3 6 12 11 18 11 7 0 4 -5 -7 -11z m-312 -54 c-8 -27 -19 -54 -26 -60 -8
-7 -9 -3 -4 15 4 14 10 36 13 50 6 22 25 51 30 46 1 -1 -4 -24 -13 -51z m33
25 c-1 -11 -5 -20 -9 -20 -4 0 -5 -6 -2 -14 3 -8 0 -17 -5 -21 -6 -3 -8 -11
-5 -17 4 -7 2 -8 -4 -4 -8 5 -9 13 -3 24 5 9 10 22 10 27 2 16 12 45 16 45 2
0 3 -9 2 -20z m-322 -150 c-1 -27 2 -50 7 -50 5 0 9 10 8 23 -1 12 -1 36 0 52
1 24 4 20 15 -25 17 -67 18 -73 5 -65 -6 3 -7 -1 -4 -9 3 -9 1 -16 -5 -16 -6
0 -11 7 -11 15 0 20 -16 19 -24 -1 -3 -9 -2 -12 5 -9 6 5 9 -11 8 -44 -2 -28
-4 -51 -6 -51 -1 0 -9 13 -17 29 -12 22 -12 31 -3 41 7 7 8 10 2 7 -14 -7 -16
45 -2 62 9 11 9 13 0 8 -9 -5 -9 2 -1 30 19 69 25 70 23 3z m729 6 c29 -12 27
-13 -38 -12 -52 1 -71 5 -74 16 -5 13 -3 13 12 1 9 -8 16 -10 15 -5 -5 29 16
29 85 0z m24 -33 c-16 -2 -28 -8 -28 -13 0 -11 -102 -1 -114 11 -6 5 24 8 80
8 49 -1 77 -4 62 -6z m-318 -67 c-8 -10 1 -12 41 -8 38 4 50 2 45 -7 -5 -8
-35 -11 -91 -9 -46 2 -81 6 -78 11 2 4 8 5 13 2 4 -3 11 2 14 11 3 8 9 13 14
10 4 -2 14 -1 22 4 19 12 34 1 20 -14z m-577 -70 c9 9 9 -9 0 -31 -5 -14 -8
-12 -19 11 -11 22 -12 24 -8 5 5 -18 3 -22 -7 -15 -7 4 -3 -7 10 -24 12 -18
19 -37 15 -43 -4 -8 -3 -9 4 -5 7 4 13 0 14 -11 0 -10 2 -23 2 -30 1 -6 5 -15
9 -19 4 -4 7 -12 7 -18 0 -6 -8 1 -17 14 -10 14 -17 27 -16 30 1 3 -5 12 -13
22 -9 9 -16 22 -18 30 -1 7 -4 18 -8 23 -9 15 -6 85 4 79 4 -3 8 1 8 8 1 7 6
3 13 -10 7 -12 16 -19 20 -16z m692 25 c16 -7 13 -9 -18 -15 -21 -4 -48 -4
-60 -1 -18 5 -19 4 -7 -5 12 -10 10 -11 -10 -5 -14 3 -39 7 -56 9 -18 2 -40 9
-50 15 -15 8 5 10 81 10 55 0 109 -4 120 -8z m-664 -78 c14 -36 20 -105 9 -98
-5 3 -12 20 -15 38 -4 17 -12 35 -17 38 -9 6 -2 49 8 49 2 0 9 -12 15 -27z
m-157 -144 c1 -8 10 -26 20 -41 9 -14 16 -35 14 -45 -2 -10 2 -17 10 -15 6 1
12 -6 13 -15 0 -10 2 -26 4 -37 3 -16 1 -16 -20 4 -14 13 -22 26 -20 30 3 4
-2 13 -10 20 -18 15 -20 34 -2 24 9 -6 9 -5 0 8 -7 8 -9 18 -5 22 4 4 1 6 -7
4 -9 -2 -14 7 -15 27 -1 17 -6 37 -11 45 -6 11 -3 11 9 -1 10 -9 18 -22 20
-30z m73 -64 c6 -16 14 -48 18 -70 l6 -40 -17 35 c-9 19 -27 56 -40 81 -13 26
-24 53 -24 60 0 20 44 -30 57 -66z m347 -7 c-3 -5 -11 -7 -17 -6 -16 3 -109
-23 -124 -35 -18 -14 -16 3 3 24 9 10 23 15 32 12 10 -4 13 -2 8 6 -6 9 6 12
48 10 30 -1 53 -6 50 -11z m46 -7 c0 -15 -111 -53 -165 -56 l-50 -3 40 19 c22
11 50 18 62 16 13 -3 20 0 16 6 -4 6 2 8 15 5 12 -3 29 0 39 8 21 16 43 18 43
5z m-447 -202 c-6 -6 -14 -5 -22 5 -18 22 -4 40 16 20 10 -10 12 -19 6 -25z
m-12 -26 c17 -24 28 -47 24 -51 -4 -4 -10 -1 -12 6 -3 6 -10 9 -16 5 -7 -3 -9
-3 -5 2 5 5 -1 14 -12 22 -11 8 -20 22 -20 32 0 9 -6 23 -12 30 -11 10 -9 11
5 5 10 -3 31 -26 48 -51z m2206 -440 c1 -19 -1 -22 -8 -12 -5 8 -9 9 -9 4 0
-6 4 -15 9 -20 14 -16 23 -72 12 -79 -6 -4 -8 -13 -5 -20 3 -7 -2 -19 -11 -26
-12 -10 -15 -10 -15 4 0 10 3 15 8 13 4 -3 7 17 7 44 1 27 -3 49 -7 49 -4 0
-8 -21 -8 -46 0 -32 -4 -44 -12 -42 -15 5 -12 77 3 93 5 5 9 16 9 25 0 12 17
40 25 40 0 0 1 -12 2 -27z m-167 -167 c0 -6 8 -16 19 -23 29 -18 39 -61 26
-118 l-12 -50 -26 55 c-32 67 -43 147 -22 147 8 0 15 -5 15 -11z m253 -51
c-10 -12 -21 -21 -24 -20 -3 2 -13 -9 -23 -25 -23 -41 1 -30 34 14 14 19 33
39 44 46 16 10 15 6 -5 -31 -13 -23 -34 -46 -46 -52 -12 -5 -20 -13 -18 -17 6
-9 -25 -23 -33 -15 -3 3 1 5 8 5 11 0 11 3 2 12 -21 21 -13 48 25 83 41 37 63
37 36 0z m-416 -302 c12 -57 13 -113 3 -113 -6 0 -8 -4 -5 -10 3 -5 2 -18 -4
-27 -8 -14 -9 -9 -7 22 1 22 0 65 -4 95 -7 52 -7 50 -9 -32 -1 -91 -11 -111
-28 -55 -9 29 -2 73 23 146 6 18 26 1 31 -26z m367 -75 c-3 -4 3 -8 12 -8 28
0 10 -10 -24 -14 -21 -2 -29 0 -25 8 4 6 -1 5 -10 -3 -10 -8 -27 -15 -40 -16
-12 -2 -26 -5 -32 -6 -5 -2 -10 1 -10 6 0 6 3 9 8 8 4 -2 7 2 7 8 0 8 5 7 16
-1 12 -11 15 -11 12 0 -2 9 8 15 26 16 15 2 30 5 32 7 8 8 33 3 28 -5z m-9
-48 c-3 -4 -21 -11 -41 -15 -20 -3 -48 -13 -60 -22 -13 -8 -24 -11 -24 -5 0 6
-10 8 -22 5 -21 -4 -22 -3 -6 10 10 8 15 16 12 19 -2 3 6 3 18 1 13 -2 41 2
63 9 40 14 69 13 60 -2z m-503 1 c3 8 6 -12 7 -43 1 -41 -4 -68 -20 -97 -28
-54 -42 -62 -25 -14 7 21 11 44 8 52 -2 8 0 11 5 8 7 -4 10 14 9 48 -1 29 2
49 5 43 4 -6 8 -5 11 3z m-33 -66 c-7 -17 -11 -37 -10 -45 1 -9 -5 -33 -14
-55 l-15 -40 5 69 c2 37 10 84 17 103 11 30 14 32 21 16 5 -11 3 -31 -4 -48z
m-137 -97 c-2 -29 -11 -60 -18 -69 -8 -9 -12 -18 -9 -21 9 -9 -23 -30 -35 -23
-16 10 -2 25 18 19 13 -5 14 -4 3 4 -12 8 -10 16 8 45 11 19 21 43 20 53 0 11
-10 -1 -24 -29 -13 -27 -29 -55 -36 -63 -7 -8 -9 -17 -6 -20 3 -3 -4 -15 -15
-26 -11 -11 -22 -18 -24 -15 -8 7 7 57 17 57 5 0 9 9 9 19 0 10 16 36 35 57
19 22 35 43 35 47 0 5 5 5 10 2 6 -3 10 -1 10 4 0 6 2 11 4 11 1 0 1 -24 -2
-52z m473 7 c0 -16 -42 -18 -48 -2 -4 10 2 14 21 13 15 -1 27 -5 27 -11z m63
5 c7 0 10 -4 7 -10 -10 -17 -62 -12 -62 6 0 11 7 14 21 10 12 -3 27 -6 34 -6z
m45 -17 c-7 -2 -13 -12 -13 -21 0 -15 -2 -15 -10 -2 -9 13 -14 8 -12 -11 2
-13 -50 -20 -63 -9 -9 8 -15 8 -20 0 -3 -5 -11 -10 -16 -10 -6 0 -8 4 -5 8 3
5 -3 8 -12 8 -9 -1 -17 4 -17 9 0 6 25 10 55 10 30 1 64 6 75 13 11 6 27 11
35 11 10 0 11 -2 3 -6z m-208 -149 c28 -13 25 -14 -35 -7 -36 3 -73 7 -83 8
-9 1 -23 8 -30 15 -10 12 -9 12 6 1 10 -8 17 -9 17 -3 0 24 55 18 125 -14z
m-113 -16 c11 2 27 -2 36 -10 13 -11 14 -11 7 1 -5 10 -4 12 4 7 6 -4 33 -9
59 -11 65 -4 65 -6 2 -19 -30 -7 -60 -9 -66 -4 -6 4 -13 5 -16 2 -7 -6 -88 26
-88 35 0 16 14 20 28 8 8 -6 24 -11 34 -9z m-127 -82 c45 -19 44 -26 -2 -26
-30 0 -35 3 -23 11 13 9 12 10 -3 5 -26 -8 -82 5 -65 15 20 13 54 11 93 -5z
m27 -40 c10 3 26 1 35 -5 10 -6 14 -11 9 -11 -6 0 -1 -7 10 -15 10 -8 14 -15
7 -15 -6 0 -15 5 -18 10 -3 6 -11 10 -16 10 -6 0 -7 -5 -4 -11 5 -7 -4 -9 -26
-6 -22 3 -33 9 -31 17 2 10 0 11 -11 2 -11 -9 -21 -6 -45 12 -41 30 -32 37 25
20 26 -8 55 -12 65 -8z m-241 -27 c11 -5 17 -14 14 -20 -4 -5 4 -9 17 -9 17 0
20 -2 9 -9 -9 -6 -27 -3 -50 10 -20 10 -43 19 -51 20 -10 0 -9 3 5 9 27 12 33
12 56 -1z m-2 -44 c40 -24 83 -36 51 -15 -8 5 -10 10 -5 10 6 -1 18 -7 28 -14
15 -12 15 -15 3 -19 -29 -11 -92 11 -120 42 -25 28 -11 26 43 -4z"/>
<path d="M833 2380 c-23 -9 -49 -48 -39 -58 13 -12 76 28 76 48 0 22 -4 23
-37 10z"/>
<path d="M1092 1989 c-106 -41 -215 -172 -247 -297 -34 -132 20 -215 140 -215
73 0 146 41 206 115 46 59 26 58 -26 0 -56 -62 -115 -92 -181 -92 -88 0 -127
66 -100 171 36 139 140 269 244 303 61 21 95 15 117 -18 22 -32 6 -92 -35
-136 -26 -28 -35 -32 -65 -27 -37 6 -47 -6 -19 -21 55 -31 154 64 154 146 0
44 -9 61 -41 77 -38 20 -83 18 -147 -6z"/>
<path d="M2157 1995 c-22 -11 -42 -13 -89 -6 -139 19 -259 -37 -302 -141 -40
-95 6 -180 86 -161 33 8 68 43 67 67 0 21 0 21 -9 0 -11 -28 -48 -54 -77 -54
-53 0 -79 68 -52 137 33 87 168 153 281 138 l48 -7 -37 -43 c-21 -23 -73 -112
-115 -197 -99 -199 -159 -257 -202 -196 -12 16 -19 19 -27 11 -19 -19 7 -53
42 -53 83 0 141 63 239 260 72 145 111 210 126 210 25 0 54 -47 54 -87 0 -67
-50 -115 -122 -117 -45 -2 -37 -21 11 -27 56 -7 74 -30 68 -85 -5 -50 -30 -86
-78 -113 -47 -27 -94 -27 -116 -1 -20 24 -33 26 -33 6 0 -24 42 -46 86 -46 58
0 104 22 147 69 48 53 52 112 11 157 -20 21 -23 29 -13 33 8 2 29 19 47 38 25
27 32 43 32 74 0 51 -13 75 -53 100 -31 19 -31 19 -9 25 12 4 22 10 22 15 0
12 0 12 -33 -6z"/>
<path d="M1465 1824 c-24 -22 -27 -31 -23 -69 5 -39 3 -44 -17 -49 -13 -3 -37
-22 -54 -41 -41 -47 -44 -106 -6 -131 32 -21 87 -13 128 17 l29 21 14 -21 c17
-24 60 -27 87 -7 28 21 21 39 -8 20 -25 -16 -27 -16 -50 6 l-24 23 29 51 c25
44 33 51 56 48 18 -3 25 0 22 10 -7 19 -73 17 -73 -2 0 -22 -26 -80 -36 -80
-4 0 -17 21 -29 47 -16 37 -18 49 -8 52 24 8 78 69 78 88 0 49 -70 59 -115 17z
m84 2 c15 -18 2 -46 -36 -76 l-27 -21 -8 22 c-20 54 38 115 71 75z m-65 -183
l28 -57 -22 -18 c-13 -10 -39 -18 -61 -18 -49 0 -66 25 -49 75 10 31 51 75 69
75 4 0 19 -26 35 -57z"/>
<path d="M1280 1215 c-5 -13 -23 -56 -40 -96 -33 -79 -33 -79 -22 -79 5 0 20
28 34 63 15 34 34 79 42 100 10 22 12 37 6 37 -6 0 -15 -11 -20 -25z"/>
<path d="M1697 1208 c-8 -18 -26 -62 -41 -97 -15 -35 -25 -66 -22 -69 9 -8 11
-4 55 101 22 53 36 97 31 97 -6 0 -16 -15 -23 -32z"/>
<path d="M1373 1219 c-30 -11 -43 -39 -43 -92 0 -30 6 -49 18 -60 26 -24 68
-21 86 5 22 31 21 111 -1 130 -28 24 -37 26 -60 17z m43 -20 c3 -6 6 -33 6
-61 0 -59 -21 -90 -46 -68 -19 15 -22 110 -4 128 15 15 35 15 44 1z"/>
<path d="M962 1208 c-7 -7 -12 -19 -12 -27 0 -11 4 -11 20 4 10 9 26 15 35 12
26 -11 17 -44 -27 -94 l-41 -48 53 -3 c54 -3 70 5 70 38 0 11 -3 11 -12 2 -7
-7 -25 -12 -41 -12 l-29 0 36 40 c37 42 45 67 24 88 -15 15 -61 15 -76 0z"/>
<path d="M1097 1213 c-4 -3 -7 -13 -7 -22 0 -12 3 -12 12 -3 12 12 68 17 68 7
0 -3 -11 -27 -24 -53 -34 -69 -40 -92 -23 -92 9 0 19 18 27 48 6 26 20 61 31
78 10 17 19 34 19 38 0 8 -95 8 -103 -1z"/>
<path d="M1502 1208 c-11 -14 -15 -33 -13 -61 1 -22 40 -38 64 -25 9 5 17 5
17 1 0 -16 -31 -53 -45 -53 -8 0 -17 -4 -20 -10 -12 -20 24 -9 54 16 59 49 47
144 -18 144 -16 0 -33 -6 -39 -12z m56 -10 c17 -17 15 -58 -4 -65 -8 -3 -23 1
-32 10 -13 13 -13 21 -4 42 13 28 22 31 40 13z"/>
<path d="M1772 1208 c-7 -7 -12 -19 -12 -27 1 -13 2 -13 11 2 12 20 47 23 55
3 7 -18 -17 -65 -50 -95 -14 -14 -26 -28 -26 -33 0 -4 25 -8 55 -8 30 0 55 4
55 9 0 5 3 18 6 28 6 15 4 16 -7 6 -7 -7 -26 -13 -43 -13 l-30 0 31 33 c37 39
49 73 33 92 -15 18 -61 20 -78 3z"/>
<path d="M1906 1189 c-8 -44 -8 -51 5 -44 5 4 21 4 35 1 18 -5 24 -13 24 -35
0 -41 -25 -59 -50 -36 -23 21 -39 13 -20 -10 29 -35 100 -4 100 45 0 33 -31
60 -60 53 -15 -4 -18 -1 -13 16 4 15 13 21 34 21 15 0 31 5 34 10 4 6 -11 10
-38 10 -42 0 -45 -2 -51 -31z"/>
<path d="M2408 1287 c6 -7 20 -33 32 -57 19 -43 20 -43 14 -11 -4 19 -13 41
-20 49 -8 7 -14 18 -14 23 0 5 -5 9 -11 9 -8 0 -8 -4 -1 -13z"/>
</g>
</svg>
